<svg xmlns="http://www.w3.org/2000/svg" viewBox="0 0 137.42 55"><defs><style>.cls-1{fill:#f6f4f2;}.cls-2{fill:none;}</style></defs><title>ADB</title><g id="Layer_2" data-name="Layer 2"><g id="Layer_1-2" data-name="Layer 1"><polygon class="cls-1" points="47.98 0 30.05 0 0 55 14.79 55 36.08 18.72 38.09 31.98 29.79 32 22.29 44.5 39.99 44.47 42 55 59.31 55 47.98 0"/><path class="cls-2" d="M87.53,27.12A20.81,20.81,0,0,0,85,16.54,8.31,8.31,0,0,0,77.53,12H72.79V42h4.74a8.32,8.32,0,0,0,7.1-3.92C86.56,35.35,87.53,31.81,87.53,27.12Z"/><path class="cls-1" d="M126.42,26.29a12.22,12.22,0,0,0,7.12-4.59,12.53,12.53,0,0,0,2.39-7.46,14.07,14.07,0,0,0-4.11-9.95C129.08,1.35,124.72,0,118.74,0H86.46A21,21,0,0,1,98.24,7a24.09,24.09,0,0,1,3.66,5h11.86c3.87,0,5.81,1.34,5.81,4.41a3.66,3.66,0,0,1-1.24,2.64c-.83,1-2.26.94-4.27.94h-9a33.58,33.58,0,0,1,.65,6.58,32.1,32.1,0,0,1-.5,6.42h8.73c2.54,0,4.29.35,5.25,1.42a4.93,4.93,0,0,1,1.43,3.41,6.29,6.29,0,0,1-1.47,4A6.46,6.46,0,0,1,114.47,44H101.21c-1,1-2.17,2.79-3.51,4.15A25.76,25.76,0,0,1,85.4,55H117c8.47,0,14-1.63,16.58-4.85a17.1,17.1,0,0,0,3.88-11Q137.42,28.88,126.42,26.29Z"/><path class="cls-1" d="M100.14,43a27.13,27.13,0,0,0,3.68-10,36.12,36.12,0,0,0,.47-5.92,31,31,0,0,0-.61-6.08,28.1,28.1,0,0,0-2.9-8,30.52,30.52,0,0,0-3.41-5,21.7,21.7,0,0,0-11-6.83A35.48,35.48,0,0,0,76.53,0H55.16L55,28.54,60.48,55H77.77a29.49,29.49,0,0,0,7.63-1,24.32,24.32,0,0,0,11.47-6.8A25.78,25.78,0,0,0,100.14,43ZM77.53,42H72.79V12h4.74A8.31,8.31,0,0,1,85,16.54,20.49,20.49,0,0,1,87.53,27c0,4.69-1,8.28-2.89,11A8.37,8.37,0,0,1,77.53,42Z"/></g></g></svg>