<svg xmlns="http://www.w3.org/2000/svg" viewBox="0 0 285.83 57.3"><defs><style>.cls-1{fill:#f6f4f2;}.cls-2{fill:none;}.cls-3{fill:#61892f;}</style></defs><title>ADBStudios</title><g id="Layer_2" data-name="Layer 2"><g id="Layer_1-2" data-name="Layer 1"><polygon class="cls-1" points="47.98 0 30.05 0 0 55 14.79 55 36.08 18.72 38.09 31.98 29.79 32 22.29 44.5 39.99 44.47 42 55 59.31 55 47.98 0"/><path class="cls-2" d="M87.53,27.12A20.81,20.81,0,0,0,85,16.54,8.31,8.31,0,0,0,77.53,12H72.79V42h4.74a8.32,8.32,0,0,0,7.1-3.92C86.56,35.35,87.53,31.81,87.53,27.12Z"/><path class="cls-1" d="M126.42,26.29a12.22,12.22,0,0,0,7.12-4.59,12.53,12.53,0,0,0,2.39-7.46,14.07,14.07,0,0,0-4.11-9.95C129.08,1.35,124.72,0,118.74,0H86.46A21,21,0,0,1,98.24,7a24.09,24.09,0,0,1,3.66,5h11.86c3.87,0,5.81,1.34,5.81,4.41a3.66,3.66,0,0,1-1.24,2.64c-.83,1-2.26.94-4.27.94h-9a33.58,33.58,0,0,1,.65,6.58,32.1,32.1,0,0,1-.5,6.42h8.73c2.54,0,4.29.35,5.25,1.42a4.93,4.93,0,0,1,1.43,3.41,6.29,6.29,0,0,1-1.47,4A6.46,6.46,0,0,1,114.47,44H101.21c-1,1-2.17,2.79-3.51,4.15A25.76,25.76,0,0,1,85.4,55H117c8.47,0,14-1.63,16.58-4.85a17.1,17.1,0,0,0,3.88-11Q137.42,28.88,126.42,26.29Z"/><path class="cls-1" d="M100.14,43a27.13,27.13,0,0,0,3.68-10,36.12,36.12,0,0,0,.47-5.92,31,31,0,0,0-.61-6.08,28.1,28.1,0,0,0-2.9-8,30.52,30.52,0,0,0-3.41-5,21.7,21.7,0,0,0-11-6.83A35.48,35.48,0,0,0,76.53,0H55.16L55,28.54,60.48,55H77.77a29.49,29.49,0,0,0,7.63-1,24.32,24.32,0,0,0,11.47-6.8A25.78,25.78,0,0,0,100.14,43ZM77.53,42H72.79V12h4.74A8.31,8.31,0,0,1,85,16.54,20.49,20.49,0,0,1,87.53,27c0,4.69-1,8.28-2.89,11A8.37,8.37,0,0,1,77.53,42Z"/><path class="cls-3" d="M162.83,42.83q0,7-7.14,11.29a6,6,0,0,1-5.31,3.18q-5.78-.08-12.88-5.16-6.09-4.34-8.42-8.38Q126.88,40,126.88,39q0-1.2,1.75-2.71a4.62,4.62,0,0,1,2.56-1.43q.89,0,.89,1.16a5.05,5.05,0,0,1-.19,1.24q2.06,5.59,8.69,10.39t12,4.77q4.77,0,4.77-6.52,0-3.57-5.57-14.25t-5.57-15.3A9,9,0,0,1,147.94,11a24.76,24.76,0,0,1,5-4.69,2.17,2.17,0,0,1,1.32-.5q1,0,1,.89a1.83,1.83,0,0,1-.7,1.28,9.15,9.15,0,0,0-3,6.9q0,4.54,5.59,15T162.83,42.83Zm11.6-35.6a32.88,32.88,0,0,1-4.11,9.23q-1.16,1.75-2.21,1.75t-3.53-1.67q-.78-.5-.78-1,0-.81,1.36-1.16,1-.31,2.29-3.53A14.26,14.26,0,0,0,168.65,6q0-1.82-1.44-1.82a6.79,6.79,0,0,0-1.28.16,46.33,46.33,0,0,0-6.52,2.06,3.34,3.34,0,0,1-1,.19q-1.16,0-1.16-.78t1.2-1.32A72.78,72.78,0,0,1,167,.83a6.59,6.59,0,0,1,1.94-.5q.89,0,2.33,2.48a15.49,15.49,0,0,1,2.68,1,1.68,1.68,0,0,1,.85,1.55A6.93,6.93,0,0,1,174.43,7.22Z"/><path class="cls-3" d="M183.33,13.15q.92.49.92,1.12,0,.43-.62.43a2.64,2.64,0,0,1-.41,0,2.64,2.64,0,0,0-.41,0q-1.25,0-3,2.72-1.57,2.43-4.36,10.56c-.17.48-.24.77-.2.85s.35.24.85.26a31,31,0,0,0,5.18-.13c.74-.07,1.12.25,1.12,1q0,.72-.85.89-.69.1-7.25.59a92.92,92.92,0,0,0-4.79,19.48q0,.43,0,.75,0,1.12.56,1.12.89,0,5.35-4.3a1.49,1.49,0,0,1,1-.52.48.48,0,0,1,.52.36,1.12,1.12,0,0,1-.29.92,50.85,50.85,0,0,1-5.22,6,3,3,0,0,1-1.8,1,4.57,4.57,0,0,1-2.23-1.15q-1.87-.49-1.87-2a2.41,2.41,0,0,1,.07-.52,161.25,161.25,0,0,1,4.76-20.83q-1.74-.23-3.15-.46a.7.7,0,0,1-.62-.79.83.83,0,0,1,.66-.92q.66-.16,2.43-.72a10.15,10.15,0,0,0,2.1-1q3.51-10.86,5.51-14.07,1.15-1.84,2.46-1.84A8.65,8.65,0,0,1,183.33,13.15Z"/><path class="cls-3" d="M205.5,31.22a67.72,67.72,0,0,0-6.53,19q.92-1.61,2.23-4.1c.11-.31.28-.46.52-.46s.49.21.49.62a1.11,1.11,0,0,1-.1.43,51.81,51.81,0,0,0-2.76,7.38q-.39,1.64-1,1.64a6.45,6.45,0,0,1-2.56-1.28,2.37,2.37,0,0,1-.69-2.56,80.89,80.89,0,0,1,3.31-12.43,117,117,0,0,1-10.63,15.19,2.75,2.75,0,0,1-2.07,1.08,4.36,4.36,0,0,1-2.17-.75q-2.26-.39-2.26-2.36a5.3,5.3,0,0,1,.06-.79,52.66,52.66,0,0,1,3.41-15.58l-1.67,1.54q-.42.36-.66.2t.1-.75a24.68,24.68,0,0,0,2.1-3.41,16,16,0,0,1,2.13-4,1.65,1.65,0,0,1,1.25-.72,5.71,5.71,0,0,1,2.59,1c.31.2.46.39.46.59l-.72,1.08a35.51,35.51,0,0,0-3.48,8.79,42.58,42.58,0,0,0-2,11.12q0,1.41.59,1.41T187.1,52a78.46,78.46,0,0,0,7.31-10.17,87.86,87.86,0,0,0,5.12-8.59q1.48-3.35,2.39-3.94a2,2,0,0,1,1-.39,5.06,5.06,0,0,1,1.77.69q1.31.69,1.31,1c0,.07-.08.15-.23.26A1,1,0,0,0,205.5,31.22Z"/><path class="cls-3" d="M247.62,4.09a.83.83,0,0,1,.39.66q0,.62-.79.62a1.4,1.4,0,0,1-.62-.16,6,6,0,0,0-2.3-.75q-2,0-4.49,4-9,14.73-13.15,39.23a33.25,33.25,0,0,0,2.3-2.56q.85-1,1.25-1,.89,0,.16,1a24,24,0,0,0-4.17,9.41q-.39,1.21-1,1.21a1.35,1.35,0,0,1-.72-.3q-1.64-1.11-1.84-1.31a2.2,2.2,0,0,1-.66-1.67,6.3,6.3,0,0,1,.16-1.31q1.41-7.58,2.33-11.28a103.65,103.65,0,0,1-7.27,9.23,37.86,37.86,0,0,1-5.89,5.82,4.51,4.51,0,0,1-2.1,1,3.63,3.63,0,0,1-1.8-1q-2.13-1.31-2.13-3.05a3.67,3.67,0,0,1,.07-.66,32.91,32.91,0,0,1,4.38-11.33,45.16,45.16,0,0,1,8.45-10.84A4.17,4.17,0,0,1,221,27.64q1.28.07,4.56,3.12a.75.75,0,0,1,.29.56q0,.53-.69.52a1.4,1.4,0,0,1-.49-.1q-2.3-1-3.74.07-3.08,2.3-6.79,8-4.3,6.56-5.05,11.81-.17,1.25.66,1.25a4.32,4.32,0,0,0,2.66-1.54,90.11,90.11,0,0,0,7.84-9,45.54,45.54,0,0,0,5.51-8.46,22,22,0,0,0,1.08-3,123.49,123.49,0,0,1,7.61-20.63q3.28-6.69,5.77-9a2.63,2.63,0,0,1,1.77-.89,4.38,4.38,0,0,1,2.36,1.08Z"/><path class="cls-3" d="M243.39,32.7a130.65,130.65,0,0,1-4.1,14.73,22.5,22.5,0,0,0,2.62-3.12.62.62,0,0,1,.46-.3q.52,0,.13.92-.17.36-2.76,4.49A32.6,32.6,0,0,0,236.86,55a1.08,1.08,0,0,1-1.08.75,4.8,4.8,0,0,1-2.13-.75c-.57-.31-.85-.54-.85-.69a2.54,2.54,0,0,1,.36-.85A54.08,54.08,0,0,0,237.09,43a57.79,57.79,0,0,0,2.33-10.53q.1-1.48-.29-1.48t-1,.72l-2,1.9q-1.08,1-1.08.1a1.2,1.2,0,0,1,.3-.66,46.41,46.41,0,0,1,3.28-4.1,1.46,1.46,0,0,1,1-.56,3.16,3.16,0,0,1,1.54.72,13.44,13.44,0,0,1,1.67.49,1.83,1.83,0,0,1,.75,1.71A8,8,0,0,1,243.39,32.7ZM248,18.33a1.11,1.11,0,0,1,.53.89q0,1-2.82,3a4.62,4.62,0,0,1-3.61.92,4.28,4.28,0,0,1-1.71-.72,1.47,1.47,0,0,1-.34-.41.38.38,0,0,1,0-.34q.1-.13.39-.07a40.2,40.2,0,0,0,4-3.77q.75-.85,1.08-.85A6.79,6.79,0,0,1,248,18.33Z"/><path class="cls-3" d="M268,34.24A33.27,33.27,0,0,1,266.54,42q-2.13,7.61-6,11.81A6.17,6.17,0,0,1,255.92,56a9.91,9.91,0,0,1-2.53-.43,8,8,0,0,1-5-1.94,5.92,5.92,0,0,1-2-4.89,34.73,34.73,0,0,1,2.39-9.71q2.49-6.79,5.18-9.77,1.28-1.44,2.1-1.44,1.11,0,3.61,2.3.69-.33,2.82-1.21a5.74,5.74,0,0,1,1.64-.36q1.28,0,2.85,2.39A5.3,5.3,0,0,1,268,34.24Zm-3.77,1q.23-2.2.23-2.79,0-1.38-.85-1.38a3.71,3.71,0,0,0-.85.13l-5.08,2.07a5.68,5.68,0,0,1-1,.36q-.26,0-.53-.62a24,24,0,0,0-3.54,6.72,36.85,36.85,0,0,0-1.77,6.17,17.43,17.43,0,0,0-.36,3.35q0,5.05,3.12,4.92a5.22,5.22,0,0,0,2.69-1q2.76-1.87,5.15-7.48A35.08,35.08,0,0,0,264.18,35.19Z"/><path class="cls-3" d="M280.58,47.55q.1,3.94-4.36,5.38a6.49,6.49,0,0,1-1,1.9,3.39,3.39,0,0,1-2.23.92,9.35,9.35,0,0,1-2-.1l-4.76-.72a1.09,1.09,0,0,1-1-1q.13-.89,1.84-1,2.33-.16,6.89-.82a3.38,3.38,0,0,0,2.43-1.94,4,4,0,0,0,.43-1.94q0-2.07-2.07-7.28t-1.9-6.79q.26-4.1,7.58-5.71.72-.16.72.52c0,.26-.18.47-.53.62Q277,31.15,277,33.42a9.57,9.57,0,0,0,.33,2.21q.33,1.33,2,6.38A20.43,20.43,0,0,1,280.58,47.55Zm5.25-18.83a22.74,22.74,0,0,1-.79,4.72,3.15,3.15,0,0,1-.66,1.44,4,4,0,0,1-1.12.49,6.51,6.51,0,0,1-1.51.46q-.49,0-.49-.66a4.58,4.58,0,0,1,.13-1,14.23,14.23,0,0,0,.61-4.51q-.18-1.26.74-1.59a6.66,6.66,0,0,1,2.07-.82Q285.83,27.32,285.83,28.73Z"/></g></g></svg>