<svg xmlns="http://www.w3.org/2000/svg" viewBox="0 0 256.11 84.7"><defs><style>.cls-1{fill:#f6f4f2;}.cls-2{fill:none;}.cls-3{font-size:72px;fill:#61892f;stroke:#61892f;stroke-miterlimit:10;stroke-width:0.75px;font-family:Italianno-Regular, Italianno;}</style></defs><title>adbstudios3</title><g id="Layer_2" data-name="Layer 2"><g id="Layer_1-2" data-name="Layer 1"><polygon class="cls-1" points="41.88 3.93 26.23 3.93 0 51.93 12.91 51.93 31.49 20.27 33.24 31.84 26 31.86 19.45 42.76 34.9 42.73 36.66 51.93 51.76 51.93 41.88 3.93"/><path class="cls-2" d="M76.39,27.59a19.08,19.08,0,0,0-2.24-9.46c-1.5-2.54-3.66-4.2-6.48-4.2H63.3v27h4.36c2.45,0,4.51-1.22,6.2-3.59S76.39,31.69,76.39,27.59Z"/><path class="cls-1" d="M110.33,26.87a10.67,10.67,0,0,0,6.21-4,10.93,10.93,0,0,0,2.08-6.51A12.28,12.28,0,0,0,115,7.67c-2.39-2.56-6.19-3.74-11.41-3.74H75.46A18,18,0,0,1,85.73,9.81c1.25,1.46,2.3,3.11,3.19,4.11H99.28c3.38,0,5.07,1.41,5.07,4.09,0,1-.36,1.33-1.09,2.2s-2,.71-3.73.71h-7.9A34.94,34.94,0,0,1,92.21,27a32.73,32.73,0,0,1-.44,5.93h7.62c2.22,0,3.75.21,4.58,1.14A4.19,4.19,0,0,1,105.22,37a4.92,4.92,0,0,1-1.29,3.3,5.52,5.52,0,0,1-4,1.64H88.33c-.87,1-1.9,2.63-3.06,3.82a22.84,22.84,0,0,1-10.73,6.18h27.54c7.39,0,12.21-1.42,14.47-4.24a14.92,14.92,0,0,0,3.39-9.59Q119.93,29.14,110.33,26.87Z"/><path class="cls-1" d="M87.4,41.45a23.67,23.67,0,0,0,3.21-8.73A31.53,31.53,0,0,0,91,27.56a27,27,0,0,0-.53-5.3,24.52,24.52,0,0,0-2.53-7,26.63,26.63,0,0,0-3-4.39,18.94,18.94,0,0,0-9.59-6,31,31,0,0,0-8.6-1H48.14L48,28.83l4.76,23.09H67.87a25.74,25.74,0,0,0,6.66-.85,21.23,21.23,0,0,0,10-5.94A22.49,22.49,0,0,0,87.4,41.45Zm-19.73-.53H63.3v-27h4.36c2.83,0,5,1.66,6.48,4.2a18.33,18.33,0,0,1,2.24,9.27c0,4.1-.84,7.46-2.53,9.84S70.11,40.93,67.66,40.93Z"/><text class="cls-3" transform="translate(108.55 51.93)">Studios</text></g></g></svg>