<svg id="Layer_1" data-name="Layer 1" xmlns="http://www.w3.org/2000/svg" viewBox="0 0 273.29 58.25"><defs><style>.cls-1{fill:#f6f4f2;}.cls-2{fill:none;}.cls-3{fill:#61892f;stroke:#61892f;stroke-miterlimit:10;}</style></defs><title>adbstudios</title><polygon class="cls-1" points="47.98 0 30.05 0 0 55 14.79 55 36.08 19.28 38.09 32.81 29.79 32.97 22.29 45.54 39.99 44.99 42 55 59.31 55 47.98 0"/><path class="cls-2" d="M87.53,28.22A23,23,0,0,0,85,17.1c-1.71-2.91-4.19-5.1-7.43-5.1H72.79V42h4.74c2.81,0,5.17-.64,7.1-3.37S87.53,32.92,87.53,28.22Z"/><path class="cls-1" d="M126.42,27.39a12.22,12.22,0,0,0,7.12-4.59,12.53,12.53,0,0,0,2.39-7.46,15.38,15.38,0,0,0-4.11-10.5C129.08,1.9,124.72,0,118.74,0H86.46A20.9,20.9,0,0,1,98.24,7a24.09,24.09,0,0,1,3.66,5h11.86c3.87,0,5.81,1.89,5.81,5,0,1.13-.41,1.37-1.24,2.37s-2.26.67-4.27.67h-9a33.58,33.58,0,0,1,.65,6.58,32.1,32.1,0,0,1-.5,6.42h8.73a6.89,6.89,0,0,1,5.25,2,5.59,5.59,0,0,1,1.43,3.68,5.26,5.26,0,0,1-1.47,3.62A6.26,6.26,0,0,1,114.47,44H101.21c-1,1-2.17,2.79-3.51,4.15A24,24,0,0,1,85.4,55H117c8.47,0,14-1.08,16.58-4.3A16.36,16.36,0,0,0,137.42,40C137.42,33.14,133.75,29.12,126.42,27.39Z"/><path class="cls-1" d="M100.14,44.11a27.13,27.13,0,0,0,3.68-10,36.12,36.12,0,0,0,.47-5.92,31,31,0,0,0-.61-6.08,28.1,28.1,0,0,0-2.9-8,30.52,30.52,0,0,0-3.41-5,22.6,22.6,0,0,0-11-7.39A34.84,34.84,0,0,0,76.53,0H55.16L55,28.54,60.48,55H77.77c2.7,0,5.25.21,7.63-.43a23.82,23.82,0,0,0,11.47-6.52A23.83,23.83,0,0,0,100.14,44.11ZM77.53,42H72.79V12h4.74c3.24,0,5.71,2.18,7.43,5.1a21.55,21.55,0,0,1,2.57,10.76c0,4.69-1,7.87-2.89,10.59A8,8,0,0,1,77.53,42Z"/><path class="cls-3" d="M160.43,21.1V19.66a2.34,2.34,0,0,0-1-2,7.81,7.81,0,0,0-5.54-1.94q-4.75,0-6.91,3.31a6.65,6.65,0,0,0-1.3,3.64,9.3,9.3,0,0,0,.83,3.64,36,36,0,0,0,4.68,6.7q3.85,4.75,4.79,7.2a12,12,0,0,1,.94,4.1,10.66,10.66,0,0,1-3.74,8.06,17.33,17.33,0,0,1-5.58,3.49,19,19,0,0,1-7,1.26,16.68,16.68,0,0,1-7.63-1.94,8.62,8.62,0,0,1-4.75-5.9A11.81,11.81,0,0,1,128,47.2a10.86,10.86,0,0,1,.83-3.49,7.82,7.82,0,0,1,2.63-3.6s.14,0,.29.14.33.46.14.65a5.36,5.36,0,0,0-1.37,3.6,9,9,0,0,0,1.66,5.11,12.59,12.59,0,0,0,4.61,3.82,14.54,14.54,0,0,0,6.7,1.66q5.11,0,7.56-3.74a8.77,8.77,0,0,0,1.37-4.64,14.22,14.22,0,0,0-.86-4.82A43.61,43.61,0,0,0,148,35q-2.7-4.5-3-5a11.59,11.59,0,0,1-1.44-5.44,8.59,8.59,0,0,1,1.69-5.08,12,12,0,0,1,4.36-3.74,13.26,13.26,0,0,1,6.12-1.51,9.37,9.37,0,0,1,7.27,3.1,3.83,3.83,0,0,1,.36,1.84,4,4,0,0,1-.5,2.05,16.58,16.58,0,0,0-2.38,4.54q-1,.65-1.37.22A10.86,10.86,0,0,0,160.43,21.1Z"/><path class="cls-3" d="M166.11,34.92l2.23.07A56.29,56.29,0,0,0,174,25a6.34,6.34,0,0,0,2-.83,9.17,9.17,0,0,0,2-1.37c.41-.41.67-.61.79-.61a.16.16,0,0,1,.18.18q0,.18-.58.83a48.29,48.29,0,0,0-2.84,4.28A78.64,78.64,0,0,0,171.37,35h5.83c.48,0,.74.07.79.22s-.11.28-.47.4l-1,.32a12.73,12.73,0,0,1-2.05.29q-3.53.22-4.36,1.4a42,42,0,0,0-2.84,6.08q-3.74,9.07-1.15,9.07,2.23,0,8.21-6.91l1.37-1.73a1.27,1.27,0,0,1,.14.68,3.37,3.37,0,0,1-.79,1.55q-6.63,8.5-12,8.5-1.73,0-1.73-1.37,0-1.73,2.81-7.34l3.89-8.71q-7.34,8.93-7.49,9.14-.5.72-.5-.14a1.52,1.52,0,0,1,.36-1q4.9-6.12,6.77-8.57-.65,0-3.89.36-.72,0,.54-1.15t1.76-1.15Z"/><path class="cls-3" d="M200.1,35.71q-2.16.65-4.93,6.66t-2.77,8.21q0,2.2,1.08,2.2,1.3,0,4.25-2.3a30.81,30.81,0,0,0,5.69-5.76l.65-.72a1.47,1.47,0,0,1,.14.9,3.81,3.81,0,0,1-.94,1.48q-6.34,8.5-11.88,8.5-2.52,0-2.52-1.94a13.77,13.77,0,0,1,.94-4,32,32,0,0,1,1.73-4.21q-7.06,10.15-13,10.15-1.73,0-1.73-1.37,0-1.73,2.81-7.34.65-1.3,1.73-3.53t1.48-3a2.61,2.61,0,0,0,.4-1c0-.22-.07-.32-.22-.32q-.51,0-2.81,2.09a42.9,42.9,0,0,0-5.33,6.19q-.5.72-.5-.14a1.52,1.52,0,0,1,.36-1q3-4,4.79-6l2-2.27a8.65,8.65,0,0,1,.79-.76,7.2,7.2,0,0,1,1-.76,5.85,5.85,0,0,1,3.06-.86q1.62,0,1.62,1.22a5.71,5.71,0,0,1-1.22,2.74A71.08,71.08,0,0,0,183,45.4q-2.48,4.86-2.48,6.12t1,1.26q1.37,0,4.32-2.81,4.54-4.32,9.36-13.54.65-1.15.86-1.15h1a8.18,8.18,0,0,0,3.6-.65.29.29,0,0,1,.22-.07c.1,0,.14.1.14.29Q201,35.42,200.1,35.71Z"/><path class="cls-3" d="M242.72,15.62s-.12,0-.22-.14A3.1,3.1,0,0,0,240.35,13a5.92,5.92,0,0,0-1.87-.29,6.77,6.77,0,0,0-2.23.43q-3.46,1.23-7.63,8.64T220,39.1s-.62,1.22-1.73,3.53q-3.67,7.63-3.67,8.89t.86,1.26q1.58,0,4.93-3.28A43.54,43.54,0,0,0,225.3,44a.91.91,0,0,1,.14.61,4.11,4.11,0,0,1-1,1.76q-6.41,8.5-11.88,8.5-1.73,0-1.73-1.37,0-2.52,2.81-6.91-2.52,2.66-5.26,5-3.89,3.17-6.55,3.17-1.29,0-1.3-1.58a1.22,1.22,0,0,1,.07-.5A21.85,21.85,0,0,1,204,44.06a26.34,26.34,0,0,1,6.23-7.2A8.51,8.51,0,0,1,215.72,35H219q1.15-1.94,3.67-6.73t3.6-6.59q6.55-11.09,14.47-11.09a2.83,2.83,0,0,1,1.76.58,1.72,1.72,0,0,1,.68,1.58l-.14,2.59Q243.08,15.62,242.72,15.62ZM217.6,37.3q0-1.37-1.84-1.37T211.69,38a28.92,28.92,0,0,0-4.86,6.73q-2.63,4.64-2.63,6.73,0,.86.58.86,2.09,0,7.45-6.37T217.6,37.3Z"/><path class="cls-3" d="M231.09,53.39a8.59,8.59,0,0,1-4.39,1.48q-2,0-2-1.37a7,7,0,0,1,.72-2.88q.5-1.15,5.76-12.24a104.25,104.25,0,0,0-6.91,8.21q-.5.72-.5-.14a1.52,1.52,0,0,1,.36-1q5.11-6.34,7.85-10.3,3.6-.5,4.32-1.15t.79-.07a1.17,1.17,0,0,1-.32.68q-.32.4-5.87,10.84-2.45,4.61-2.45,6.34a.89.89,0,0,0,1,1q2.23,0,8.06-6.91l1.58-1.8q.86.86-4.25,6.34A17.15,17.15,0,0,1,231.09,53.39Zm7.81-26.24q-1.73,0-1.73-1.87a1.83,1.83,0,0,1,1-1.51,3.24,3.24,0,0,1,1.73-.65,1.38,1.38,0,0,1,1.19.61,1.9,1.9,0,0,1,.43,1,2,2,0,0,1-.94,1.87A3.26,3.26,0,0,1,238.91,27.14Z"/><path class="cls-3" d="M255.39,37.44q0,3.89-3.89,9.5a25,25,0,0,1-2.74,3.17q4.75,0,8.78-5.33c.24-.24.36-.16.36.25a1.51,1.51,0,0,1-.29,1q-3.67,5.11-8.35,5.11A11.76,11.76,0,0,1,248,51a13,13,0,0,1-9.07,3.74q-3,0-3-2.52,0-4.1,4-9.58A19.18,19.18,0,0,1,246,37q3.82-2.38,6.48-2.38Q255.39,34.63,255.39,37.44Zm-3.46.07q0-1.73-1.3-1.73a5.93,5.93,0,0,0-1.66.47,9.66,9.66,0,0,0-3.06,2.38,23.74,23.74,0,0,0-3.49,4.86q-3.1,5.11-3.1,7.6t1.3,2.48a4.64,4.64,0,0,0,2.23-.68,8.84,8.84,0,0,0,1.94-1.4A38.47,38.47,0,0,0,249.49,45,14.8,14.8,0,0,0,251.94,37.51Z"/><path class="cls-3" d="M270.23,41.4q-.29,0-.14-.5a5,5,0,0,0,.14-1.33,4.72,4.72,0,0,0-.43-1.84,2.48,2.48,0,0,0-2.34-1.94,3.51,3.51,0,0,0-2.59,1,2.69,2.69,0,0,0-1,1.76,6.9,6.9,0,0,0,.11,1.33,4.08,4.08,0,0,0,.83,1.48,19.84,19.84,0,0,0,1.73,1.94q2.73,2.88,2.74,5.08a6.58,6.58,0,0,1-1.15,3.85,7.88,7.88,0,0,1-6.91,3.6,10.13,10.13,0,0,1-4.32-.94,3.74,3.74,0,0,1-2.52-3.53,6.66,6.66,0,0,1,.43-2.05A4.11,4.11,0,0,1,256,47.38c.29-.14.46-.1.5.14A8.26,8.26,0,0,0,256,50q0,2.23,3.1,4.1a3.3,3.3,0,0,0,1.87.58q3.53,0,4.57-1.26a4.64,4.64,0,0,0,1-3.06q0-1.8-2.3-4.25-2.74-3-2.74-5.11-.86,1.23-3.6,4.61-.58.79-.65.14a2,2,0,0,1,.58-1.44,87,87,0,0,0,5.62-7.85A5.8,5.8,0,0,1,268,34.42q4,0,4.1,2.81a8,8,0,0,1-1,3.46Q270.73,41.4,270.23,41.4Z"/></svg>