<svg xmlns="http://www.w3.org/2000/svg" viewBox="0 0 67.73 56.89"><defs><style>.cls-1,.cls-5,.cls-6{fill:#dee6d3;}.cls-2,.cls-4,.cls-7{fill:#fff;}.cls-3{fill:none;}.cls-3,.cls-4,.cls-5,.cls-6,.cls-7{stroke:#61892f;stroke-linejoin:round;}.cls-3,.cls-4,.cls-5{stroke-linecap:round;}</style></defs><title>home-image-v2</title><g id="Layer_2" data-name="Layer 2"><g id="Duotone"><rect class="cls-1" x="0.5" y="13.61" width="48.3" height="34.5" rx="3.6" ry="3.6"/><path class="cls-2" d="M29.71,13.61H4.64A4.14,4.14,0,0,0,.5,17.75V42.82Z"/><rect class="cls-3" x="0.5" y="13.61" width="48.3" height="34.5" rx="3.6" ry="3.6"/><path class="cls-4" d="M44.66,48.11A4.14,4.14,0,0,0,48.8,44V42.59H.5V44a4.14,4.14,0,0,0,4.14,4.14Z"/><polygon class="cls-2" points="28.79 53.63 20.51 53.63 21.2 48.11 28.1 48.11 28.79 53.63"/><polygon class="cls-3" points="28.79 53.63 20.51 53.63 21.2 48.11 28.1 48.11 28.79 53.63"/><path class="cls-4" d="M33.62,56.39H15.68a2.76,2.76,0,0,1,2.76-2.76H30.86A2.76,2.76,0,0,1,33.62,56.39Z"/><path class="cls-4" d="M11.54,8.78h40a0,0,0,0,1,0,0V32.6a2.4,2.4,0,0,1-2.4,2.4H13.94a2.4,2.4,0,0,1-2.4-2.4V8.78A0,0,0,0,1,11.54,8.78Z"/><path class="cls-4" d="M13.94.5H49.16a2.4,2.4,0,0,1,2.4,2.4V8.78a0,0,0,0,1,0,0h-40a0,0,0,0,1,0,0V2.9A2.4,2.4,0,0,1,13.94.5Z"/><circle class="cls-5" cx="15.68" cy="4.64" r="1.38"/><circle class="cls-5" cx="21.2" cy="4.64" r="1.38"/><circle class="cls-5" cx="26.72" cy="4.64" r="1.38"/><rect class="cls-5" x="23.96" y="17.06" width="5.52" height="5.52" rx="1" ry="1"/><rect class="cls-5" x="32.93" y="17.06" width="5.52" height="5.52" rx="1" ry="1"/><rect class="cls-5" x="41.9" y="17.06" width="5.52" height="5.52" rx="1" ry="1"/><rect class="cls-5" x="23.96" y="25.34" width="5.52" height="5.52" rx="1" ry="1"/><rect class="cls-5" x="32.93" y="25.34" width="5.52" height="5.52" rx="1" ry="1"/><rect class="cls-5" x="41.9" y="25.34" width="5.52" height="5.52" rx="1" ry="1"/><rect class="cls-5" x="15.68" y="11.54" width="5.52" height="2.76" rx="1" ry="1"/><rect class="cls-6" x="23.96" y="11.54" width="23.46" height="2.76" rx="1" ry="1"/><line class="cls-3" x1="15.68" y1="17.06" x2="21.2" y2="17.06"/><line class="cls-3" x1="15.68" y1="19.82" x2="21.2" y2="19.82"/><line class="cls-3" x1="15.68" y1="22.58" x2="21.2" y2="22.58"/><line class="cls-3" x1="15.68" y1="25.34" x2="21.2" y2="25.34"/><line class="cls-3" x1="15.68" y1="28.1" x2="21.2" y2="28.1"/><line class="cls-3" x1="15.68" y1="30.86" x2="19.13" y2="30.86"/><path class="cls-7" d="M60.54,46c-.2.73-.6.76-.89.06L55.12,35.16c-.29-.7,0-1,.74-.74l10.86,4.53c.7.29.67.69-.06.89l-3.48.95a2.68,2.68,0,0,0-1.69,1.69Z"/><circle class="cls-3" cx="24.65" cy="45.35" r="0.58"/></g></g></svg>