<svg xmlns="http://www.w3.org/2000/svg" viewBox="0 0 1034.16 1288.54"><title>Asset 1</title><g id="Layer_2" data-name="Layer 2"><g id="Layer_1-2" data-name="Layer 1"><path d="M1031,425.24a14.32,14.32,0,0,0-7.65-8.21,60.7,60.7,0,0,0-9-3.18,57.44,57.44,0,0,0-9.47-1.47c-7-.55-14-1-21.06-1.3-17.27-.83-34.53-.45-51.79.3a135.9,135.9,0,0,0-20.94,2.46c-6.26,1.26-12.53,2.62-18.86,3.36-8,.93-15.65,3.1-23.34,5.28a223.19,223.19,0,0,0-27.42,9.79l6.94.32a6.13,6.13,0,0,1-1.11,2.23c-1.91,1.67-4.33,2.87-5.94,4.77a12.54,12.54,0,0,1-10,4.73c-2.18,0-4.35.9-6.49,1.48-1.84.5-3.65,1.14-5.49,1.67-.25.07-.84-.16-.86-.3-.05-.59-.17-1.38.15-1.74a16.66,16.66,0,0,1,2.26-1.72,1.07,1.07,0,0,0,.4-.79c-.09-.67-.62-.86-1.37-.54-8.84,3.77-17,8.85-25.05,13.94a39.94,39.94,0,0,0-5.38,4c-5.94,5.32-12,10.49-18.32,15.36a25.58,25.58,0,0,0-5.76,6.32c-1.78,2.7-2.3,5.07.09,7.78,1.43,1.63.77,3.64-.51,5.26a8.19,8.19,0,0,1-2.14,1.87,2.15,2.15,0,0,1-1.75.19,14.24,14.24,0,0,1-2.28-1.68c-1.26-.95-2.5-1.92-3.79-2.82a2.14,2.14,0,0,0-2.61.47,2.34,2.34,0,0,0-.37,1.68c.29.89,1,1.66,1.31,2.54a10,10,0,0,1,.7,2.73,2.66,2.66,0,0,1-.47,1.79c-1.92,2.28-4.55,4.14-7.34,3.87-3.34-.33-7.08-.41-9.78-3.18a12.13,12.13,0,0,0-2.27-1.75c-5-3.13-10.32-4.91-16.31-3.73a75.83,75.83,0,0,0-18.22,5.74,16.52,16.52,0,0,1-2.59,1.19,2.43,2.43,0,0,1-1.79-.25c-1.59-1.06-3-2.35-4.62-3.4-7-4.59-14.05-8.83-22.56-10a12.4,12.4,0,0,1-4.3-1.88,37.24,37.24,0,0,0-16.2-5.33c-2.16-.16-4.39-.09-6.32-1.33.61,2.06,2.32,2.72,4.16,3.26a.82.82,0,0,1,.37.67c0,.22-.27.6-.44.61-2.23.1-4.46.23-6.69.17-5.13-.13-10.21-.29-15.09,1.86a8.21,8.21,0,0,1-6.54-.37c-6.87-2.89-14.11-3.9-23.45-4.12,6.3-.74,10.81-.49,15.58-2a14.16,14.16,0,0,0-2.34-.57,295,295,0,0,0-52.62,2.89c-11.7,1.74-23.35,3.82-35,5.78-2.21.37-4.41.8-6.58,1.33-14.9,3.67-29.83,7.22-44.68,11.1-11.44,3-22.81,6.29-34.15,9.67-8.26,2.47-16.41,5.32-24.63,7.95-4.56,1.46-9.14,2.82-13.75,4.12-.33.09-1.31-.68-1.29-1,.25-3.66,1.28-6.87,5.16-8.36a22.14,22.14,0,0,0,3.35-1.86,2.44,2.44,0,0,0,.51-3.39,27.51,27.51,0,0,1-4.4-7.37,30.46,30.46,0,0,0-2.92-6c-1.36-2-1.12-3.35.29-5.09a2.65,2.65,0,0,0-.36-3.49,26.8,26.8,0,0,0-3-2.34,11.85,11.85,0,0,1-4.84-5.77c-.6-1.48-1.32-2.91-2-4.37-.34-.78.25-2.26,1-2.36a17.37,17.37,0,0,0,8-3,17.12,17.12,0,0,1,5.31-2c1.84-.51,3.82-.54,5.61-1.17a9.35,9.35,0,0,0,3-2.32c.84-.81.3-2.83-.8-3.27a9.61,9.61,0,0,0-1.8-.56c-.62-.11-1.28,0-1.91-.14-1.2-.2-2-1.26-1.54-1.88s.87-1.13,1.39-1.23c2.81-.5,5.65-.79,8.47-1.26a2.45,2.45,0,0,0,1.84-2.89,4.35,4.35,0,0,0-.22-.93,6.75,6.75,0,0,1,2-7.82c.47-.43.91-.9,1.37-1.34,1.84-1.79,1.23-4.46-.42-6s-3.81-2.47-5.23-4.13a16,16,0,0,0-9.9-5.33,35.48,35.48,0,0,1-3.74-.81,5.37,5.37,0,0,1-3.49-3.06,23.35,23.35,0,0,1-1.16-3.65,7.58,7.58,0,0,0-4-5.14c-.85-.44-1.72-.86-2.52-1.38a3.94,3.94,0,0,1-1.93-3.14,3.5,3.5,0,0,0-3.55-3.69c-2.86-.26-5.34-2.16-8.34-2-.35,0-1.14-.91-1.09-1.31.4-2.83,1.1-5.62.17-8.5-.13-.41.42-1.2.86-1.6.69-.65,1.57-1.09,2.32-1.68,2.06-1.59,2.36-3.72.4-5.77-1.1-1.14-2.47-2-3.59-3.15-2.48-2.47-4.91-5-7.27-7.57a1.93,1.93,0,0,1-.12-1.81c.82-1.34,2-2.48,2.79-3.83a7.16,7.16,0,0,0-1.34-9.54c-.7-.64-1.57-1.11-2.31-1.71a14.91,14.91,0,0,1-1.31-1.36,2,2,0,0,1,.66-2.56c2.54-1.18,5.6-1.06,7.61-3.63,2.63-3.37,5-6.68,3.84-11.29a16.86,16.86,0,0,1-.1-2.87c-.27-4.33,1.81-7.31,5.41-9.4a12.47,12.47,0,0,1,2.6-1.2,13.58,13.58,0,0,0,9.28-8.94,21.91,21.91,0,0,1,8.9-11,19.59,19.59,0,0,0,3.08-2.26q5.8-5.71,11.47-11.54a8.73,8.73,0,0,1,4.85-2.9,22.22,22.22,0,0,0,9.57-4.17,18.39,18.39,0,0,1,5.24-2.23,12.78,12.78,0,0,0,5.61-3.52c.66-.7,1.3-1.42,1.91-2.15a10.58,10.58,0,0,1,8.49-3.73c1.92,0,3.85.07,5.75-.12,2.53-.26,5.19-.36,7.53-1.24a51.49,51.49,0,0,1,11.15-2.7,8.06,8.06,0,0,0,5-2.67,29.74,29.74,0,0,0,2.48-2.93c2.29-3.31,5.6-5.18,9.2-6.63a36.32,36.32,0,0,1,3.65-1.17,10.73,10.73,0,0,0,4.84-3,14.3,14.3,0,0,1,2.84-2.54,4.06,4.06,0,0,1,2.74-.37c1.22.29,2.29,1.13,3.5,1.52a76.3,76.3,0,0,0,8.27,2.34,8.69,8.69,0,0,0,8-2.37c1.84-1.77,3.64-3.6,5.31-5.53a9.55,9.55,0,0,1,4.82-2.9c2.14-.63,4.14-1.53,6.5-1.22s4.39-.89,6.06-2.41a25.19,25.19,0,0,0,2.84-3.63,3.29,3.29,0,0,1-.61-.31c-2.55-1.82-2.92-3.27-1.91-5.48,2.3-5,6-7.15,11.51-6.06a10,10,0,0,0,2.83.37,17.91,17.91,0,0,0,4.62-.91,36.16,36.16,0,0,1,11.68-2.23c2.54,0,5.08.08,7.62.07a7.34,7.34,0,0,0,6.93-4.3c1.74-3.67,4.09-7.17,4.12-11.5,0-.81,1.84-1.38,2.25-.7,2.29,3.77,5.43,3.86,9,2.29.8-.35,1.61-.65,2.42-1-.39,2.09-.45,4.34-1.29,6.25a15.47,15.47,0,0,0-1.72,5.35c-.14,2.17-1.66,4.07-1.17,6.49.22,1.1-.46,2.43-.88,3.6a3.05,3.05,0,0,0-.06,2.74c.41.74,2.17,1.16,3.56.78a14.6,14.6,0,0,0,1.85-.5c2.33-1,4.52-2.42,7.29-1.64.44.12,1.24-.38,1.62-.82.82-1,1.45-2.1,2.21-3.12,1.31-1.76,2.2-1.72,4.07-.85,3.84,1.77,5.79,1.16,8.12-2.07.74-1,1.45-2.07,2.22-3.07.48-.63,1.83-.31,2.38.54.17.26.24.6.41.87,1.44,2.32,3.31,3.13,5.43,2.24a17.12,17.12,0,0,0,3.33-1.81c2.33-1.67,4.55-3.49,6.87-5.19a4.14,4.14,0,0,1,5.89,1c.55.78.91,1.69,1.45,2.48a3,3,0,0,0,3.29,1.39c3.11-.81,6.14-1.44,9.38-.49,1.27.38,2.22-.88,3.12-1.82,2.05-2.15,2.16-2.21,3.89-1.19,4.47,2.63,9.09,4.61,14.43,4.6,1.53,0,3.08.75,4.6,1.19s3.05,1.32,4.57,1.3a17.56,17.56,0,0,1,9.07,2.54,7.35,7.35,0,0,0,7.32.41c3.91-2,7.48-.7,10.8,1.53a55,55,0,0,1,4.5,3.58c1.47,1.23,2.84,2.58,4.35,3.74a13.24,13.24,0,0,0,4,2.49c2.16.63,2.44,2.87,4,3.91,3.4,2.34,6.71,5,10.44,6.63,2.81,1.25,6.21,1.16,9.34,1.66h0a14.17,14.17,0,0,0,3.26,2.73c4.85,2.25,9.81,4.27,14.75,6.34,3,1.25,5.63,2.83,6.86,6.07.5,1.31,1.7,1.59,3,1.93,2.38.64,2.55,1.2,1.54,3.22a24.52,24.52,0,0,0-1.58,3.36,1.81,1.81,0,0,0,.58,1.63c1.65.89,3.42,1.54,5.11,2.37a5.24,5.24,0,0,1,3.16,5.28,2.17,2.17,0,0,0-2.47-.7,3,3,0,0,0-1.55,3.2,10,10,0,0,0,1.07,2.6c.69,1.05,1.63,1.94,2.41,2.94.48.62,0,1.83-.93,2.36-.55.31-1.21.42-1.76.72-1,.57-1.42,1.65-.79,2.25,2.53,2.4,4.82,5.18,7.7,7.06,3.23,2.11,3.88,5.66,5.95,8.37a8.29,8.29,0,0,0,1.44,1.25,29.65,29.65,0,0,1,3,2.42,22.64,22.64,0,0,0,9.69,5.89,26.38,26.38,0,0,1,5.22,2.3,2.93,2.93,0,0,1,1.13,2.36,4.25,4.25,0,0,0,1.66,4.16,22.11,22.11,0,0,1,2,2l.28-.23c-.09.93-.59,2.08-.22,2.74.93,1.64,2.43,3,2.73,5,.7,4.68,4,7,7.9,8.84,1,.47,2.72-.73,2.73-1.91,0-.32.06-.64,0-1A113.13,113.13,0,0,1,857,312.26c.56-2.49.89-5,1.24-7.56.91-6.64,1.55-13.33,2.71-19.93a149.57,149.57,0,0,0,.83-46.76,19.28,19.28,0,0,1,1.16-10.31c2.44-5.89,4.93-11.76,7.6-17.55a10.28,10.28,0,0,0,1-5.53c-.35-3.5-.69-7,1.28-10.26a6.27,6.27,0,0,0,.41-3.71,43.34,43.34,0,0,0-1.32-6.57,11.64,11.64,0,0,1-.27-6.57,6.51,6.51,0,0,0-.58-3.64c-4.92-13.21-11.14-25.75-19.73-37a27.1,27.1,0,0,1-2.77-3.9,17.19,17.19,0,0,1-1.5-4.52,3.48,3.48,0,0,1,1.2-3.46c2.63-2.07,5.53-3.17,8.89-1.95a17.16,17.16,0,0,1,3.51,1.52q6.43,4.16,12.74,8.53a13.28,13.28,0,0,1,2.66,2.74c3.42,4.32,7.94,7.33,12.37,10.44.32.23,1.14-.17,1.68-.39.14-.06.21-.59.13-.85-1.42-4.77-4.82-8.21-8-11.76a17.67,17.67,0,0,1-5-11.06c-.51-8.45-4.21-16-7.51-23.61a24.81,24.81,0,0,0-6.5-8.22A47.17,47.17,0,0,0,836.64,78.2c-6.75-.84-13.39-.26-20.06.5-1.9.22-3.78.66-5.69.76A5.25,5.25,0,0,1,806,76.92a32.45,32.45,0,0,1-2.11-4.28,23.25,23.25,0,0,0-7.09-8.9,4.11,4.11,0,0,0-2.62-.85,4.91,4.91,0,0,0-2.4,1.27c-.64.52-.21,1.84.73,2.42s2.26,1.2,3.3,1.93A30.7,30.7,0,0,1,798.75,71c1,.91,1.51,2.9.78,3.39a4.17,4.17,0,0,1-2.58.81c-2.53-.35-5-1-7-2.86a26.87,26.87,0,0,0-2.92-2.46c-2.24-1.63-4.11-1.79-6.16-.22-3.32,2.54-6.71,4.83-10.84,5.91a6.59,6.59,0,0,0-3,2.2,58.48,58.48,0,0,0-5.73,7.61,9.14,9.14,0,0,1-5,4.13A29.25,29.25,0,0,0,753,91.33c-.23.12-.58,0-.87,0,0-.54-.23-1.25,0-1.6,3.22-4.36,6.54-8.65,9.76-13a1.86,1.86,0,0,0-.35-2.54,14,14,0,0,1-1.5-1.17c-.37-.46-.86-1.32-.67-1.64a7.51,7.51,0,0,1,1.9-1.85,1.3,1.3,0,0,1,.92-.19c2.64.42,5,.14,7.1-1.84,1.08-1,2.89-1.22,4.36-1.79a25.23,25.23,0,0,0,4.41-1.78,9.63,9.63,0,0,0,2.47-2.82c.7-1,.19-3.08-.81-3.34-4.06-1.09-7.52-3.43-11.26-5.2a5.65,5.65,0,0,0-4.64-.5c-3.6,1.53-7,3.43-7.09,8a4.44,4.44,0,0,1-1.61,3.28,38.45,38.45,0,0,0-3.83,4.21,3.7,3.7,0,0,0-1,2.48c.54,2.45-1.11,3-2.59,4.27a27.24,27.24,0,0,0-6.89,9.1,14.09,14.09,0,0,1-2.74,3.84,73.39,73.39,0,0,0-10.67,13.49,6.51,6.51,0,0,1-3.46,3c.38-.77.8-1.51,1.12-2.3.53-1.31.25-2.51-.49-2.38-.58.1-1.41.18-1.66.56a30.09,30.09,0,0,1-9,8.48c-2.38,1.58-4.43,3.65-6.67,5.44a4.35,4.35,0,0,1-1.73.65,1.11,1.11,0,0,1-.82-.3,1.2,1.2,0,0,1-.41-.78c0-2.07,1.28-3.56,2.51-5,4.55-5.36,9.16-10.66,13.68-16a28.94,28.94,0,0,0,3.26-4.7,85.53,85.53,0,0,1,8.85-12.48c3.8-4.73,7.68-9.39,11.39-14.2a30.58,30.58,0,0,0,2.71-5c.57-1.14-.48-2.5-1.84-2.72a8.71,8.71,0,0,0-6.31,1.7,9.27,9.27,0,0,1-8.25,1.14,7.12,7.12,0,0,0-1.87-.41c-2.91-.09-4.66-1.7-5.89-4.19-.7-1.42-1.6-2.74-2.42-4.1-.32-.53-1-1.07-.93-1.58a39,39,0,0,0-.18-6.56c-.05-.42.6-1.19,1.09-1.37,5.68-2.14,11.38-4.33,17.58-4.2,5.74.12,11.5,0,17.15,1.54a92.22,92.22,0,0,0,9.45,1.6c.63.1,1.27.15,1.91.19,1.76.11,4-1.67,4.09-3.35s-1.13-2.17-2.29-2.67c-2.34-1-4.8-1.81-7.06-3a26.48,26.48,0,0,1-4.6-3.38,2.55,2.55,0,0,1-.53-1.68c-.14-3.32-.12-3.33-2.22-4-1.53-.47-3.09-.83-4.59-1.36A47.22,47.22,0,0,0,725.42,15a41.82,41.82,0,0,1-7.64.55,30.62,30.62,0,0,0-13.84,3.31c-5.49,2.56-11.11,4.84-16.68,7.23a12.21,12.21,0,0,1-5.59,1.09c-1-.06-2.11-.91-1.93-1.74.13-.58.31-1.38.73-1.61,2.79-1.54,5.83-2.69,8.44-4.47,3.24-2.22,6.89-3.27,10.46-4.63,5.08-1.93,10.14-3.92,15.15-6,2.36-1,4.55-2.39,5.72-4.83a1.69,1.69,0,0,0-.63-1.52,9.74,9.74,0,0,0-3.69-.48c-5.7.72-11.37,1.85-17.09,2.35-6.1.53-12,1.35-17.69,3.9a23,23,0,0,1-16.86.79c-3.36-1.05-6.75-2-10.15-2.87-2.82-.74-5.6-1-8.41.39-1,.51-2.48.12-3.73.28-2.61.33-2.88-1.58-3.32-3.35-4-2.13-8.16-3.61-12.81-3.34-4.47.27-9,.18-13.41.65a136.68,136.68,0,0,0-30,6.16,27.39,27.39,0,0,0-9.8,5.85,6.36,6.36,0,0,0-1.16,2.15,17.13,17.13,0,0,1,9-.92c2.18.39,4.41.57,6.62.79,1.52.15,2.22-.72,2.19-3,0-1.05.21-2.1,1.14-2.29C596,8.3,601.64,7.3,607.25,6.28c.25,0,.8.26.79.37,0,.53-.07,1.4-.37,1.52-8.08,3.27-14.68,8.71-21.15,14.35a12.13,12.13,0,0,0-4.09,7c2.07-1.19,4.12-2.42,6.24-3.52a1.87,1.87,0,0,1,1.69.2,1.58,1.58,0,0,1,.16,1.55c-2.09,2.35-4.22,4.68-6.47,6.88-5.6,5.45-11.28,10.83-16.92,16.23a5.45,5.45,0,0,1,1-4.16c1.61-2.21,3.35-4.34,4.17-7A23.57,23.57,0,0,1,569,40.84a1.83,1.83,0,0,1-1.52-.76,2,2,0,0,1,0-1.74c1.62-2.36,3.41-4.61,5.05-7,.72-1,1.08-2.34,1.91-3.25,2.79-3.06,5.72-6,8.57-9a1,1,0,0,0,.23-.88c-.31-.7-.89-.79-1.63-.49s-1.22.37-1.83.56a15.08,15.08,0,0,0-2.73.89,13.29,13.29,0,0,1-9.26,1.2,20.44,20.44,0,0,0-17.14,4.07c-2.74,2.15-6,3.65-8.95,5.54-1.33.85-2.89,1.69-3.66,3-2.72,4.47-6.6,7.78-10.38,11.22a18.34,18.34,0,0,0-3.35,3.38c-2.66,4.19-6,7.35-10.93,8.68-.74.2-.71,1.35.09,2.47.37.52.82,1,1.23,1.47l-.13-.24,2.65,1.21a17.75,17.75,0,0,1-1.83,3c-2.62,3.06-5.57,5.81-5.41,10.43,0,1.35-1.16,2.86-2.06,4.1-1.76,2.43-3.68,4.74-5.55,7.1-1-2.69-1.09-5.32.64-7.82.52-.76,1.06-1.5,1.58-2.26A7.94,7.94,0,0,0,505.71,69a5.87,5.87,0,0,0-4.17,3.11c-.89,1.59-1.6,3.28-2.51,4.86a4.09,4.09,0,0,1-3.41,2.27c0-1.2.11-2.39.15-3.58a18.64,18.64,0,0,1,3.35-9.76C503.45,59.17,508,52.67,513.71,47c2.5-2.46,4.79-5.14,7.29-7.6a50.54,50.54,0,0,1,5.06-4.33c5.59-4.22,11.91-7.47,16.8-12.62a4.32,4.32,0,0,1,1.54-1.12c5.38-2,9.72-6.1,15.44-7.38a1,1,0,0,0,.65-1.54,2.08,2.08,0,0,0-1.43-.95,24.67,24.67,0,0,0-4.7.57c-2.17.51-4.25,1.6-6.42,1.79-6.36.54-12.74.79-19.12,1.1a8.92,8.92,0,0,1-6.22-2,41.5,41.5,0,0,0-4.72-3.24c-.41-.25-1.15.05-1.73.1,0,.31,0,.62.08.92.41,2.42-.09,3.24-1.87,2.87-2.17-.45-4.49-.68-6.44-1.63a10,10,0,0,0-9.18.19,98.47,98.47,0,0,1-17.25,5.68c-1.85.48-3.73.87-5.56,1.44A6.15,6.15,0,0,0,472,22.92c2.32-1.52,5-1.7,7.64-1.65.36,0,1.07.88,1,1.26-.29,2-.76,4-1.18,6.06a35.62,35.62,0,0,0,4.43-.86c5-1.58,10.26-2.8,14.07-6.87-.2,1.51-.05,3.19-1.46,4.24-4.27,3.2-7.91,7.26-13.17,9.12-2,.72-3.8,2.24-5.66,3.45-7.46,4.88-14.17,10.57-19.36,17.91a1.31,1.31,0,0,1-.73.57c-.58.07-1.36.21-1.72-.09a6.82,6.82,0,0,1-2.45-4.75,8.51,8.51,0,0,0-8.72,2c-6.8,6.22-13.86,12.24-17.94,20.81l.08-.24h-2.38l.08.25a5,5,0,0,1,0-5.42,7.76,7.76,0,0,1,1.06-1.58q7.64-7.91,15.33-15.77a31.37,31.37,0,0,0,4-4.11c2.58-3.89,6.16-6.32,10.27-8.29a31.51,31.51,0,0,0,9.27-6.67c1.14-1.19.73-5.33-.74-6a4.67,4.67,0,0,0-2.74-.39A43.18,43.18,0,0,0,447.64,31c-4.48,2.64-9.3,4-14.22,5.31-.16,0-.55-.37-.63-.63a1,1,0,0,1,.18-.9,47.81,47.81,0,0,1,15.2-7.84,43.81,43.81,0,0,0,5.32-2c.38-.17.47-1.08.58-1.67,0-.13-.44-.51-.68-.51a42.07,42.07,0,0,0-6.63,0c-11.47,1.68-22.4,5-32.24,11.35-3,1.91-6,3.63-9.66,3.81a6.82,6.82,0,0,0-1.8.61c-2.58.92-3.36,2.64-2.38,5.24.11.29.38.52.5.81.68,1.56.44,2.54-.57,3.18-3.87,2.47-8.27,3.17-12.67,4-2.42.44-4.36-.49-6.32-1.6a2.49,2.49,0,0,1-.3-4c2.8-2.33,6.32-2.93,9.57-4.18l0,.05a23,23,0,0,1,3.73-2.79c2.24-1.08,4.65-1.81,7-2.74,4.09-1.64,7.92-3.66,10.29-7.63l.08,0c-1.18.41-2.37,1.2-3.53,1.16-4.34-.13-7.76,1.84-11.32,4-5.07,3.07-9.74,7-15.79,8.25a6.89,6.89,0,0,0-2.42,1.39c-3.2,2.37-6.37,4.78-9.56,7.17a15.36,15.36,0,0,1,2.13.41c.84.26,1.17,1.65.46,2.13a20,20,0,0,1-2.86,1.4,10.35,10.35,0,0,1-5.52,4.8,36.78,36.78,0,0,1-5.36,2,16.73,16.73,0,0,0-8,4.83A76.22,76.22,0,0,1,343.76,72c-2,1.61-4,3.09-6,4.6-.22.16-.83.21-.9.09-.28-.49-.76-1.23-.58-1.58,1.9-3.66,3.8-7.4,7-10.13,2.81-2.42,3.74-5.81,5.25-8.91a2,2,0,0,0-.43-1.7,2.76,2.76,0,0,0-1.63-.79,4.72,4.72,0,0,0-1.86.22C337.76,55.7,332.77,59.92,329,65.7a3.91,3.91,0,0,0-.49,3.63c.58,1.57.83,3.16-.47,4.43-2.76,2.69-2.92,6.12-3,9.6.85-.09,1.71-.22,2.57-.24a1.73,1.73,0,0,1,1.68,2.52,20.46,20.46,0,0,1-1.6,3.4c-2.09,3.15-4.37,6.18-6.45,9.34a34.84,34.84,0,0,1-7.39,8.31,7.48,7.48,0,0,1,.64-5.28c1.2-2.24,2.62-4.37,3.72-6.65a12.71,12.71,0,0,0,.75-3.34,5.69,5.69,0,0,0-3.4,2.67c-2.76,4.18-5.4,8.45-8.24,12.58-2.48,3.61-5.11,7.12-7.78,10.59a5.3,5.3,0,0,1-3.6,2.17c2.67-5.22,5.57-10.34,6.72-16.2a11.67,11.67,0,0,1,1.24-2.52c.27-.56.5-1.15.73-1.73.31-.78-.09-2.23-.76-2.46a2.78,2.78,0,0,0-1.76-.17c-1.14.49-2.16,1.24-3.25,1.84-.87.48-1.35-.09-1.3-1.55,0-.55.06-1.1.09-1.64l-3.55.19.28-.25L292,96l.1-.8a6.33,6.33,0,0,0-3.88,1.71c-1.91,1.94-3.79,3.91-5.69,5.87a8.55,8.55,0,0,1,1.76.68,1.7,1.7,0,0,1,.47,2.42c-.89.88-1.67,2.05-2.75,2.54-4.66,2.1-8.5,5.41-12.7,8.19a4.55,4.55,0,0,1-4.52.16l-.09,1.35c0-.44,0-.87,0-1.31,1.68-1.41,3.65-2.59,5-4.27a14.16,14.16,0,0,1,8.36-5.6c1.07-.23,1.92-1.51,2.87-2.31-1.4-.65-2.82-1.26-4.2-2s-2.52-1.42-3.78-2.15a54.36,54.36,0,0,1,4.71-4.34c1.72-1.29,3.86-2.05,5.5-3.43,3.84-3.22,8.22-4,13-3.56,1.63-.91,3.3-1.76,4.86-2.76a12.32,12.32,0,0,0,2-2,2,2,0,0,0-.48-2.53,9.81,9.81,0,0,0-6.49-1,21.8,21.8,0,0,0-7,3c-2.44,1.51-4.86,3.1-7.43,4.37a123.71,123.71,0,0,0-19.3,12.43c-6.88,5.18-13.45,10.85-21.25,14.73a178.36,178.36,0,0,0-23,13.85C208.39,136,198.9,143,189.89,150.68c-3.4,2.9-7,5.58-10.35,8.53-7.2,6.31-14.89,12-21.25,19.32-4.61,5.29-9.71,10.18-14.83,15-6.53,6.12-13.16,12.13-19.14,18.81a22.87,22.87,0,0,1-4.21,3.89c-5.14,3.42-8.17,8.95-13,12.69-1.93,4.36-5.77,6.51-9.6,8.95a32.73,32.73,0,0,0-11.71,12.37c-4.48,8.45-10.35,16.16-13.47,25.34a2.8,2.8,0,0,1-.47.83c-2.46,3.06-3.42,6.81-4.9,10.34-1.83,4.39-2.8,9.17-5.91,13a7.8,7.8,0,0,0-1.31,3.53c-.53,3.15-1.34,6.35-1.21,9.49.28,7.12-1.61,13.94-2.34,20.91a3.47,3.47,0,0,1-3.05,3.22c-3,.54-4.35,2.28-4.48,5.28-.14,3.36-2.26,5.91-3.91,8.62-1,1.63-2.43,3.1-3,4.86-1.69,5.46-3.6,10.95-1.38,16.8.55,1.46.39,3.18.82,4.7a4.46,4.46,0,0,0,1.61,2.24c1,.72,2.47.89,3.39,1.69,3.34,2.94,6.57,6,9.77,9.12a4.74,4.74,0,0,1,1.43,2.45c.64,4.36,2.05,8.73-.45,13.07-1.62,2.81-.82,5.44,1.25,7.93,1.26,1.52,1,2.58-1,3.84s-3.35,2.88-3.49,5.34a5.24,5.24,0,0,1-2.7,4.75c-3.3,1.77-5.13,4.67-6.33,8.11A4.32,4.32,0,0,1,42,438.23a58.41,58.41,0,0,0-11.56,6.66A5,5,0,0,0,28.58,448c-.21,1.64,1.42,1.74,2.63,2A3.19,3.19,0,0,1,34,452.27c1.22,4.22.6,6.14-2.86,8-1.41.75-3,1.25-4.33,2a11.77,11.77,0,0,0-2.07,2c-.76.75-.51,1.55.64,2,.57.24,1.41.3,1.66.72.55.92,0,1.85-.62,2.59-1.7,1.9-3.52,3.71-5.15,5.67s-2.86,4.33-2.39,7c.55,3.16-.67,5.57-2.7,7.82-1.65,1.83-3.47,3.6-3.85,6.22a6.26,6.26,0,0,1,1.58.28,3.79,3.79,0,0,1,1.27,1c.06.07-.21.62-.44.76-1.89,1.15-3.85,2.2-3.69,4.93a2.67,2.67,0,0,1-.61,1.74c-2.83,3.24-4.83,7.15-8.14,10l3.62.64a6.82,6.82,0,0,1-.5,2.58c-1.18,1.89-2.59,3.63-3.94,5.41-.47.62-.52,1.18.06,1.59a1,1,0,0,0,.86-.15c2-1.6,3.72-3.53,5.87-4.79,4.71-2.75,9.1-5.79,12.37-10.26a2.7,2.7,0,0,1,1.6-1,2.22,2.22,0,0,1,1.71.48c.35.35.63,1.36.4,1.63-1.81,2.22-4,4.17-5.6,6.51-2.38,3.44-4.75,6.84-8.2,9.29s-4.94,6.65-8.69,8.81A3.85,3.85,0,0,0,.47,541a11.63,11.63,0,0,1,1.83,7.22A2.32,2.32,0,0,0,2.8,550,5.43,5.43,0,0,1,5,555.81a2.23,2.23,0,0,0,.57,1.75c3.35,3.21,4.7,7.52,6.62,11.54a9.57,9.57,0,0,1,1.06,6.45,9.49,9.49,0,0,0,2,8.09c2.19,2.88,3.15,6.14,3.91,9.66A101.57,101.57,0,0,0,23.47,608c3,7.78,5.64,15.64,7.88,23.65a54.26,54.26,0,0,0,4.12,10.71,29.07,29.07,0,0,1,3.07,8c1.18,6.41,3.77,12.16,6.87,17.8a48,48,0,0,1,5.32,13.32,17.3,17.3,0,0,0,4.35,8.41c2.92,3.14,4.24,7.09,5.29,11.14.56,2.16.74,4.46,1.59,6.49a59.89,59.89,0,0,1,3.18,12c.6,3.14,1.43,6.23,2.18,9.34,2.72,11.24,7.93,21.59,11.58,32.5a5,5,0,0,0,.42.86c5.35,9.46,9.19,19.72,15.08,28.9a7.73,7.73,0,0,1,.21,8.22c-2.11,4-4,8-5.69,12.15-3,7.12-4.61,14.62-6.72,22a209.61,209.61,0,0,0-7.85,43.34c-.83,12.12-1.47,24.17.94,36.31a72.87,72.87,0,0,0,12.78,29.66q4.55,6.18,9.18,12.31,15.63,20.66,31.3,41.28c1.74,2.29,3.57,4.52,5.42,6.72,7,8.36,15,15.72,23,23.14a110.55,110.55,0,0,0,22.51,16.22,111.83,111.83,0,0,1,12.88,8.33c6.17,4.59,12.65,8.68,19.1,12.84a131.86,131.86,0,0,0,41.25,17.63,38.49,38.49,0,0,0,17.11.54c2.5-.53,5-1.24,7.46-1.77a32.51,32.51,0,0,1,4.73-.68,5.79,5.79,0,0,1,2.22.29,4.32,4.32,0,0,1,5.87,2.09c6.22,12.26,18,20.22,29.52,27,10.94,6.44,24.88,11.59,33.2,21.48l.17.22a5.38,5.38,0,0,1,1.82.5c13.17,6.18,26,13,37.84,21.45,12.13,8.63,23.46,18.47,37.46,24a5.13,5.13,0,0,1,2.74,2.44c8.25,3.88,15.91,9.37,23.83,13.65,12.2,6.6,24.45,12.77,36.88,18.9,18.24,9,34.26,23.37,54.17,28a5.55,5.55,0,0,1,1.39,0c18.89,2.87,38.34,3.28,56.49,9.59,17.38,6,35.42,10.41,53.44,14.15,9.48,2,19.09,3.13,28.6,4.93,9.84,1.87,19.62,4.05,29.48,5.83,19.21,3.46,38.9-.7,58,4l.41.12c17.17,1.53,33.74,8.4,51.12,6.61a3.37,3.37,0,0,1,1.47-.51,15.19,15.19,0,0,1,7.54,1c5.75,2.32,12,1.51,17.89,3.18a8.34,8.34,0,0,0,3.77-.37,23.34,23.34,0,0,0,4.59-1.37,13.61,13.61,0,0,1,9.37-.78,15.1,15.1,0,0,0,7.56-.18c2.92-.67,3.34-1.33,2.92-4a4.28,4.28,0,0,1,2.53-4.7c2.21-1.18,4.47-2.57,7.23-1.84,2.27.6,4.43-.34,6.62-.67,2.84-.42,5.65-1.29,8.48-1.32,2.57,0,4.14-1.38,5.84-2.81l-.2-.23c2.77,2.48,3.54,2.64,5.57.78,2.58-2.37,5-5,7.64-7.2a28.17,28.17,0,0,1,5.71-3.38c.95-.46,1.73.26,2.22,1.19.29.54.69,1.43,1.06,1.44a7,7,0,0,0,2.7-.62c3-1.21,3.29-4.66.66-5.78a9.74,9.74,0,0,1-2.39-1.56,4.09,4.09,0,0,1-.35-5.24,11.28,11.28,0,0,1,2.3-1.68c1.2-.75,1.89-1.73,1.42-3.15a5.61,5.61,0,0,1,.42-4.6q3.11-5.91,6.13-11.86c2-4,1.75-5.09-1.67-9.09-.81-.95-1.85-2.21-1.79-3.28a95.12,95.12,0,0,1,1.32-10.33,1.86,1.86,0,0,1,1.34-1.11,2,2,0,0,1,1.54.77c1.2,1.62,1.21,3.58,1.3,5.5q.11,2.35.35,4.69c0,.13.55.33.82.3,2.5-.27,4.21-3,2.3-4.65-2.28-1.93-2.61-4.22-1.93-6.9.55-2.17,1.07-4.35,1.56-6.53.34-1.54,1.21-1.89,2.75-1.85s1.55-1.83,2.49-2.62c.64-.54,2.24-.14,2.42.61,1.33,5.65,2.31,11.27-1.56,16.44a4.42,4.42,0,0,0-.77,1.74,3.68,3.68,0,0,0,.08,1.86,6.49,6.49,0,0,1-.23,4.6c-1,3-1.69,6.12-2.5,9.19,1,3.8-1,6.77-2.76,9.81-.8,1.35-1.23,2.92-2,4.3-1.83,3.27-2.34,7.21-5.42,9.89-1.33,1.16-.55,3,.09,4.47.4.95,1.48,1.65,2.24,1.38.57-.2,1.31-.44,1.57-.89,1.91-3.3,3.29-7,5.69-9.9s3.93-6.45,6.12-9.51a8,8,0,0,0,2-1.72c3.85-6.11,6.67-12.86,11.28-18.51a2.39,2.39,0,0,0,.39-.86,38.31,38.31,0,0,1,4-8.56,4.16,4.16,0,0,0-.44-4.48c-.35-.53-.68-1.07-1-1.6l.21,1.59c-.08-.49-.16-1-.24-1.48-.71-3.76-2.2-7.38-1.54-11.32.06-.35-.76-1.22-1-1.15a2.56,2.56,0,0,0-1.42,1.12,8.25,8.25,0,0,0-.82,2.7c-.26,2.2-.32,4.43-.63,6.63a1.72,1.72,0,0,1-1.44.88,9.13,9.13,0,0,1-3.48-1.29,9,9,0,0,1-3.84-6.39,58.2,58.2,0,0,0-3.77-13.83,7.77,7.77,0,0,0-4.63-4.57,17.59,17.59,0,0,0-8.37-1.39,5.56,5.56,0,0,0-4.56,2.83,1,1,0,0,1-1.65-.16c-1.17-1.88-2.21-3.85-3.44-5.7-.26-.39-1.12-.48-1.71-.53-.82-.07-1.77,1.19-1.6,2.05.3,1.57.64,3.12.95,4.69s1.49,2.93.21,4.49c-2.54.27-2.88-2-3.93-3.44s-2.07-3.2-3.13-4.78a.8.8,0,0,0-.78,0,1.45,1.45,0,0,0-.38.79c-.78,3-.77,3-3.39,2-.55-.22-1.42-.7-1.66-.49a3.14,3.14,0,0,1-4.29.24,11.32,11.32,0,0,0-2.67-1c-1.82-.62-2.16-.46-3.72,1.58-1.17,1.54-1.51,1.66-3.11.89-.85-.41-1.63-1-2.49-1.33a1.77,1.77,0,0,0-2.19,1.29,27.91,27.91,0,0,1-.12,2.83,2,2,0,0,1-1.22,1.24,2.26,2.26,0,0,1-1.73-.46,6.84,6.84,0,0,1-1.82-2.16c-1-2-1.61-4.19-2.67-6.14a9.64,9.64,0,0,0-2.65-2.6,4.13,4.13,0,0,0-1.8-.61c-4.54-.81-7.17-3.65-9-7.75-1.42-3.2-3.3-6.17-4.35-9.57-.61-2-2.16-2.9-4.37-3-4.44-.28-8.55-2.15-12.9-3-1.09-.21-2-1.49-2.95-2.31-2-1.69-2-1.7-4-.22-4.25,3.14-5.58,3.1-9-.26-.45-.45-.86-.94-1.29-1.42-2.19-2.41-4.53-4.49-8.1-4.51a4,4,0,0,1-2.62-1.06c-2.77-2.9-6.72-3.63-9.94-5.69-3-1.92-5.85-3.93-7.37-7.31a4.84,4.84,0,0,0-5.38-3.06,12.9,12.9,0,0,1-3.76-.29,2.19,2.19,0,0,1-1.31-1.25,6.06,6.06,0,0,1-.44-2.77c.39-2.92-.81-4.87-3.24-6.37-1.9-1.17-3.65-2.58-5.49-3.86a22.54,22.54,0,0,1-7.51-8.54c-1.59-3.14-3.34-6.1-3.74-9.75a29.66,29.66,0,0,0-2.12-7.34,24.12,24.12,0,0,1-1.56-8.42c-.06-2.87-.18-5.75-.44-8.61-.18-2-1.17-3.91-3.13-4.47-4.37-1.24-6-4.31-6.65-8.42-.3-1.87-1.28-3.63-1.62-5.49a3.27,3.27,0,0,1,1-2.48c.89-.85,2.19-1.26,3.18-2a2.52,2.52,0,0,0,.74-1.68,6.47,6.47,0,0,0-1.64-4.39c-.9-1.14-2.19-1.17-3.5-.84-1.94.48-2.86-1-4-2-.2-.18-.73-.33-.83-.22-.38.39-1,1-.9,1.35.39,2.18,1,4.31,1.42,6.49.19,1-1.54,2.49-2.54,2.38-2.52-.27-4.59-2.31-7.36-1.73a4.17,4.17,0,0,1-4.79-2.34c-1.23-2.2-3.29-2.89-5.64-3-1,0-1.92,0-2.88-.09a4.39,4.39,0,0,0-4.61,2.71,10.17,10.17,0,0,1-1.76,2.19,1,1,0,0,1-.88.24c-.56-.23-1.4-.53-1.5-1a19.2,19.2,0,0,1-.38-3.77,9.42,9.42,0,0,0-3.27-6.71,4.44,4.44,0,0,0-2.57-.79c-.81-.06-1.74,1.18-1.75,2,0,2.54.06,5.09-.08,7.63a5,5,0,0,0,2,4.12,5.29,5.29,0,0,1,.92,1.61c.32.65-.64,2.29-1.34,2.23-3.8-.36-7.6-.71-11.39-1.17a7.67,7.67,0,0,0-5.48,1.19c-3.16,2.16-6.35,4.27-9.39,6.6a5.64,5.64,0,0,1-6.23.86,7.27,7.27,0,0,0-4.66-.66,10.57,10.57,0,0,1-6.55-.76,11.23,11.23,0,0,0-3.67-1,4.55,4.55,0,0,0-2.47,1.09c-.47.34-.63,1.1-1,1.61-1.5,2-3,2.15-4.55.25a37.5,37.5,0,0,1-4.08-5.31,11.24,11.24,0,0,0-6.47-5.32,32.94,32.94,0,0,1-4.19-2.28c-1.52-.79-3,0-3.54,1.85a7.62,7.62,0,0,1-.38,1.85c-.28.47-1,1-1.42,1a1.86,1.86,0,0,1-1.28-1.2c-1-5.12,1.36-10.1.7-15.22.79-1.74,1.51-3.51,2.39-5.21a19.71,19.71,0,0,0,1.83-7.39,13.13,13.13,0,0,1,2.35-6.2c.68-1,1.83-1.32,3.38-.71a6.72,6.72,0,0,1,.82.5c.87.5,2,.82,2.49-.16,1.62-3.27,4.59-5.28,6.92-7.88a8.16,8.16,0,0,1,5-2.63c4.7-.69,9.36-1.71,14.18-.36a19.88,19.88,0,0,0,14-1.44c1.45-.67,2.93-1.27,4.4-1.91,2.72-1.19,5-.37,6.94,1.63a22.35,22.35,0,0,1,2.62,2.79,14,14,0,0,0,8.57,5.68,16.52,16.52,0,0,1,5.15,2.48,9,9,0,0,0,9.07,1,6.73,6.73,0,0,1,2.79-.47c.46,0,1.26.73,1.27,1.14.06,2.22-.15,4.44-.11,6.66a3.27,3.27,0,0,0,2,3c3.53,1.47,7.17,2.66,10.17,5.19.35.3,1.25.1,1.84-.07a5.53,5.53,0,0,1,3.74,0c2,.82,4.07,1.52,6.1,2.27-.2-2.51-.38-5-.62-7.53s-.92-3-3.72-3.19-3.91-1.72-3.48-4.36c.49-3,3.21-4.48,5.6-3a25,25,0,0,1,3.11,2.24,13.89,13.89,0,0,0,8.74,3.45c3.18.17,6.35.46,9.53.66.23,0,.57-.28.69-.51a1,1,0,0,0,.07-.88,11,11,0,0,0-1.76-2.22c-2.38-2-2.08-4.46-1.14-7a2.24,2.24,0,0,1,3.16-1c.28.14.47.45.75.6,1.86,1,2.22,1,3.09-.44a24.64,24.64,0,0,1,1.92-3.29c1.7-2,5.39-3.59,8.55-.85.48.42.93.88,1.4,1.31,1.53,1.42,2.7.77,4.06-.45s2.22-.86,3.1.43c.71,1.05,1.27,2.22,2.07,3.19a2.5,2.5,0,0,0,1.69.52c.79,0,1.48-1.24,1.27-2.22a13.94,13.94,0,0,0-.52-1.83c-1.05-2.93-1-4.27,2.33-6.38.81-.51,1.72-.86,2.53-1.35a1,1,0,0,0,.34-1.6A1.69,1.69,0,0,0,817,989c-.89-.28-2.09-.28-2.59-.88s-.22-1.73-.27-2.63a7.34,7.34,0,0,0-.07-1.88,22.84,22.84,0,0,0-1.51-3.52c-1.67-3.1-1.4-6,.22-9.12,1.33-2.54,2.25-5.29,3.33-8,.66-1.62.18-2.48-1.57-2.28s-3.36.2-3.75-1.81a12,12,0,0,0-5.31-7.66A44.93,44.93,0,0,1,801,947.6a4.13,4.13,0,0,1,.45-6,22,22,0,0,1,3.33-1.84c10.58-4.53,21.28-8.72,32.66-10.87a17.13,17.13,0,0,0,2.77-.76,24.48,24.48,0,0,1,8.46-1.43c6.42-.05,12.69-1.4,18.85-3,3.64-.92,7.05-2.92,10.42-4.7a5.5,5.5,0,0,0,2.88-4.72c.09-1.9-.24-3.87.12-5.71.74-3.74-.6-6.8-2.17-10a17.67,17.67,0,0,0-13.36-9.89c-5-.91-10.17-.45-15.27-.59-3.26,1.82-6.94.53-10.35,1.4s-7,.24-10.51.12c-1.25,0-2.78-.08-3.71.57-3.4,2.36-7.86,2.86-10.66,6.26a2.92,2.92,0,0,1-3.53.68c-3.29-1.53-6.23-.57-9.15,1a44.65,44.65,0,0,0-7.12,4.84c-4.29,3.47-9.7,4.76-14.66,6.94a1.66,1.66,0,0,1-.95.08c-3.35-.7-6.2.65-9.12,2a2.9,2.9,0,0,1-2.52-.73,4,4,0,0,1-.83-2.58,4.16,4.16,0,0,1,1.71-3.28,5.49,5.49,0,0,0,2.12-5.07,7.46,7.46,0,0,1,.09-1.91,4.67,4.67,0,0,1,5.46-4.11c1.56.16,3.14,1,4.66.08,2.46-1.47,5-2.89,6.29-5.69a16.05,16.05,0,0,1,2.54-4c1.51-1.65,3.23-3.09,5.82-2.71,1.5.22,2.19-.81,2.63-2.16a57.06,57.06,0,0,1,2.64-7.16,9.21,9.21,0,0,0,.62-6.51c-.53-2.17-1.13-4.33-1.54-6.52a3.82,3.82,0,0,1,2.44-4.65c.86-.4,1.66-1,2.5-1.4a2,2,0,0,1,2.45.89c.39,1.19.71,2.41,1,3.62s.63,2.41,1,3.58c.06.18.51.33.79.33a1.19,1.19,0,0,0,.85-.31c1.77-2.19.66-5,1.55-7.36,2-5.22,1.75-10.62,1.9-16,.21-.12.43-.23.63-.37,3.25-2.16,5-4.84,3.17-8.84a4.06,4.06,0,0,1,.09-3.69c.59-1.13,1.23-2.23,1.83-3.36a6.18,6.18,0,0,0,.24-5.49c-1.48-3.84-4.24-7.15-4.7-11.43-.08-.74-.92-.84-1.52-.28a3.72,3.72,0,0,1-3.37,1c-.6-2.71-1.3-5.42-1.74-8.17a3.11,3.11,0,0,1,.89-2.58c2.86-1.92,3.38-4.29,2.24-7.42-.25-.69.37-1.83.82-2.62a8.07,8.07,0,0,1,1.89-2.13c4.44-3.61,9.06-7,13.36-10.79,5.27-4.62,10.34-9.48,15.38-14.35a37,37,0,0,0,3.44-4.56c1.34-1.78,2.63-3.6,4.08-5.29a3.7,3.7,0,0,1,4.28-1.25c.9.32,1.73.83,2.62,1.16a13.83,13.83,0,0,0,9.39.39c5.21-1.78,10.59-2.23,16-2.44a11.2,11.2,0,0,0,7.7-3.38c1.36-1.35,2.76-2.65,4.1-4a14.39,14.39,0,0,0,3.28-5.76c2.36-7.19-.68-13.09-4.48-18.75a4.47,4.47,0,0,0-6.74-.64c-1.63,1.52-3.16,3.15-4.74,4.72a14.53,14.53,0,0,1-7.09,4.22c.08-4.82-1.89-8.4-6.35-10.58a9.51,9.51,0,0,0-4.58-1.15c-2.87.1-5.76-.1-8.61.16a16.37,16.37,0,0,1-10.87-2.92c-1.33-.88-2.79-1.59-4-2.57-4.27-3.34-8.78-6.45-12.62-10.24-4.31-4.25-8-9.09-11.92-13.77a21.05,21.05,0,0,0-5.78-4.95c-5-2.86-9.9-5.84-14.86-8.76a7.25,7.25,0,0,0-4.59-1,31.75,31.75,0,0,1-3.81.41c-1.91,0-4,.26-5.67-.47-4.09-1.8-8.71-2.4-12.35-5.08a20.41,20.41,0,0,1-4.25-5.09,14.22,14.22,0,0,1-1.37-3.57,7.84,7.84,0,0,0-4.37-4.85c-3.61-1.58-6.15-4.23-8.81-7.07-3.46-3.7-7.94-6.42-11.64-9.92a15.92,15.92,0,0,0-9.28-4.5,14,14,0,0,1-2.8-.64,3.51,3.51,0,0,1-2.48-2.67,50.17,50.17,0,0,1-.73-5.69,13.83,13.83,0,0,0-2.41-7.18,18.84,18.84,0,0,1-1.47-2.47,4.12,4.12,0,0,1,0-3.7,28.44,28.44,0,0,1,2-3.26,8,8,0,0,0,.69-7.35,15.22,15.22,0,0,0-1-2.7A49.37,49.37,0,0,1,717,578.2a13.91,13.91,0,0,0-4.5-7.18,53.84,53.84,0,0,1-5.8-6.37,4.32,4.32,0,0,1-.39-4.55,9.32,9.32,0,0,1,1.42-2.49,58.53,58.53,0,0,1,12-11,38.55,38.55,0,0,1,5.95-3.07,9.41,9.41,0,0,1,7.47-.26c2.08.83,4.16,1.64,6.21,2.53s4,1.9,6.07,2.85a1.14,1.14,0,0,0,1.65-.53,1.06,1.06,0,0,0,0-.93c-2.4-3-4.84-5.94-7.26-8.91a6,6,0,0,1-1.51-4.43c.36-3.48,4.38-7.09,8.39-5.67a5.91,5.91,0,0,1,3.61,3c2.17,4.74,6.51,7.77,9.26,12,.44.69,2,.57,2.59-.12a17.87,17.87,0,0,0,1.09-1.57c1.62-2.57,3.62-4.41,7-4.27a11.2,11.2,0,0,0,7.09-2.53,24.54,24.54,0,0,1,3.33-1.86,3.05,3.05,0,0,1,3.45.94c3.14,4.43,6.34,8.83,7.59,14.27l-.28-.12a8,8,0,0,1,2.13,4.22c4,3.5,6,8.26,7.69,13.15l-.25-.08a8,8,0,0,1,4.06,5.92c1.41.46,2.74,1.29,4.31,1-8.7-14.53-15.4-30-21.7-45.69a4.59,4.59,0,0,1,0-3.7c.13-.28.37-.7.59-.72a3.35,3.35,0,0,1,1.77.17,3.12,3.12,0,0,1,1.27,1.37c1.22,2.6,2.35,5.24,3.51,7.87,2.19,5,2.48,5.05,6.58,2a14.13,14.13,0,0,1,3.15-2.13c4.38-1.62,7.32-4.78,10.34-8.23,4.89-5.58,10.77-10.17,18.45-11.07a32,32,0,0,0,8.19-2.42c2.68-1.06,5.29-2.28,8-3.18a11.59,11.59,0,0,1,3.77-.11,1,1,0,0,1,.74.53c.11.56.28,1.37,0,1.7a8.31,8.31,0,0,1-2.81,2.47c-7.45,2.95-14.3,7-21.31,10.83-7.33,4-14.35,8.27-20,14.5-2.15,2.36-4.46,4.58-7.79,5.34a1.82,1.82,0,0,0-1.22,2.31,42.53,42.53,0,0,0,1.53,5.53,6.47,6.47,0,0,0,1.78,2.16c.59.55,1.7-.23,2.93-1.81,1.56-2,3.1-4,4.79-6,2.12-2.39,4.46-4.58,6.56-7s5.41-3.46,6.89-6.56a3.85,3.85,0,0,1,2.31-1.57c4-1.11,8-2.17,12-3a4,4,0,0,1,4.2,1.77c1.89,3,3.47,6.12,5.41,9a28.25,28.25,0,0,0,4.4,5,3.23,3.23,0,0,0,2.63.25,10,10,0,0,0,2.34-1.62c3.08-2.08,6-1.55,8.87.53,1,.73,1,1.72-.18,3.18-.35.44-.62.95-.92,1.42.25.15.51.43.75.42a38.3,38.3,0,0,0,6.65-.54,32.83,32.83,0,0,1,9.52-.38c4.18.22,8.09,1.67,12.16,2.43a1.65,1.65,0,0,1,1,2.32,4.06,4.06,0,0,0-.11,3.67c1.78,3,3.63,6,5.53,9a2.66,2.66,0,0,0,1.52,1c.54.12,1.51,0,1.71-.35a8.46,8.46,0,0,0,1.3-3.46c.24-4.47.27-8.95.35-13.42a7.4,7.4,0,0,1,2.78-5.82c11.44-9.74,22.8-19.57,34.24-29.3,2.92-2.48,6-4.8,9.11-7a29.38,29.38,0,0,1,5-2.72,4.48,4.48,0,0,1,5.76,2,45.47,45.47,0,0,1,2.52,6.19c6,18.9,11.46,37.93,16.09,57.21q2.23,9.32,4.43,18.65c1.45,6.2,1.75,12.66,4.5,18.58.63,1.35.37,3.14.39,4.73A20.86,20.86,0,0,0,993,617a2.85,2.85,0,0,0,3.91,1.55c2.74-1.4,4.6-3.34,4.51-6.7a42.45,42.45,0,0,1,.18-6.68,34.84,34.84,0,0,0-.68-13.32,24.59,24.59,0,0,1-.72-4.73c-.45-8.34-2.63-16.39-4.15-24.55-.59-3.18-1.66-6.13-4.19-8.42a7.1,7.1,0,0,1-2.06-6.15c.2-2.54.68-5.06.07-7.63-2.77-11.5-5.46-23-8.29-34.49-1.31-5.33-3.3-10.33-7.7-14a2.7,2.7,0,0,1,0-2.59,26.83,26.83,0,0,1,4.54-4.89,111.66,111.66,0,0,1,18.62-11.73,3.76,3.76,0,0,1,3.53.89,37.55,37.55,0,0,1,2.23,3.09c1.2,1.87,2.31,3.8,3.5,5.67a2,2,0,0,0,2.56.37c.39-.45.88-1.16.77-1.63-.56-2.48-1.34-4.92-2-7.39a12.29,12.29,0,0,1-.26-2.78c0-.2.41-.51.68-.57a1,1,0,0,1,.89.22c1.93,2.67,2.38,5.88,3.11,9,1,4.08,3.7,6.62,7.25,8.41a4.84,4.84,0,0,0,2.79.4c8.27-1.37,11.76-6,10.69-14,0-.32-.1-.63-.17-.94a53.59,53.59,0,0,1,.46-26.56C1035.27,439.32,1033.8,432.2,1031,425.24Zm-627.23,9.57c.14-.06.4.13.6.21-.09.2-.14.51-.29.58s-.4-.13-.6-.21C403.54,435.19,403.58,434.89,403.74,434.81ZM802.12,255.57c-.29-.15-.56-.32-.84-.5l1.5.42C802.56,255.52,802.28,255.65,802.12,255.57Zm9.6,28.42h-4.13l-.05-.05h4.22Zm-3.57-112.91a3.55,3.55,0,0,1,1.72-.41.84.84,0,0,1,.6,1.4c-.33.44-1,.62-1.51.92a8.74,8.74,0,0,1-1.15-1.15C807.72,171.72,807.95,171.16,808.15,171.08Zm3.65,112.81,1.52-1.92V282Zm1.56-1.54q.22,2,.42,3.93A9.79,9.79,0,0,1,813.36,282.35Zm12.37,17.14c-.67,0-.89-.42-.57-1a.68.68,0,0,1,.65-.12c.18.1.25.4.36.61C826,299.19,825.87,299.5,825.73,299.49ZM830,134.14a7.26,7.26,0,0,1-2.55,1.2c-4.16,1.54-8.29,3.2-12.52,4.54a112.27,112.27,0,0,0-17.49,7.4c-3,1.53-6,3.14-9.46,3.28a3.35,3.35,0,0,1,.73-1.33c4.67-3.83,9.58-7.28,15.32-9.39,8.33-3.05,16.64-6.15,25-9.23,1-.35,2.32.31,2.15,1.07A5.13,5.13,0,0,1,830,134.14Zm-40.86,48.52h-.86l.44-.51Zm48-60.38a1.55,1.55,0,0,1,.36-2.4c.56-.26,1.17-.4,2.22-.74a22.49,22.49,0,0,1,2.91,1.64,2.33,2.33,0,0,1,.15,3.37,2.08,2.08,0,0,1-2.58.32A25.71,25.71,0,0,1,837.16,122.27ZM843.31,185c-.08.45-.7.8-1.08,1.2-.41-.42-1.17-.85-1.16-1.26.18-5.53-.89-11.09.38-16.59l3.43,3.38q.16,3.66.34,7.34A16.33,16.33,0,0,0,843.31,185Zm1,83.48-.28-.59h.54Zm13.49,17.28a58.12,58.12,0,0,1-.91-17.6c0-.27.34-.51.52-.76.33.35.93.67,1,1C858.91,274,859.6,279.52,857.81,285.78ZM851.42,192a26.85,26.85,0,0,0,.39-13.23c0-.21.35-.73.53-.73.56,0,1.38,0,1.63.38,3.44,4.8,4.83,10.3,5.33,16.2.52-2.87,1-5.62,1.54-8.36,0-.22.44-.46.7-.51a1.14,1.14,0,0,1,.91.19,7.25,7.25,0,0,1,1.7,2.21,38,38,0,0,1,1.94,14.08,49.08,49.08,0,0,1-4.73,18.35,2,2,0,0,1-1.52.92,1.91,1.91,0,0,1-1.38-1,23.26,23.26,0,0,1-1.74-4.43c-.45-1.84-.26-3.89-1-5.59s-2.3-2.93-3.28-4.51a7.86,7.86,0,0,1-1.25-3.55C851.07,198.93,850.38,195.45,851.42,192Zm-3-11.38c.63,4.7,1.38,9.42.87,14.19a1.81,1.81,0,0,1-1.13,1.24,2,2,0,0,1-1.63-.59,8.53,8.53,0,0,1-1.27-2.49,3.47,3.47,0,0,1-.18-1.88c1-4,.21-7.95.36-11.92C846.68,179.17,848.23,179.32,848.4,180.59ZM873,123.65a12,12,0,0,1,1.33.22,4.59,4.59,0,0,1-.08.73,12.71,12.71,0,0,1-1.34-.21A5.48,5.48,0,0,1,873,123.65Zm-45.9-34.18c4.71-.4,9.42-.79,14.13-1.12a2.45,2.45,0,0,1,1.78.4c2,2.38,5.07,2.41,7.62,3.57a5.11,5.11,0,0,1,2.77,3.62l1.66-.34-1.59.38c-6-3.16-12.69-3.64-19.21-4.67-2.17-.34-4.41-.3-6.6-.52-.46,0-.87-.53-1.3-.81C826.65,89.81,826.89,89.5,827.15,89.48Zm-3,10.54c2.13-1.66,4.87-1.33,7.3-2,4.9-1.45,9.47.35,14,1.7.82.24,1.42,1.23,2.14,1.85,2,1.76,2,1.83,3.94.19,1.4-1.19,2.72-1.59,4.33-.77,2.56,1.31,5.15,2.58,7.63,4a18.39,18.39,0,0,1,8.31,10.18,6.86,6.86,0,0,1,.11,1.87c0,.76-1.13,1.83-1.9,1.86a11,11,0,0,1-6.34-1.83,6,6,0,0,1-1.87-2.09,13.5,13.5,0,0,1-.93-2.71,3.74,3.74,0,0,0-3.58-2.7c-3.18-.17-6.56-.72-9.54.07-4.86,1.29-9.49.5-14.24.07a7.46,7.46,0,0,1-5.77-2.86c-1.34-1.76-2.85-3.4-4.15-5.19C823.36,101.36,823.71,100.32,824.1,100Zm-6.62-14,.13.55-.67-.21Zm1,20.05c-.22.56-.29,1.38-.7,1.64-1.62,1-3,.62-3.94-1-.15-.25-.24-.78-.1-.91a3.41,3.41,0,0,1,1.53-1C816.89,104.51,817.93,105,818.44,106.09ZM818.2,112c-.11.2-.49.24-.76.35-.09-.27-.31-.61-.22-.79s.49-.22.76-.32C818.07,111.52,818.3,111.86,818.2,112Zm-7.8-16.89A3.74,3.74,0,0,1,816,95a1,1,0,0,1,.09.9,1.12,1.12,0,0,1-.66.59c-.88.25-1.79.41-2.5.57a17.1,17.1,0,0,1-2-.44C810.21,96.39,809.9,95.72,810.4,95.14Zm10.4,31.78c.77-.25,1.31-.13,1.45.54,0,.2-.28.61-.53.72-5.83,2.42-11.58,5.12-17.56,7.1-5.06,1.67-10.4,2.52-15.64,3.66a12.2,12.2,0,0,1-2.67,0c-.43-.26-.94-.48-.92-.58.11-.54.22-1.34.59-1.52,3.67-1.84,7.34-3.7,11.13-5.28a23.44,23.44,0,0,1,5.53-1.13C808.43,129.52,814.74,128.86,820.8,126.92Zm-42.62,2c.9-3.43,2.53-6.27,6.14-7.5a1,1,0,0,1,.81.22c.2.18.4.59.32.79A10.32,10.32,0,0,1,778.18,129ZM802,115.17c-1.47.74-2.24,1.13-3,1.5s-1.29.17-1.18-.63a.94.94,0,0,1,.63-.62C799.32,115.29,800.25,115.28,802,115.17ZM794,78.72c.52-1,2-1.15,3.47-.49a2,2,0,0,1,1.31,2.46c-.12.52-1.17,1.18-2,1.44a2.35,2.35,0,0,1-3-1.65A2.54,2.54,0,0,1,794,78.72ZM795,123a1.82,1.82,0,0,1,1.64.2,1.69,1.69,0,0,1,.11,1.64,13.32,13.32,0,0,1-3.25,3.39,59.13,59.13,0,0,1-6.88,3.17c-.22.09-.57-.12-.85-.2a2.27,2.27,0,0,1-.3-.77,1.38,1.38,0,0,1,.29-.86A26.43,26.43,0,0,1,795,123ZM771.49,79.51l-.33.55-.24-.6Zm-1.57,5.29c2.27-1.74,5.37-1.66,7.69-3.6,1.19-1,3.18-.37,4.4.75,1.86,1.7,3.37,3.8,6.24,4,.9.05,1.14,1.64.46,2.3-4.3,4.16-8.68,8.21-14.42,10.34a7.63,7.63,0,0,1,2.89-8.15,23.25,23.25,0,0,0,2.61-2.7c.47-.52-.33-2.17-1.11-2.26a9.64,9.64,0,0,0-2.81-.17c-1.85.35-3.66.95-5.5,1.39-.23.06-.78-.24-.77-.36C769.62,85.8,769.61,85.05,769.93,84.81Zm10.32,22.86c.62-.32,1.19.07,1.4.8a1.22,1.22,0,0,1-.07.92,4.09,4.09,0,0,1-1.25,1.34q-5.82,3.05-11.7,6a5.34,5.34,0,0,1-4.42.11C769.41,113.46,774.79,110.5,780.24,107.67Zm-3.75,24.05-.11.21-.39-.14Zm-24.62,91.49a18.53,18.53,0,0,0,6.24-2.23c2.9-1.57,5.35-1.26,7.67,1.35,1,1.1,2.67,1.66,4.13,2.21,1.79.67,3.77.85,5.49,1.63,2.31,1.06,4.74,2.33,5.16,5.2.45,3.08,2.85,4.9,4.33,7.31a3.65,3.65,0,0,0,1.46,1.2c1.4.7,3.3.94,4.21,2,3.42,4,7.3,7.76,9.62,12.64-1.71-.34-3.4-.72-5.1-1-2.87-.48-3.31-.19-4.22,3-2.05-.6-4.06-1.35-6.14-1.8a20,20,0,0,1-7-2.73,9.56,9.56,0,0,0-7-1.28,23.51,23.51,0,0,1-1.13-3.3c-.21-1-.51-1.8-1.56-2.14-2.12-.68-4.25-1.33-6.35-2.07a1.9,1.9,0,0,1-.84-3.1c.78-1,1.66-1.84,1.46-3.29-.25-1.89-.26-3.82-.6-5.7a3.26,3.26,0,0,0-2.39-2.72,34.14,34.14,0,0,1-4.61-1.15,9.29,9.29,0,0,1-2.93-2.33C751.51,224.58,751.75,223.23,751.87,223.22Zm5.5,7.55c.34,0,.77,1.54.82,2.39,0,.42-.63,1-1.11,1.29a3.23,3.23,0,0,1-1.79.4,40.67,40.67,0,0,1-12.64-3.27c-.93-.41-1.63-1.65-1.12-2.23a12,12,0,0,1,1.87-1.48,7.9,7.9,0,0,1,1.25,0C748.91,228.75,753,230.5,757.38,230.77Zm-12-136.38c.22-.7.91-.94,1.27-.5a2.22,2.22,0,0,1,.37,1.6c-.23,1.29-1.25,1.84-2.38,2.2A25.06,25.06,0,0,1,745.42,94.39Zm-1.3,6.07c.18-.76.32-1.52.47-2.29.1.7.21,1.39.29,2.09,0,.27,0,.69-.11.82C744.13,101.58,743.91,101.34,744.12,100.46ZM733,219.56a4.64,4.64,0,0,1,2.4-1.3c2.19-.18,4.41-.06,6.62-.06v.15c2.2,0,4.4,0,6.6,0,.21,0,.62.42.58.56a1,1,0,0,1-.6.67,6.77,6.77,0,0,1-1.87.22c-4.45-.15-8.82,0-12.86,2.3-.25.14-1.25-.45-1.36-.86A2,2,0,0,1,733,219.56Zm-8-4.82a6.37,6.37,0,0,1,1.6-.26c.22,0,.45.27.68.42,0,.23,0,.57-.13.68a1.64,1.64,0,0,1-2.25-.19C724.84,215.24,724.94,214.77,725,214.74Zm6-150.47c.36-.19,1,.11,1.49.25,0,0,0,.71-.12.78-.72.35-1.48.6-2.22.89A1.7,1.7,0,0,1,731.09,64.27ZM728.22,24.4c1.67-.69,3.08-2.11,5-2a5,5,0,0,1,1.54.72c-.19.23-.34.6-.59.67-1.73.54-3.49,1-4.91,1.44a8.89,8.89,0,0,1-1.21-.36S728.12,24.44,728.22,24.4Zm-8.13,50.15c.48-1.08,1.71-1.58,2.25-1a5.13,5.13,0,0,1,.67,1.66c-.39.45-.69,1.12-1.18,1.29a1.36,1.36,0,0,1-1.74-2Zm-1.65,8.75a.79.79,0,0,1,.73,0,.83.83,0,0,1,.33.68,4.65,4.65,0,0,1-2.76,2.93A4.69,4.69,0,0,1,718.44,83.3Zm-2.59-56.69c0,.19,0,.54-.08.55-.24.06-.68.08-.73,0C714.8,26.58,715.11,26.38,715.85,26.61Zm-4.39,37.21a4,4,0,0,1,3.45.72c.77.53,1.54,1.19,1.24,2.2-.14.47-.81.85-1.32,1.13a9.84,9.84,0,0,1-1.74.57h0c-1.87-1.66-4.38-2-6.58-3.08C708.14,64.82,709.79,64.28,711.47,63.82Zm-6.09,7.37a41.74,41.74,0,0,1,5.12-2.52,5.93,5.93,0,0,1,2.38-.08c-2,1.43-3.93,2.91-6,4.26a4,4,0,0,1-3.55.78C702.65,73.4,703.56,72.2,705.37,71.2ZM597.91,102a30.25,30.25,0,0,0-.12,14.26,66.23,66.23,0,0,1,1.15,14.3,17.91,17.91,0,0,1-2,8.25c-.31.6-.56.62-.76,0a7.62,7.62,0,0,1-.53-1.82c-.24-3.83-.67-7.66-.58-11.48.19-8,.47-16,1.08-23.95a70.47,70.47,0,0,1,2.22-11.26A5.15,5.15,0,0,1,602,86.47C600.64,91.67,599.25,96.81,597.91,102Zm5-18.42c-.23.85-.53,1.68-.8,2.51a3.91,3.91,0,0,1-.51-3.12c.07-.23.34-.55.53-.57C602.77,82.32,603.08,82.77,602.87,83.55Zm5.8,106.5c-.23.1-.78,0-.87-.16-.27-.52-.71-1.28-.52-1.67a22.25,22.25,0,0,1,5.22-6.79c1.24-1.12,2.44-1,2.84.5a9.91,9.91,0,0,0,1.81,4.15Q612.94,188.12,608.67,190Zm8.51-4-.31-.53.44.46Zm4.37-119.56c-.51.79-1,1.59-1.57,2.36-2.18,3.09-4.34,6.18-6.58,9.22-.3.41-1,.55-1.44.81l-.31-1.62a31.2,31.2,0,0,1,8-12.73,3.43,3.43,0,0,1,1.74-.55C622.05,63.89,622.18,65.53,621.55,66.51Zm2.08,129.8c-.2,0-.55,0-.57-.08a2.34,2.34,0,0,1,0-.73c.2,0,.54,0,.56.08A2.48,2.48,0,0,1,623.63,196.31Zm12.8-155.82a12.85,12.85,0,0,1,2-1.77c.13-.1.61.07.77.25s.14.54.24,1c-.55.55-1.15,1.21-1.82,1.8a1,1,0,0,1-.86.14A.83.83,0,0,1,636.44,40.49Zm1.27,26.25c-.72.34-1.11,0-.92-.86,0-.2.47-.44.72-.44s.4.33.6.51C638,66.22,637.92,66.64,637.71,66.74Zm1.57-14.92a7.39,7.39,0,0,1-1.66.74s-.42-.5-.38-.7a2,2,0,0,1,2-1.61c.13,0,.27.47.41.73C639.51,51.26,639.48,51.68,639.27,51.82Zm3.76,8s.06,0,.14-.06l.19.5ZM668,58.91c-.73.61-1.07.39-.83-.52a1.07,1.07,0,0,1,.59-.63c.14-.06.42.23.64.37C668.24,58.39,668.18,58.74,668,58.91Zm10.81,39.4c-.11.11-.59,0-.78-.14s-.37-.58-.29-.73c1.62-3,3.22-6,5-8.93a6.15,6.15,0,0,1,3.42-2.58c.1,1.53.19,3.05.28,4.57C683.88,93.08,681.35,95.71,678.78,98.31Zm3.61,6.91c-.13.27-1,.25-1.47.24-.12,0-.36-.52-.32-.76a12.45,12.45,0,0,1,3.71-7.26,5.73,5.73,0,0,1,2.09-1C685.12,99.46,683.81,102.37,682.39,105.23Zm4.24-9.43a8.73,8.73,0,0,1-.22-5.16C687.24,92.32,686.71,94.07,686.64,95.79Zm2.49-59.21a10.05,10.05,0,0,1,2.31-.6,7.61,7.61,0,0,1-.93,2.21c-.26.36-1.08.37-1.66.4-.2,0-.64-.47-.6-.57C688.48,37.5,688.7,36.79,689.13,36.59Zm.33,46.32a1.38,1.38,0,0,1-.22.87,1.61,1.61,0,0,1-.61.68c-.78.39-1.6.72-2.4,1.06a11,11,0,0,1-.9-2.27c-.31-1.55.68-3.2,1.57-2.83A3.83,3.83,0,0,1,689.46,82.91ZM680,49.11a4.35,4.35,0,0,0,1-2.88c-.17.06-.4-.06,0-.22a3.32,3.32,0,0,0-.08-.39l.05.07.08.3.08,0a.22.22,0,0,1,0,.23l.8,2.93,3.87,1.15-3.83.48-1.58,2-.2-2h-3.64C677.25,49.34,678.69,49.31,680,49.11Zm0,4.29a7.6,7.6,0,0,1-.46,1.24c-.11.21-.5.5-.65.44-.62-.23-.68-.78-.07-1.24A3.4,3.4,0,0,1,680,53.4Zm-3.1,11.87c3.68-4.57,6.46-9.68,9.42-14.69.31,1.12,1,2.41.64,3.39-1.26,3.9-2.8,7.71-4.35,11.5a11.49,11.49,0,0,1-5.86,5.88c-.23.11-.76.06-.86-.09-.32-.5-.79-1.16-.67-1.62A12.07,12.07,0,0,1,676.93,65.27ZM672,26.58a2.45,2.45,0,0,1,.78-.15l.66.39a6.59,6.59,0,0,1-1.16.69c-.15.05-.43-.24-.65-.37C671.73,26.95,671.81,26.68,672,26.58Zm-7.32,10.85a15.42,15.42,0,0,1,3.46-1.54,2.18,2.18,0,0,1,1.75.36,2.07,2.07,0,0,1,.7,1.63,8.74,8.74,0,0,1-1.16,3.57,68.63,68.63,0,0,1-16.53,15.77,6.36,6.36,0,0,1-2.06.46,24.2,24.2,0,0,1-2.41-1.08,2.25,2.25,0,0,1-.73-2.54,6.18,6.18,0,0,1,.39-.87C652.9,47.19,658,41.51,664.66,37.43ZM633.79,12.76a92.53,92.53,0,0,1,10.33-1.47c4.08-.18,8.18.16,12.27.38.28,0,.58.92.74,1.46a.87.87,0,0,1-.36.77A57.72,57.72,0,0,1,641,16.47c-2.78-.06-5.55-.09-8.33-.13C632.08,13.71,632.29,13,633.79,12.76Zm-18-3a23.22,23.22,0,0,1,11.73-3,11.72,11.72,0,0,1,1.74.94c.44.35-.8,1.81-1.75,2-3.73.73-7.47,1.44-11.22,2.12-.23,0-.76-.28-.77-.45C615.55,10.83,615.53,10,615.82,9.79Zm14.09,8.54a2.35,2.35,0,0,1-1.6,1.66A3.12,3.12,0,0,1,629.91,18.33Zm-2,2.25A5.22,5.22,0,0,1,626,24c-.17.15-.48.16-.72.23-.07-.25-.27-.63-.18-.73C626,22.52,627,21.56,627.93,20.59Zm-55,52.58c1.09-2.46,3.36-3.75,5.35-5.3,1.24-1,2.84-1.68,3.66-2.92,2.88-4.33,6.78-7.49,10.77-10.71,3.13-2.54,5.61-5.89,9.07-8.12a4.44,4.44,0,0,0-3.61-.22,49.36,49.36,0,0,0-9.11,5.18c-2.31,1.68-4.75,3.19-7.15,4.74-.64.41-2.35-.21-2.42-.89a3,3,0,0,1,.16-1.81,32.66,32.66,0,0,1,8.87-8.59c5.22-3.61,10.36-7.43,16.65-9.23a15.74,15.74,0,0,0,5.9-3,11.62,11.62,0,0,1,8.76-3.13c4.11.4,7.49-1,11-2.62a26.5,26.5,0,0,1,3.57-1.32,1,1,0,0,1,1.37.87,2.15,2.15,0,0,1,0,.94,2,2,0,0,1-.39.87q-4.43,4.79-8.9,9.55c-3.73,3.34-7.72,6.35-11.12,10.12a48.16,48.16,0,0,1-11.76,9.52,52.25,52.25,0,0,0-15.82,13.43A7.69,7.69,0,0,1,586.47,72a47.65,47.65,0,0,0-9.58,10.44,8.82,8.82,0,0,1-2.59,2c1.06-2.82,2.19-5.58,3.22-8.39a1.84,1.84,0,0,0-.33-1.67c-.4-.3-1.2-.15-1.81-.08s-1.21.33-1.82.39c-.19,0-.51-.3-.6-.53A1.3,1.3,0,0,1,572.95,73.17Zm-13.42-9.06a1.63,1.63,0,0,1,1.55-.13,1.68,1.68,0,0,1,.32,1.54,1.88,1.88,0,0,1-1.22,1.13c-.38,0-.84-.64-1.26-1C559.11,65.11,559.16,64.41,559.53,64.11ZM530.57,51a64.27,64.27,0,0,1,15.71-13.86c2.42-1.52,4.81-3.09,7.23-4.61a1.13,1.13,0,0,1,.94,0,1.08,1.08,0,0,1,.52,1.62,30,30,0,0,1-11.37,12.58c-4.87,3-9.58,6.31-14.35,9.49a6.67,6.67,0,0,1-5.18,1.37A31.21,31.21,0,0,0,530.57,51ZM525.95,97.6c3.21-6.2,6.3-12.47,8.89-19,1.76-4.43,4.1-8.63,7.84-11.81a1.18,1.18,0,0,1,.89-.18,1,1,0,0,1,.8,1.36c-.59,1.47-1.28,2.89-1.94,4.33-4.25,9.22-8.34,18.51-13.22,27.45-2.11,3.86-3.16,8.3-4.78,12.43-.15.39-.91.59-1.43.77-.09,0-.42-.44-.54-.73a5,5,0,0,1-.18-1.06A33.78,33.78,0,0,1,525.95,97.6Zm-23.6-11.72-.14.18-.45-.38ZM523,30.35a1,1,0,0,1,.82,0c.14.07.11.44.16.68-.25.11-.53.34-.75.3C522.4,31.17,522.3,30.75,523,30.35Zm-4.54-9.47c.22,0,.45.3.67.46-.14.25-.22.61-.43.73a.83.83,0,0,1-.79-.06C517.36,21.33,517.58,20.88,518.47,20.87Zm-5.58,18.3a1,1,0,0,1-.16.89c-2.29,2.65-4.86,4.88-8.6,5.09-.26-.17-.63-.28-.75-.52a1,1,0,0,1,.08-.89,23.35,23.35,0,0,1,7.82-5.05C512,38.41,512.57,38.49,512.88,39.18Zm-7.62-20.35a4.89,4.89,0,0,1,4.57.16,1.13,1.13,0,0,1,.46.77,1.48,1.48,0,0,1-.3.89,1.46,1.46,0,0,1-.74.58c-3.75.91-7.49,1.14-11.2-.41C500.78,21.33,502.93,19.79,505.26,18.83Zm-62.52,88.94a1.1,1.1,0,0,1-.85.26,1,1,0,0,1-.83-1.37,8.72,8.72,0,0,1,4.42-5.28C444.82,103.62,444.4,106,442.74,107.77Zm50.53-25.72a3.59,3.59,0,0,1,2.18-2.49,3.72,3.72,0,0,1-.5,3.15.9.9,0,0,1-1.5.16A1,1,0,0,1,493.26,82.05Zm-.91,41.46.34-1.71c.16.5.35,1,.47,1.51a2.49,2.49,0,0,1,0,.9c-.09.59-.22,1.16-.33,1.75-.16-.5-.35-1-.47-1.51A4.38,4.38,0,0,1,492.35,123.51ZM485.9,43.27a1.58,1.58,0,0,1,.82-.27c.18,0,.35.31.52.48-.4.39-.76,1-1.21,1.12a8.44,8.44,0,0,1-2.22-.08C484.51,44.1,485.2,43.67,485.9,43.27ZM440.72,85.59a5.77,5.77,0,0,1,.44-.85c2.75-5.1,6.48-9.5,10.22-13.85,1.84-2.15,4.4-3.66,6.44-5.65,4.33-4.22,9.05-8,12.82-12.86a17.42,17.42,0,0,1,8.57-5.89,45.82,45.82,0,0,0,4.24-1.77,6.53,6.53,0,0,1-.2,2.51c-.69,1.4-1.86,2.55-2.63,3.92-1.67,3-3.63,5.85-4.11,9.45a12.13,12.13,0,0,1-3.37,6.69c-1.73,1.85-3.21,3.92-4.88,5.83-1,1.18-2,2.71-3.36,3.28-4.76,2-7,6.28-9.55,10.24s-4.6,8-6.87,12c.1-2.38.19-4.77.24-7.16,0-2-1.07-3.51-3.8-2.31l-.87.4c-.92.4-1.92.6-2.52-.36A4.13,4.13,0,0,1,440.72,85.59ZM29.84,476.86a15.09,15.09,0,0,1-1.34,1.2c-.64.61-1.26,1.25-1.89,1.87l-.15-.1.21,0c-.18-1.87-.12-3.64,2.08-4.38a1.22,1.22,0,0,1,.85.05A.82.82,0,0,1,29.84,476.86ZM366.17,344.23c-.18-.23-.51-.46-.51-.69s.34-.45.52-.68c.19.23.52.46.52.69S366.36,344,366.17,344.23ZM419.39,83.36c-.24.1-.54.36-.71.28-.63-.27-.64-.75,0-1.17a.77.77,0,0,1,.71.17C419.49,82.78,419.39,83.11,419.39,83.36Zm6.71-43.67c-.81,1.07-2,.92-3.15.84Zm-3.76,1,.15.46-.39-.4Zm-3.81,4.7a10.28,10.28,0,0,1,1.16.74s-.19.43-.3.66a10.76,10.76,0,0,1-1.17-.74S418.41,45.63,418.53,45.4ZM391.82,97.52a2.16,2.16,0,0,0-.05-3.34,4.28,4.28,0,0,1-.8-4.46,22,22,0,0,1,4.46-8.39c2.28-2.67,4.44-5.44,6.59-8.22A55.87,55.87,0,0,1,410.5,64,78.94,78.94,0,0,0,426.19,47.3,11.56,11.56,0,0,1,433,42.42a2,2,0,0,1,1.62.68,2.35,2.35,0,0,1,.25,1.73,4.51,4.51,0,0,1-.87,1.68c-1,1.28-2.23,2.39-2.91,3.8-4.44,9.22-11.16,17.11-15.41,26.45a32.56,32.56,0,0,1-5.78,8.73c-4.33,4.69-8.38,9.63-13.32,13.72a8.69,8.69,0,0,0-1.4,1.3c-4.88,6.35-10.64,11.86-16.29,17.5a126.6,126.6,0,0,0-9.19,11c-1.4,1.76-2.74,3.53-4.84,4.5a.92.92,0,0,1-.82-.13c-.18-.16-.32-.64-.22-.78,1.11-1.53,2.28-3,3.45-4.56a22.85,22.85,0,0,1,5.2-6.79c3.57-3.26,6.35-7.17,9.16-11C384.84,105.83,387.93,101.36,391.82,97.52ZM369.07,85.66l.55,0-.06.15Zm12.55,6.56c.3-.33,1-.27,1.56-.39,0,.28.19.67.06.82-.73.9-1.53,1.76-2.3,2.63A3.24,3.24,0,0,1,381.61,92.22Zm-4-25c.21-.15.79-.15.87,0,.29.46.74,1.14.59,1.51a4.65,4.65,0,0,1-4,2.9A6.17,6.17,0,0,1,377.62,67.26Zm2.9,28.58c-1.22,1.83-2.41,3.68-3.77,5.39a4.68,4.68,0,0,1-1.91,1C375.64,99.12,377.28,96.74,380.52,95.84Zm-6,6.87a5,5,0,0,1-3.61,5.13C371.4,105.64,372.21,103.64,374.51,102.71ZM355.78,78.16c-3.35,3.77-6.76,7.5-10.3,11.1a7.46,7.46,0,0,1-3.39,1.46c-.41.11-1.05-.47-1.49-.85a.94.94,0,0,1,.1-.89c4.91-4.45,9.82-8.88,14.28-13.8a6.09,6.09,0,0,1,2.32-1.08A5.74,5.74,0,0,1,355.78,78.16ZM366.73,66.5c-1.68,4.12-4.9,6.31-9.13,7.22C359,69.21,362.21,67,366.73,66.5ZM360.17,88l-.44-.41.58.26Zm-.66-6.32,0-2.15c1.88-3.09,4.55-5.48,7-8a12.36,12.36,0,0,0,6.05,2.91q-6.11,6.73-12.24,13.41C360.08,85.81,359.8,83.76,359.52,81.71Zm5.28,325.57.09-.52.46.34Zm15.38,61.32c-.69.2-1.27,0-1.22-.7,0-.38.64-.75,1.05-1,.1-.07.55.18.68.39C381.08,467.86,380.87,468.33,380.18,468.6ZM957,1236.77c-.34-.26-.37-.92-.53-1.41.26-.06.55-.23.76-.16a1.2,1.2,0,0,1,.58.6c.22.45.38.93.56,1.4A3.32,3.32,0,0,1,957,1236.77Zm11-29.31a2.05,2.05,0,0,1,2,1.5,8.72,8.72,0,0,1-3,7.46c-.19.17-1.33-.21-1.44-.54a37.28,37.28,0,0,1-.93-3.76C964.75,1209.39,966,1207.88,968.08,1207.46Zm-3.4,14.49.59.3c-.11.22-.23.62-.33.62C964.2,1222.83,964.12,1222.49,964.69,1222Zm-29.29-14.46a11.2,11.2,0,0,1,1-1.35,13.19,13.19,0,0,1,1,1.44c.12.24,0,.59,0,.9l-1,1.34a14,14,0,0,1-.95-1.45A1.09,1.09,0,0,1,935.39,1207.49Zm-2.07,7.58c.51.22,1.23.31,1.49.7a1.58,1.58,0,0,1-.47,2.36c-.75.25-1.76-.52-1.79-1.59C932.54,1216.06,933.05,1215.56,933.33,1215.07Zm-.87,12.16.2.58-.54-.07ZM911,1259.31a1.63,1.63,0,0,1-.61-1.42c.22-1.16.92-1.64,1.82-1.54.4.38,1,.71,1.16,1.17C913.63,1258.61,912.19,1259.74,911,1259.31Zm20-20.68h-1.59l1.57-.07Zm-3-20c.07-.18.52-.3.78-.28a1.1,1.1,0,0,1,.77.39,19.55,19.55,0,0,1,1,1.94,14,14,0,0,1-.67,3.36c-1,2.25-2.24,4.4-3.44,6.55-.31.56-.65.44-.69-.18C925.39,1226.25,926.53,1222.4,927.94,1218.6Zm3,20.09c.66,3.1.36,5.95-2,8.41-1.48,1.54-2.62,3.39-4.09,4.94-.87.91-2,.69-3.12.28C923.62,1246.95,927.09,1242.68,931,1238.69Zm-9.4,16.09c-.06.36-.77.65-1.23.89-.1,0-.5-.27-.58-.49a1,1,0,0,1,.08-.84c.51-.59,1.09-1.13,1.65-1.68A8.2,8.2,0,0,1,921.56,1254.79Zm-1.06-26.53.54.37-.76.56Zm-1.57-14.56a1,1,0,0,1,.82.14c.19.14.23.49.33.74a2,2,0,0,1-1.9,1.6c-.23,0-.67-.26-.68-.44A2,2,0,0,1,918.93,1213.7Zm-1.9,28.54c.19,0,.47.39.63.65A6,6,0,0,1,918,1244c-.21.65-.24,1.82-.82,2.3a15.31,15.31,0,0,1-6.45,3.41.92.92,0,0,1-.79-.3c-.3-.49-.77-1.15-.64-1.59C910.44,1244,913.42,1242.66,917,1242.23Zm-9.37-55.9c.1-.79,1.62-.17,2,.9a4,4,0,0,1,.11.89l-.41.74c-.46-.27-1.08-.44-1.35-.85A2.68,2.68,0,0,1,907.66,1186.33Zm-.26,35.13a1.61,1.61,0,0,1,1.45-.41c.4.35.57.29.65.18a3.66,3.66,0,0,0,0,.38c-.08,3,.1,6.12-2.3,8.5C905.81,1227.25,906.29,1224.33,907.4,1221.47Zm-.95,8.58a2.37,2.37,0,0,1,.55.19c-.23.1-.46.21-.7.29s-.54.17-.81.25C905.33,1230.17,905.66,1229.91,906.46,1230Zm-7.74,35a6.33,6.33,0,0,1,1.36,1c.06.05-.27.64-.29.63a10.09,10.09,0,0,1-1.63-.75c-.16-.1-.17-.45-.25-.69C898.19,1265.19,898.54,1265,898.72,1265.05Zm-2.9,5.34-.62.49,0-.75ZM790.87,1117.72l.58.28-.58.41ZM737.52,1055l.08.77-.67-.34Zm-10.79-3.73-.12.7-.52-.44Zm-17.44-2.4a.74.74,0,0,1,.17.71c-.08.18-.43.24-.66.36-.18-.16-.53-.33-.53-.49C708.3,1048.7,708.7,1048.47,709.3,1048.85ZM653,1044.95c.17-.06.44.18.67.28-.11.22-.17.57-.34.63s-.44-.17-.66-.28C652.82,1045.36,652.89,1045,653,1044.95Zm118.61-37.4a1,1,0,0,1,.75-.47,5.73,5.73,0,0,1,1.71.64c.2.11.22.55.32.84a1,1,0,0,1-1.29,1C772.06,1009.39,771.26,1008.25,771.66,1007.54ZM874.51,723.8a8.3,8.3,0,0,1,1-1,8.69,8.69,0,0,1-.05,1.25.94.94,0,0,1-.47.67C874.18,724.91,874,724.53,874.51,723.8Zm-63.89,124c-.25,0-.63.16-.72,0-.47-.55-.32-1,.39-1.15a.73.73,0,0,1,.62.38C810.95,847.31,810.72,847.58,810.62,847.83Zm1.55-13.27c0,.44-.12.88-.2,1.31a10.17,10.17,0,0,1-.69-1.27c-.1-.25-.13-.76,0-.85C811.88,833.36,812.24,833.68,812.16,834.56Zm-3.49-29.81a15.89,15.89,0,0,1,2.14,1.24,11.15,11.15,0,0,1-1.62,2.07c-.35.29-1.42.33-1.62.07a4.86,4.86,0,0,1-1-2.36C806.54,804.89,807.69,804.33,808.68,804.75Zm-2,12.37c1.21.94,2.78.84,3.36-.2.77-1.37,1.41-2.81,2.13-4.21.58-1.14,1.54-1.74,2.17-1.21a4.58,4.58,0,0,1,1.58,2.12,4,4,0,0,1-.33,2.72c-.93,1.64-2.37,3-3.18,4.69a37.59,37.59,0,0,0-1.59,5.36,1.05,1.05,0,0,1-.71.59c-.58.09-1.55.28-1.74,0a38.4,38.4,0,0,1-4.45-9.14c-.22-.63.64-1.64,1-2.48A14.81,14.81,0,0,0,806.65,817.11Zm-2.72-25.29c.45-.4,1.09.13,1.05.85a1.69,1.69,0,0,1-1.51,1.78c-.22-.15-.65-.4-.63-.45A5.76,5.76,0,0,1,803.93,791.82Zm-13.28,23.58c.14,0,.19.42.28.64l-.41.61c-.18-.13-.47-.23-.52-.4C789.78,815.57,790,815.23,790.65,815.41ZM754.4,901.59c.16.15.05.57.07.86l-.63.43c-.15-.25-.44-.5-.43-.74C753.43,901.3,753.85,901.07,754.4,901.59ZM754,1013.82c-.14.26-.24.72-.42.75a2.66,2.66,0,0,1-1.66,0,1.55,1.55,0,0,1-.31-2.38,1.27,1.27,0,0,1,.83-.28A1.67,1.67,0,0,1,754,1013.82Zm-2.74-179.51c.2,0,.43.3.64.46a1,1,0,0,1-1,1.23.79.79,0,0,1-.62-.46A1,1,0,0,1,751.29,834.31Zm-6.58,89.78c-.66.25-1-.07-.83-.8a.76.76,0,0,1,.59-.46c.19,0,.35.36.52.56C744.9,923.63,744.87,924,744.71,924.09Zm-.74-14.5c.4-.55.77-.39.88.38,0,.21-.2.45-.32.68-.19-.1-.47-.16-.54-.31A.92.92,0,0,1,744,909.59Zm.76-69.76c.41.37,1.11.71,1.16,1.12a2.82,2.82,0,0,1-1.63,3,1.63,1.63,0,0,1-1.49-.58A2.72,2.72,0,0,1,744.73,839.83ZM739.6,998.68c.19,0,.39.31.58.48-.11.24-.16.59-.34.7a.76.76,0,0,1-.73-.09C738.61,999.16,738.81,998.72,739.6,998.68ZM695.54,598.81c0-3.5.21-7,.37-10.5,0-.84.48-1.2.92-.92a1.17,1.17,0,0,1,.43.8c.23,3.17.43,6.35.63,9.52h-.31c0,2.23,0,4.46,0,6.69-.08,3.31.61,6.27,3,8.75,3.4,3.46,3.24,7.46,1.18,11.47-1.74,3.39-3.68,6.7-5.69,9.94a5.43,5.43,0,0,1-2.34,1.47c-.68.32-1.34-.7-1.32-2.07.12-7,.28-14,1.76-20.92A67.58,67.58,0,0,0,695.54,598.81Zm-3.41-47.75c0-.12.5-.32.65-.25a1.39,1.39,0,0,1,0,2.19c-.15.07-.63-.14-.65-.25A6.8,6.8,0,0,1,692.13,551.06ZM689.63,608a2.68,2.68,0,0,1-1.92,3.6,6.62,6.62,0,0,1-2.72-.29,2.22,2.22,0,0,1-1.66-2,2.85,2.85,0,0,1,1.65-3,10,10,0,0,1,1.77-.31A3.16,3.16,0,0,1,689.63,608ZM684,585.46a3.94,3.94,0,0,1,2.27-1.26c.79-.18,1.63.88,1.7,1.81,0,.31.12.61.13.92,0,.62,0,1.24,0,1.2a43.52,43.52,0,0,1-.4,4.36,2.87,2.87,0,0,1-1.06,1.35,2.22,2.22,0,0,1-2.51-.57,6.55,6.55,0,0,1-.92-1.58A6.94,6.94,0,0,1,684,585.46Zm-9.12,33.64a13.47,13.47,0,0,1,1.8-.58,20.77,20.77,0,0,1,2.14-.2c.7.11,1.65.23,2.58.43,5.71,1.22,6.79,2.76,5.95,8.64-.59,4.09-1.25,8.17-1.93,12.24a8.67,8.67,0,0,1-.73,1.73c-.27.66-2.1,1-2.52.5a12.61,12.61,0,0,1-1.68-2.26c-2.42-5.18-4.77-10.38-7.11-15.59a8,8,0,0,1-.39-1.85A3.69,3.69,0,0,1,674.92,619.09Zm2,58.62c0,.23-.37.48-.57.72-.28-.09-.71-.1-.79-.28a1,1,0,0,1,.15-.87C676.36,676.63,676.85,676.81,676.9,677.71Zm-3.29-28.85c.43.14.6,1,1,1.73a7.61,7.61,0,0,1-1.37,2.28,32.1,32.1,0,0,1-11.93,5.92c-3.65,1-6.91-.4-9.91-2.43a4.21,4.21,0,0,1-1.24-4.35,7.67,7.67,0,0,1,1.38-2.46,15.83,15.83,0,0,1,7.43-4.18,5.52,5.52,0,0,1,2.83-.21C665.75,646.3,669.7,647.55,673.61,648.87ZM430.81,534.39a20.3,20.3,0,0,1,4-2.58c6.42-2.87,12.76-6,19.37-8.35,22.61-8.11,45.63-14.79,69.33-18.92,6.61-1.15,13.21-2.43,19.84-3.46,3.78-.59,7.61-1.16,11.44-.45.52.1,1,.67,1.4,1.11s-.29,1.77-1.42,2c-.94.18-1.9.28-2.84.45s-1.87.34-2.79.59c-.22.06-.56.55-.5.64.28.47.63,1.2,1,1.25,1.89.23,3.85.07,5.71.42a21.68,21.68,0,0,0,9.47-.41c4.33-1.09,8.75-1.8,13.13-2.7.25-.05.66-.5.61-.6-.21-.46-.47-1.13-.85-1.24-3.39-1-7.05.39-10.38-1.18a1.75,1.75,0,0,1-.71-.63c-.45-.74-.24-1.33.6-1.49,13.9-2.64,28-3,42-2.69,6.39.13,12.78.69,19.13,1.38a85.69,85.69,0,0,1,25.91,6.65c3.58,1.6,6.49,3.76,7.86,7.56-3.09,0-6.15-.14-9.22-.19-1.51,0-2.21.83-2.12,2.48.05,1,.32,1.9.28,2.84a2.51,2.51,0,0,1-.71,1.68,25.14,25.14,0,0,1-16.83,5.63,8.24,8.24,0,0,1-3.57-1.19,9.89,9.89,0,0,0-6.45-1.24,32.64,32.64,0,0,1-10.45,0,19.26,19.26,0,0,0-4.74.32,3.17,3.17,0,0,1-3.7-2.25A6.68,6.68,0,0,0,604,518c-.33-.44-1.06-1-1.44-.9a17.92,17.92,0,0,1-7.46.94c-2.49-.33-5.1.3-7.6,0s-4.79-1.67-7.47-1.07a4.27,4.27,0,0,1-2.73-.63c-7.43-4.28-15.81-4.54-24-5.72a10.08,10.08,0,0,0-4.68.61,44.11,44.11,0,0,1-16,2.3c-1.91,0-3.82.22-5.72.37a8.37,8.37,0,0,0-5.26,2c-2,1.88-5.29,2.42-6.1,5.68-.12.49-.85,1-1.41,1.2-6.18,2.58-11.53,6.79-17.87,9.1a14.3,14.3,0,0,0-5.45,3.73,14.48,14.48,0,0,1-8.13,4.62,10.66,10.66,0,0,0-3.61,1.2c-3.61,2.33-7.68,2.82-11.79,3.21-1.31-2.48.81-3.88,2-5.59a1.51,1.51,0,0,0-1.09-2.17c-2.55,0-5.1-.11-7.65-.1a7.84,7.84,0,0,0-5.34,1.76,21.82,21.82,0,0,1-2.27,1.76c-5.14,3.36-10.42,4.68-16.22,1.48-1.65-.91-3.67-1.12-5.4-1.91a3.7,3.7,0,0,1-1.74-2.07A3.1,3.1,0,0,1,430.81,534.39ZM648.5,618.27c-.26.41-.46,1.07-.82,1.17-.62.17-1-.34-.9-1a1.09,1.09,0,0,1,.45-.66C647.84,617.38,648.28,617.57,648.5,618.27Zm-27.66-13.69c-.49-1.5-1.14-2.94-1.64-4.44a2.06,2.06,0,0,1,2-2.59,26,26,0,0,1,12,5.47,3.15,3.15,0,0,1,0,4.31c-5.31,4.71-11.13,8.49-18.28,9.76-.94.17-1.9.2-2.43.25a11.88,11.88,0,0,1-8.32-2.93c-3.49-3.22-6.73-6.71-10-10.12-.15-.16-.08-.67.05-.92a1.12,1.12,0,0,1,.75-.55c3.27-.18,6.18,1.2,9.2,2.12,3.35,1,6.71,2,10.13,2.71a15.78,15.78,0,0,0,4.71-.23A2.49,2.49,0,0,0,620.84,604.58Zm-67.63-14.17c-.3.41-.94.58-1.42.85-1.09,0-1.87-.78-1.75-1.64a1.6,1.6,0,0,1,2-1.21C552.92,588.62,553.67,589.77,553.21,590.41Zm-86-45.65c-1.4,1.78-3,3.11-5.54,2.49-2.72-.66-5.47-1.16-8.2-1.78-.81-.18-.78-.49,0-.75.29-.09.54-.39.83-.42C458.63,543.91,463,543.25,467.2,544.77ZM421.79,541l.36.55h-.73ZM398.7,616.29q0,.92,0,1.83c-1.21-.62-.08-1.22,0-1.83Zm-.06-.09c-2.05-.33-2.63-2.23-3.7-3.61h0C397.06,612.86,397.6,614.79,398.64,616.2Zm-3.7-3.61c-.34-2.58-1.23-5.16-.13-7.75C395.05,607.41,396.36,610,394.94,612.58Zm-6.06-35.05c0-.2.4-.56.53-.53s.64.33.69.57a40.59,40.59,0,0,1,1.13,6.57c.19,7,1.79,13.75,3.54,20.48-.69-.62-1.79-1.08-2-1.79C390.62,594.54,388.25,586.26,388.88,577.53Zm98.39,287.25a3.12,3.12,0,0,1-1.66-.24c-.14,0-.26-.57-.18-.8a2.15,2.15,0,0,1,2.81-1.61,1,1,0,0,1,.52.66A1.81,1.81,0,0,1,487.27,864.78Zm-.5-58.89a6.75,6.75,0,0,1,1.48,0,16.19,16.19,0,0,1-1.26,1c-.24.17-.78.33-.85.25C485.71,806.57,485.95,806,486.77,805.9ZM520,900.06a2.63,2.63,0,0,1,0-1.64c0-.16.64-.41.75-.32.41.32.94.72,1,1.17a4.66,4.66,0,0,1-.27,1.71C520.91,900.72,520.26,900.51,520,900.06Zm5.23.17c-1.2.37-2.46.53-3.7.78h0c1-.71,2-1.43,3.05-2.09a1,1,0,0,1,.89,0C526.09,899.35,526,900,525.21,900.23ZM529.3,908c-.39.34-1.11.32-1.69.45-.28-.45-.86-1-.76-1.33.27-1,1.19-1.28,2.17-1.14.26,0,.69.32.68.47C529.66,907,529.64,907.71,529.3,908Zm11.51-.64a2.26,2.26,0,0,1-1.39-1,1.75,1.75,0,0,1,.69-2.34c1.16-.69,2.8-.5,3.21.41a2.82,2.82,0,0,1,.09.88A2.6,2.6,0,0,1,540.8,907.38Zm9.48,3.72c-.25,0-.64-.11-.72-.28-.28-.61,0-1,.8-1a3.49,3.49,0,0,1,1.6.21C552.52,910.29,551.53,911.05,550.29,911.1Zm17.48,8.9c-.48-.16-.94-.37-1.4-.57a6.78,6.78,0,0,1,.32-.67c.48.17.94.39,1.41.61A4.14,4.14,0,0,1,567.76,920Zm53,9.1c-.42-.31-1-1-.89-1.34a40.25,40.25,0,0,1,1.63-3.95c.42,1.37.91,2.72,1.23,4.11C622.91,928.63,621.38,929.54,620.78,929.1Zm38-4.49c-.11.25-.45.4-.69.6-.24-.14-.66-.27-.67-.43a1.08,1.08,0,0,1,.38-.8c.21-.17.56-.14.85-.2C658.68,924.05,658.85,924.38,658.75,924.61Zm1.41,73c-.59-.67-.39-1.1.5-1.12.08,0,.18.5.27.77C660.67,997.42,660.22,997.71,660.16,997.64Zm18.24-76.77L677.2,920c.35-.4.65-1,1.08-1.14s.78.54,1.18.85Zm2.81-9.11a1,1,0,0,1-.58-.69c-.5-4,1.28-6.48,4.95-7.67a15.83,15.83,0,0,1-3.51,8.2A.94.94,0,0,1,681.22,911.76ZM687,921.88c-.66.42-1.12.51-1.4,0,0-.09.29-.46.51-.58a1.66,1.66,0,0,1,.88-.17c.55.05,1.09.17,1.64.27A6.29,6.29,0,0,0,687,921.88Zm1.75-.6c-.51-2-1-4.15.17-6.19.26-.44.89-.65,1.35-1a6.54,6.54,0,0,1,.83,1.52C691.65,918.08,690.33,919.75,688.73,921.28Zm3.73-16.81c-.25.78-.57,1.53-.88,2.29a2.19,2.19,0,0,1-.87-2.3,1,1,0,0,1,1.4-.75A.86.86,0,0,1,692.46,904.47Zm5.17-12a2.4,2.4,0,0,1-1.07,1.46,26.89,26.89,0,0,0-5.72,5,33.36,33.36,0,0,1-4.81,3.8q.86-3.38,1.73-6.75c2.17-1.71,4.3-3.49,6.58-5a3.69,3.69,0,0,1,2.65,0C697.34,891,697.71,892,697.63,892.51Zm8.48,9c-.18.7-1.86,1.26-2.31.77a3,3,0,0,1-.83-1.57,5.79,5.79,0,0,1,2-4.94,2.64,2.64,0,0,1,1.59-.36c.16,0,.34.46.73,1C706.94,898,706.57,899.74,706.12,901.5Zm6.57-.68c-.17.21-.51.48-.72.44-.66-.14-.83-.66-.63-1.39s.67-1,1.32-.64a1,1,0,0,1,.34.76A1.38,1.38,0,0,1,712.69,900.83Zm4,14.81c-.26,0-.65.17-.76.05-.5-.55-.35-1,.36-1.2a.77.77,0,0,1,.65.39C717,915.09,716.82,915.38,716.73,915.64Zm8.36,73.57c-.44.38-1,1.27-1.8,1.49a5.24,5.24,0,0,1-5.23-1.37,1.64,1.64,0,0,1,.18-1.56,21.21,21.21,0,0,1,4.24-1.92C724,985.37,725.55,987.15,725.09,989.21Zm7.87-3.89c-.13.23-.49.34-.74.51-.29-.06-.67,0-.84-.19a1.75,1.75,0,0,1-.18-2.46,1.59,1.59,0,0,1,1.53-.31A1.78,1.78,0,0,1,733,985.32Zm-.56-83.65c.08-.21.11-.49.27-.61s.38.11.58.17l-.24.63ZM706.17,580.58a2.11,2.11,0,0,1,1.06-1.24c.71-.34,1.44.54,1.49,1.68s-.67,2-1.43,1.68A1.78,1.78,0,0,1,706.17,580.58Zm15,260.68c3.91-1.45,7.53-.77,11.08,1.06a3.41,3.41,0,0,1,1.78,3.14c-1.5,6.44-4,12.16-10.63,15l0-.07a4.91,4.91,0,0,1-1,5.32,16.65,16.65,0,0,1-3.63,3,3.27,3.27,0,0,0-1.87,3.87,5.89,5.89,0,0,1-1.53,5.31,39.29,39.29,0,0,1-4.89,4.49,3,3,0,0,1-2.64,0,3.27,3.27,0,0,1-1.6-2.15c-.19-1.55.15-3.16.12-4.75a29.2,29.2,0,0,0-.48-3.76c-.13-.86-1.46-1.94-2-1.61a3.29,3.29,0,0,0-1.32,1.26,7.76,7.76,0,0,0-.68,2.75c-.07,1.9.1,3.81.06,5.71a4,4,0,0,1-1.95,3.11,2.46,2.46,0,0,1-.83.46c-6.7,1.51-9.51,6.56-11.46,12.39-3.17,0-5.7,2.68-9.05,2.17-.6-.09-1.6,1-2.09,1.76a39.64,39.64,0,0,0-2.73,5.05c-1.7,3.76-4,6.48-8.66,6.11a11.23,11.23,0,0,0-2.83.44,5.72,5.72,0,0,0-4,2.41c-2.22,3.6-5.61,6.1-8.36,9.19-.54.61-1.09.7-1.52.18a1.06,1.06,0,0,1-.17-.86c1.79-5.22,4.93-9.61,8.5-13.74a1.26,1.26,0,0,0,.13-.89c-.52-.2-1.33-.6-1.6-.38-2,1.59-3.9,3.28-5.78,5a21,21,0,0,0-1.87,2.18c-.61.74-1.05,1.84-1.83,2.17-5.17,2.25-8,7.22-12.43,10.33a3.28,3.28,0,0,1-1.76.64,2.87,2.87,0,0,1-1.5-.76c-.12-.1,0-.65.12-.89.54-.79,1.21-1.49,1.73-2.28a1.72,1.72,0,0,0-.91-2.39c-1.85-.49-3.7-1-5.57-1.41-2.44-.52-3.34.39-4,3.82-3.08,1.41-6.11,3.31-9.41,4.18-4.19,1.11-6.87,3-7.5,7.5A4.32,4.32,0,0,1,603,937.6a2,2,0,0,1-1.76.18c-1.84-.95-2.56-2.78-3.09-4.62-.59-2,.2-3.63,1.56-5.21,1.17-1.35.82-2.37-.6-2.94a25.61,25.61,0,0,1-2.72-.91,15.87,15.87,0,0,1-3.11-2.15c-1.79-1.61-2.69-3.53-1.62-6a10.75,10.75,0,0,0,.9-2.7,3,3,0,0,0-.62-1.63.88.88,0,0,0-.83,0c-2.7,3.21-6.78,3.16-10.3,4.45-2.11.77-3.65.45-4.92-1.47s-3-1.93-5.06-1.44c-2.42.56-2.82.31-3-2.23a9.17,9.17,0,0,0-3.33-6.61c-1.28-1.11-2.81-1.83-4.39-1.17-3.63,1.53-6.86.7-10-1.25-3.77-2.34-8.28-3.29-11.65-6.46-1.43-1.35-3.59-1.26-5.5-1.12a6.56,6.56,0,0,1-5.79-2.66,3.18,3.18,0,0,0-3.53-.78c-1.51.48-2.92,1.32-4.44,1.7a5.17,5.17,0,0,1-2.76-.36,2.13,2.13,0,0,1-1.21-1.31,1.88,1.88,0,0,1,.59-1.62,18.09,18.09,0,0,1,2.62-1.06,1.86,1.86,0,0,0,.2-3.09,7.78,7.78,0,0,0-2.49-1.22c-3.43-.7-6.89-1.28-10.35-1.86a8.61,8.61,0,0,1-6-4.41c-1-1.59-.62-3,1.13-3.95.56-.31,1.35-.42,1.66-.88a4.55,4.55,0,0,0,.89-2.49,5.19,5.19,0,0,0-1-2.65c-2.45-3.44-3.29-7.59-5.07-11.31-.31-.66.22-1.79.53-2.65.43-1.16-.06-1.7-1.08-2a13.89,13.89,0,0,1-1.83-.56,3,3,0,0,1-1.22-4.73,20.5,20.5,0,0,1,2.37-3c2.54-2.4,5.21-4.68,7.79-7,2.34-2.15,4.72-4.28,6.91-6.57a7.24,7.24,0,0,0-.14-9.6,27.54,27.54,0,0,0-3.73-2.94c-2.52-1.87-2.54-1.94.48-4.74.74-.68,1.42-1.5.89-2.4a5.85,5.85,0,0,0-2.13-1.78,3.49,3.49,0,0,0-1.84-.45,37.07,37.07,0,0,1-12.18-1.95,15.54,15.54,0,0,0-3.76-.2c-1-1.14-1.92-2.31-2.93-3.45a10.15,10.15,0,0,0-7.45-3.81c-3.55-.14-5.83-2.17-7.31-5.35a24.15,24.15,0,0,0-2.64-4,3.09,3.09,0,0,0-3.53-.54c-1,.77-1.88,1.73-2.89,2.48a18.18,18.18,0,0,1-2.48,1.39c-.77.4-2.34-.09-2.48-.86a2.62,2.62,0,0,1,.15-1.81c.75-1,1.77-1.81,2.6-2.76a2.69,2.69,0,0,0-.33-3.46,17.63,17.63,0,0,0-3.29-1.87c-3.66-1.4-7.53-1.46-11.36-1.3-2.86.12-5.65.68-8.45-.69-1-.5-2.53-.26-3.78-.09-3.41.47-6.26-.75-9-2.62a30.15,30.15,0,0,1-3.18-2.14c-2.45-2.22-4.92-2.91-7.69-.6a2.82,2.82,0,0,1-.87.39,3.7,3.7,0,0,1-4.31-1.22,59,59,0,0,1-3.36-5.75c-.58-1.12-.78-2.44-1.35-3.56a2,2,0,0,0-1.49-1,6,6,0,0,1-5-2.22c-2.45-2.52-5.19-4.73-6.18-8.37a6.67,6.67,0,0,0-2-3.21c-2.79-2.32-3.21-5.45-3.23-8.67,0-4.14.2-8.29.43-12.42a3.94,3.94,0,0,1,2-3.08,7.88,7.88,0,0,1,1.68-.91c3.9-1.26,6.8-3.4,7.56-7.78a4.15,4.15,0,0,1,1.65-2.27c3.13-2.29,6.35-4.32,10.57-3.46a21.68,21.68,0,0,0,10.45-.3c3.24-.93,5.53.45,7.42,3,2.3,3.07,4.6,6.15,7.05,9.1,3.07,3.68,6.34,7.19,9.44,10.85,5.07,6,11.66,9.89,18.41,13.57A50.07,50.07,0,0,0,476,751.71c11.4,2.23,22.91,2.18,34.41,1.18,8-.69,15.88-1.79,23.79-2.91a376.8,376.8,0,0,0,39.54-7.47c4-1,8.12-1.76,12.11-2.88,1-.28,1.79-1.34,2.66-2.14-17.86,4.51-36,7.46-54.26,9.91a232.63,232.63,0,0,1-43.07,2.05,92.46,92.46,0,0,1-21.76-3.33,38.72,38.72,0,0,1-15-8.23,93.31,93.31,0,0,1-15.22-17.21c-4.51-6.62-8.52-13.53-12.4-20.53-1.71-3.07-3.75-6-5.2-9.15-4-8.73-7.85-17.5-11.48-26.37-4.12-10.06-7.94-20.24-11.83-30.39a10.41,10.41,0,0,1-.68-3.74,6,6,0,0,1,1-2.58c.47-.84,2.07-1,2.49-.25a17.49,17.49,0,0,1,1.85,3.3c5.71,17.72,13.83,34.42,21.74,51.19,3,6.33,7,12.19,10.59,18.23a14.16,14.16,0,0,0,1.84,2.21,4.74,4.74,0,0,0,4.29,1.67,36.86,36.86,0,0,1,11.47.05,10.37,10.37,0,0,0,5.62-.77c1.77-.72,3.58-1.37,5.41-1.92a20.28,20.28,0,0,0,10.86-7.47,28.94,28.94,0,0,1,4.12-3.94,2.78,2.78,0,0,0,.91-3.4c-.49-1.18-1.07-2.32-1.52-3.52a3,3,0,0,1,1.46-4c.59-.23,1.19-.46,1.8-.65,13.22-4.13,25.26-10.76,37.23-17.53a15.89,15.89,0,0,0,3-2.41c1.56-1.48.85-4.85-1.15-5.73-.29-.13-.56-.4-.85-.42-5.51-.39-8.74-3-9.56-8.75-.33-2.3-2.5-3.75-4.93-3.94a18.09,18.09,0,0,1-11.77-5.77,48.12,48.12,0,0,0-5.32-4c-.65-.5-.48-2,.18-2.59a29.56,29.56,0,0,1,10.07-5.42,11.28,11.28,0,0,0,5.9-4.65c1.24-1.86,2.55-3.68,3.9-5.47a49.66,49.66,0,0,1,11.55-11.42c2.22-1.52,4.48-2,7.11-.38A65.78,65.78,0,0,1,537,607.3c4.4,4.07,9.6,4.91,15.18,3a30.27,30.27,0,0,1,10.22-2.19c1.85,0,3.69-1,5.56-1.37a42.83,42.83,0,0,1,6.6-1.16c7-.39,12.41,2.34,15.62,8.83,2.13,4.3,4.29,8.58,6.46,12.86a24.13,24.13,0,0,0,1.45,2.47c1,1.44,3.72,2.47,5.1,1.57,3.39-2.23,7-2.68,11-2.5a70.24,70.24,0,0,0,8.6-.6,25.19,25.19,0,0,1,4.77-.33A14.71,14.71,0,0,1,632,629.3a3.5,3.5,0,0,1-.18,6.19c-1.82.58-3.73,1-5.49,1.67a9.64,9.64,0,0,0-3.13,2.13,4.4,4.4,0,0,0-1.21,4.4,5.69,5.69,0,0,0,.65,1.79A21.08,21.08,0,0,1,626.71,659a16.93,16.93,0,0,0,1.75,7.42,25.82,25.82,0,0,1,1.59,3.49c1.85,7.1,4.33,14,6.76,20.9,1.14,3.25.94,6.95,1.52,10.41.41,2.51,1,5,1.68,7.45.42,1.56,2.51,2.62,3.8,2,8.92-4.41,17.67-9,23.42-17.69,1.58-2.38,3.37-4.64,5.1-6.93a.9.9,0,0,1,.84-.07,1,1,0,0,1,.5.74,6.91,6.91,0,0,1-.37,2.8,67.52,67.52,0,0,1-24.2,25.36,73.65,73.65,0,0,1-11.88,6.22c-4.75,1.88-9.41,4-14.06,6.14a6.14,6.14,0,0,0-1.74,1.77c6.32-.5,12.12-3,18.09-4.8,1.22-.37,2.38-.92,3.58-1.36,1-.37,2.26.37,2,1.2a34.18,34.18,0,0,0-1.45,13.24,13.41,13.41,0,0,1-.29,3.81c-2.94,12.77-5,25.72-8,38.47-.51,2.17-1.32,4.27-2,6.41-3,9.48-5.47,19.1-6,29-.48,9.17,1.5,17.76,7.87,24.9,2,2.22,4.22,4.06,7.09,4.67a49.63,49.63,0,0,1,14.11,5.81,24.85,24.85,0,0,0,10,3c5.75.54,11.48.69,17.16-.75,3.72-.94,7.5-1.61,11.24-2.46a50.81,50.81,0,0,0,5.56-1.48C707.36,846.26,714.28,843.81,721.17,841.26Zm14.19-329.1c-4.18,5-6.7,10.77-8.6,16.92a5.81,5.81,0,0,1-3.73,4.14c-6.8,1.89-13.08,5.07-19.63,7.59a13.31,13.31,0,0,1-2.73.46c-.65-.3-1.37-.43-1.73-.86s-.66-1.34-.44-1.69a59.27,59.27,0,0,0,5.84-13,3.45,3.45,0,0,1,3-2.13c1.58-.23,3.18-.29,4.76-.53a20.27,20.27,0,0,0,3.72-.84c2.83-1,5.2-2.51,5.59-5.87a3.91,3.91,0,0,1,1.73-3.27c3.4-1.75,6.88-3.43,10.89-2.9.5.07,1,.66,1.35,1.1A.93.93,0,0,1,735.36,512.16ZM850.1,431.81c.08,0,.49.39.46.43-.53.85-1.18.68-1.84.32A14.07,14.07,0,0,1,850.1,431.81Zm-3.12,33a9.27,9.27,0,0,1,6.82-.29C851.54,464.72,849.28,465.28,847,464.84Zm14.26,63A3.17,3.17,0,0,1,858,530.6a3.76,3.76,0,0,1-3.37-4.73,3.09,3.09,0,0,1,3.62-2.28A3.89,3.89,0,0,1,861.25,527.82Zm126.25-63.31a2.65,2.65,0,0,1-2.85,1.68c-.2-.2-.48-.38-.6-.63a1.59,1.59,0,0,1,.89-2.2,1.85,1.85,0,0,1,2.4.31A1,1,0,0,1,987.49,464.51Zm1.31-9.51a4.35,4.35,0,0,1-2.38-2.6,2.21,2.21,0,0,1,.31-2.52,1.89,1.89,0,0,1,2.45.28c1,1.47,2,3,3,4.49C991.13,454.88,990.06,455.55,988.81,455Zm3.41-.3c.26,1.16.45,2.33.8,3.46.68,2.21,1.43,4.4,2.16,6.6C991.27,462.29,990.63,458.84,992.21,454.7Zm3.06,11.15a1.85,1.85,0,0,1,0-.52l.26,1.26A2.57,2.57,0,0,1,995.27,465.84Zm9.6-7.69a1.08,1.08,0,0,1-.71-.57c-4.08-8.83-9.6-16.53-17.5-22.37a1.35,1.35,0,0,0-.91-.14,1,1,0,0,0-.92,1.29c.44,1.53,1,3,1.5,4.54a4.51,4.51,0,0,1-1.39,5.17c-1.16,1.1-2.38,2.14-3.51,3.26a3.11,3.11,0,0,0-.71,3.52c.67,1.77,1.44,3.5,2.11,5.26a.89.89,0,0,1-.31.81,2.65,2.65,0,0,1-1.64.26c-.54-.21-.89-.88-1.38-1.28-2.19-1.79-3.28-1.93-5.06-.63-1.55,1.12-3,2.3-4.61,3.39a3.14,3.14,0,0,1-3.5-.67c-.8-1.38-1.61-2.76-2.28-4.2-3.76-8.13-7.46-16.28-11.21-24.41a13.8,13.8,0,0,0-1.86-3.33,6.34,6.34,0,0,0-3-2.17,26.87,26.87,0,0,0-13.26.39,2.92,2.92,0,0,0-1.75,3.07c.65,1.8,1.31,3.59,2.09,5.34,5.43,12.28,10.61,24.67,15.36,37.24A5.22,5.22,0,0,1,949.1,478c-3.71,3.52-7.31,7.17-11.22,10.47a239,239,0,0,0-18.25,16.92,30.78,30.78,0,0,1-4.54,3.46c-1.56,1.11-3.23,2.07-4.76,3.22a4.34,4.34,0,0,0-2,4.11c.69,5.44,0,10.86-.36,16.27a12.68,12.68,0,0,1-.75,2.73,2.57,2.57,0,0,1-2.38,1.27,7.46,7.46,0,0,1-5.25-3.8c-1-2-1.92-4-2.86-6.07-.4-.86-.54-2.12-1.22-2.53-3.65-2.24-1.91-4.61-.43-7.09,1-1.61.82-2-.77-2.94-.27-.16-.6-.22-.88-.38-.55-.32-1.09-.66-1.6-1-1.28-.94-1.09-2.25.49-2.89.59-.24,1.24-.32,1.83-.55a1,1,0,0,0,.59-.6c0-.2-.18-.66-.33-.68-2.19-.26-4.4-.4-6.58-.75a1.79,1.79,0,0,1-1-1.43,45.07,45.07,0,0,1,1-4.59,6.37,6.37,0,0,1-5.42,1,18.37,18.37,0,0,1-4.53-1.51A87.13,87.13,0,0,0,861.62,495a18.79,18.79,0,0,1-4.25-2.07,2.31,2.31,0,0,1-.25-3.36c1.48-1.14,3.62-1.41,4.42-3.45.93-2.36,2.79-2.23,4.8-1.74,2.48.61,4.95,1.3,7.46,1.72,1.89.32,4,.42,5.59-.71a9.31,9.31,0,0,1,8.19-1.26,19.36,19.36,0,0,0,5.72.32c3.47-.19,6.1-1.73,7.25-5.25.39-1.21.89-2.38,1.26-3.59a4.22,4.22,0,0,0-1.55-3.34c-.88-.37-1.78-.68-2.68-1-2.1-.78-4.6-1.08-6.2-2.44-3.33-2.83-7.44-3.41-11.19-5-5.33-2.3-10.6-1.86-16-1.1-3.45.49-6.86,1.21-10.29,1.83,0-2,1.71-3.31,2.38-5.06a1.86,1.86,0,0,0-1.87-2.62c-3.5.27-7,.63-10.28-1.16a2.74,2.74,0,0,0-2.6.58c-1.82,2.83-5.21,3.51-7.43,5.78a18.35,18.35,0,0,1-12.83,5.69,24.55,24.55,0,0,0-9.2,2.42,25.15,25.15,0,0,0-10.31,8.25c-2.65,3.6-5.5,7-7.58,11a.91.91,0,0,1-.85.18,1,1,0,0,1-.46-.76c.79-7,4.4-12.61,8.92-17.68a67.82,67.82,0,0,1,11.32-10.33A152.51,152.51,0,0,1,840.52,445c15.87-6.9,32.13-12.64,49.11-16.2,6.88-1.44,13.81-2.52,20.77-3.53,16.56-2.42,33.14-2.24,49.76-1.28,7.06.41,13.9,2.08,20.68,4a49.38,49.38,0,0,1,6.23,2.47,26.13,26.13,0,0,1,11.52,9.81,44.92,44.92,0,0,1,7.08,16.66C1005.82,457.73,1005.52,458.21,1004.87,458.15Zm-138.18,8.15a7.15,7.15,0,0,1,1.2-1.33,1.49,1.49,0,0,1,.86-.33,1.13,1.13,0,0,1,.81.27c.17.18.15.54.22.82a3.52,3.52,0,0,1-.42.82c-.81.9-1.78,1.12-2.41.52C866.76,466.91,866.59,466.45,866.69,466.31Zm7.53,13.15c.06-.49.67-.95,1.11-1.33.21-.18.59-.15.9-.22a5.89,5.89,0,0,1,1.83.26,2.8,2.8,0,0,1,1.2,1.28c.34.73-.57,1.89-1.57,1.92a6.71,6.71,0,0,1-2.7-.42A1.76,1.76,0,0,1,874.22,479.45Zm10-6.09a3,3,0,0,1,.88-1.45,5.39,5.39,0,0,1,1.78-.46c.61,0,1.24,0,1.86.1,2.34.3,3.3,1.17,3.79,3.44a16,16,0,0,1,.26,1.85c.14,1.46-.71,2.71-1.93,2.7a1.62,1.62,0,0,1-1.74-1.73,2.11,2.11,0,0,0-2.14-2.44,7.23,7.23,0,0,1-2.44-1.18A.92.92,0,0,1,884.22,473.37Z"/></g></g></svg>