<svg id="Layer_1" data-name="Layer 1" xmlns="http://www.w3.org/2000/svg" viewBox="0 0 1082.14 1335.71"><defs><style>.cls-1{fill:#181818;}</style></defs><title>Face-v2</title><path class="cls-1" d="M38.51,476.15A53.59,53.59,0,0,1,39,502.71c-.07.31-.12.63-.17.94-1.07,8,2.42,12.6,10.69,14a4.84,4.84,0,0,0,2.79-.4c3.55-1.79,6.28-4.33,7.25-8.41.73-3.09,1.18-6.3,3.11-9a1,1,0,0,1,.89-.22c.27.06.69.37.68.57A12.29,12.29,0,0,1,64,503c-.62,2.47-1.39,4.91-2,7.39-.11.47.38,1.18.77,1.63a2,2,0,0,0,2.56-.37c1.19-1.88,2.3-3.8,3.5-5.67a37.55,37.55,0,0,1,2.23-3.09,3.76,3.76,0,0,1,3.53-.89A111.66,111.66,0,0,1,93.2,513.71a26.83,26.83,0,0,1,4.54,4.89,2.7,2.7,0,0,1,0,2.59c-4.4,3.71-6.38,8.71-7.7,14-2.83,11.48-5.52,23-8.29,34.49-.62,2.56-.14,5.08.07,7.63a7.1,7.1,0,0,1-2.06,6.15c-2.53,2.29-3.6,5.24-4.19,8.42-1.51,8.16-3.7,16.21-4.15,24.55a24.59,24.59,0,0,1-.72,4.73A34.84,34.84,0,0,0,70,634.52a42.45,42.45,0,0,1,.18,6.68c-.09,3.36,1.77,5.3,4.51,6.7a2.85,2.85,0,0,0,3.91-1.55,20.86,20.86,0,0,0,1.52-8.43c0-1.59-.24-3.38.39-4.73,2.75-5.92,3.05-12.38,4.5-18.58S88,602.18,89.5,596c4.62-19.28,10.1-38.32,16.09-57.21a45.47,45.47,0,0,1,2.52-6.19,4.48,4.48,0,0,1,5.76-2,29.38,29.38,0,0,1,5,2.72c3.12,2.23,6.19,4.55,9.11,7,11.45,9.73,22.81,19.56,34.24,29.3a7.4,7.4,0,0,1,2.78,5.82c.08,4.48.11,9,.35,13.42a8.46,8.46,0,0,0,1.3,3.46c.2.35,1.17.47,1.71.35a2.66,2.66,0,0,0,1.52-1c1.9-3,3.76-5.93,5.53-9a4.06,4.06,0,0,0-.11-3.67,1.65,1.65,0,0,1,1-2.32c4.06-.75,8-2.21,12.16-2.43a32.83,32.83,0,0,1,9.52.38,38.3,38.3,0,0,0,6.65.54c.24,0,.5-.27.75-.42-.31-.48-.58-1-.92-1.42-1.14-1.46-1.18-2.45-.18-3.18,2.86-2.07,5.78-2.6,8.87-.53a10,10,0,0,0,2.34,1.62,3.23,3.23,0,0,0,2.63-.25,28.25,28.25,0,0,0,4.4-5c1.95-2.92,3.52-6.08,5.41-9a4,4,0,0,1,4.2-1.77c4,.87,8,1.93,12,3a3.85,3.85,0,0,1,2.31,1.57c1.48,3.1,4.8,4.16,6.89,6.56s4.44,4.6,6.56,7c1.69,1.9,3.23,3.94,4.79,6,1.22,1.59,2.34,2.37,2.93,1.81A6.47,6.47,0,0,0,269.4,579a42.53,42.53,0,0,0,1.53-5.53,1.82,1.82,0,0,0-1.22-2.31c-3.33-.76-5.64-3-7.79-5.34-5.69-6.23-12.72-10.5-20-14.5-7-3.82-13.86-7.88-21.31-10.83a8.31,8.31,0,0,1-2.81-2.47c-.29-.33-.11-1.14,0-1.7a1,1,0,0,1,.74-.53,11.59,11.59,0,0,1,3.77.11c2.73.9,5.34,2.12,8,3.18a32,32,0,0,0,8.19,2.42c7.67.9,13.56,5.49,18.45,11.07,3,3.44,6,6.61,10.34,8.23a14.13,14.13,0,0,1,3.15,2.13c4.1,3,4.39,2.92,6.58-2,1.16-2.63,2.3-5.27,3.51-7.87a3.12,3.12,0,0,1,1.27-1.37,3.35,3.35,0,0,1,1.77-.17c.22,0,.46.44.59.72a4.59,4.59,0,0,1,0,3.7c-6.3,15.67-13,31.16-21.7,45.69,1.57.26,2.9-.57,4.31-1a8,8,0,0,1,4.06-5.92l-.25.08c1.7-4.9,3.64-9.65,7.69-13.15a8,8,0,0,1,2.13-4.22l-.28.12c1.25-5.44,4.46-9.84,7.59-14.27a3.05,3.05,0,0,1,3.45-.94,24.54,24.54,0,0,1,3.33,1.86,11.2,11.2,0,0,0,7.09,2.53c3.33-.14,5.34,1.71,7,4.27a17.87,17.87,0,0,0,1.09,1.57c.55.69,2.15.81,2.59.12,2.75-4.27,7.09-7.31,9.26-12a5.91,5.91,0,0,1,3.61-3c4-1.42,8,2.19,8.39,5.67a6,6,0,0,1-1.51,4.43c-2.41,3-4.86,5.92-7.26,8.91a1.06,1.06,0,0,0,0,.93,1.14,1.14,0,0,0,1.65.53c2-.94,4-1.95,6.07-2.85s4.14-1.7,6.21-2.53a9.41,9.41,0,0,1,7.47.26A38.55,38.55,0,0,1,352,576a58.53,58.53,0,0,1,12,11,9.32,9.32,0,0,1,1.42,2.49A4.32,4.32,0,0,1,365,594a53.84,53.84,0,0,1-5.8,6.37,13.91,13.91,0,0,0-4.5,7.18A49.37,49.37,0,0,1,349.88,620a15.22,15.22,0,0,0-1,2.7,8,8,0,0,0,.69,7.35,28.44,28.44,0,0,1,2,3.26,4.12,4.12,0,0,1,0,3.7,18.84,18.84,0,0,1-1.47,2.47,13.83,13.83,0,0,0-2.41,7.18,50.17,50.17,0,0,1-.73,5.69,3.51,3.51,0,0,1-2.48,2.67,14,14,0,0,1-2.8.64,15.92,15.92,0,0,0-9.28,4.5c-3.7,3.51-8.18,6.22-11.64,9.92-2.66,2.85-5.2,5.49-8.81,7.07a7.84,7.84,0,0,0-4.37,4.85,14.22,14.22,0,0,1-1.37,3.57A20.41,20.41,0,0,1,302,690.7c-3.64,2.68-8.26,3.28-12.35,5.08-1.65.72-3.77.45-5.67.47a31.75,31.75,0,0,1-3.81-.41,7.25,7.25,0,0,0-4.59,1c-5,2.92-9.87,5.9-14.86,8.76a21.05,21.05,0,0,0-5.78,4.95c-3.88,4.67-7.61,9.52-11.92,13.77-3.84,3.79-8.35,6.9-12.62,10.24-1.25,1-2.71,1.68-4,2.57a16.37,16.37,0,0,1-10.87,2.92c-2.85-.26-5.74-.06-8.61-.16a9.51,9.51,0,0,0-4.58,1.15c-4.46,2.17-6.43,5.76-6.35,10.58a14.53,14.53,0,0,1-7.09-4.22c-1.59-1.57-3.11-3.2-4.74-4.72a4.47,4.47,0,0,0-6.74.64c-3.8,5.66-6.84,11.56-4.48,18.75a14.39,14.39,0,0,0,3.28,5.76c1.34,1.37,2.74,2.67,4.1,4a11.2,11.2,0,0,0,7.7,3.38c5.43.21,10.81.66,16,2.44a13.83,13.83,0,0,0,9.39-.39c.9-.33,1.73-.83,2.62-1.16a3.7,3.7,0,0,1,4.28,1.25c1.45,1.69,2.74,3.51,4.08,5.29a37,37,0,0,0,3.44,4.56c5,4.87,10.11,9.73,15.38,14.35,4.3,3.77,8.92,7.18,13.36,10.79a8.07,8.07,0,0,1,1.89,2.13c.46.79,1.08,1.92.82,2.62-1.13,3.13-.62,5.5,2.24,7.42a3.11,3.11,0,0,1,.89,2.58c-.44,2.75-1.14,5.46-1.74,8.17a3.72,3.72,0,0,1-3.37-1c-.59-.56-1.44-.46-1.52.28-.46,4.28-3.23,7.58-4.7,11.43a6.18,6.18,0,0,0,.24,5.49c.61,1.12,1.25,2.22,1.83,3.36a4.06,4.06,0,0,1,.09,3.69c-1.84,4-.08,6.68,3.17,8.84.2.13.41.25.63.37.15,5.39-.09,10.8,1.9,16,.89,2.32-.22,5.17,1.55,7.36a1.19,1.19,0,0,0,.85.31c.27,0,.73-.15.79-.33.39-1.18.68-2.39,1-3.58s.66-2.43,1-3.62a2,2,0,0,1,2.45-.89c.84.45,1.64,1,2.5,1.4a3.82,3.82,0,0,1,2.44,4.65c-.41,2.19-1,4.35-1.54,6.52a9.21,9.21,0,0,0,.62,6.51,57.06,57.06,0,0,1,2.64,7.16c.44,1.34,1.13,2.38,2.63,2.16,2.59-.38,4.31,1.06,5.82,2.71a16.05,16.05,0,0,1,2.54,4c1.32,2.8,3.83,4.22,6.29,5.69,1.52.91,3.1.08,4.66-.08a4.67,4.67,0,0,1,5.46,4.11,7.46,7.46,0,0,1,.09,1.91,5.49,5.49,0,0,0,2.12,5.07,4.16,4.16,0,0,1,1.71,3.28,4,4,0,0,1-.83,2.58,2.9,2.9,0,0,1-2.52.73c-2.92-1.35-5.77-2.71-9.12-2a1.66,1.66,0,0,1-.95-.08c-5-2.18-10.37-3.46-14.66-6.94a44.65,44.65,0,0,0-7.12-4.84c-2.92-1.55-5.86-2.51-9.15-1a2.92,2.92,0,0,1-3.53-.68c-2.8-3.4-7.26-3.9-10.66-6.26-.93-.64-2.46-.61-3.71-.57-3.51.11-7.05.77-10.51-.12s-7.09.42-10.35-1.4c-5.1.14-10.31-.32-15.27.59A17.67,17.67,0,0,0,192.9,928c-1.57,3.25-2.91,6.31-2.17,10,.36,1.84,0,3.81.12,5.71a5.5,5.5,0,0,0,2.88,4.72c3.37,1.79,6.78,3.78,10.42,4.7,6.16,1.56,12.44,2.91,18.85,3a24.48,24.48,0,0,1,8.46,1.43,17.13,17.13,0,0,0,2.77.76c11.38,2.16,22.08,6.34,32.66,10.87a22,22,0,0,1,3.33,1.84,4.13,4.13,0,0,1,.45,6,44.93,44.93,0,0,1-4.44,3.62,12,12,0,0,0-5.31,7.66c-.39,2-2,2-3.75,1.81s-2.23.66-1.57,2.28c1.08,2.66,2,5.42,3.33,8,1.62,3.09,1.89,6,.22,9.12a22.84,22.84,0,0,0-1.51,3.52,7.34,7.34,0,0,0-.07,1.88c0,.9.2,2.08-.27,2.63s-1.7.59-2.59.88a1.69,1.69,0,0,0-.83.41,1,1,0,0,0,.34,1.6c.82.5,1.72.84,2.53,1.35,3.33,2.11,3.38,3.45,2.33,6.38a13.94,13.94,0,0,0-.52,1.83c-.21,1,.48,2.25,1.27,2.22a2.5,2.5,0,0,0,1.69-.52c.8-1,1.36-2.14,2.07-3.19.88-1.3,1.85-1.56,3.1-.43s2.53,1.87,4.06.45c.47-.43.92-.89,1.4-1.31,3.15-2.74,6.85-1.13,8.55.85a24.64,24.64,0,0,1,1.92,3.29c.87,1.42,1.23,1.46,3.09.44.28-.15.47-.46.75-.6a2.24,2.24,0,0,1,3.16,1c.94,2.55,1.24,5-1.14,7a11,11,0,0,0-1.76,2.22,1,1,0,0,0,.07.88c.13.24.47.53.69.51,3.18-.19,6.35-.48,9.53-.66a13.89,13.89,0,0,0,8.74-3.45,25,25,0,0,1,3.11-2.24c2.39-1.53,5.11-.07,5.6,3,.43,2.64-.75,4.13-3.48,4.36s-3.49.81-3.72,3.19-.42,5-.62,7.53c2-.75,4.09-1.45,6.1-2.27a5.53,5.53,0,0,1,3.74,0c.59.16,1.49.36,1.84.07,3-2.52,6.64-3.72,10.17-5.19a3.27,3.27,0,0,0,2-3c0-2.22-.17-4.44-.11-6.66,0-.41.81-1.11,1.27-1.14a6.73,6.73,0,0,1,2.79.47,9,9,0,0,0,9.07-1,16.52,16.52,0,0,1,5.15-2.48,14,14,0,0,0,8.57-5.68,22.35,22.35,0,0,1,2.62-2.79c2-2,4.22-2.82,6.94-1.63,1.46.64,2.95,1.23,4.4,1.91a19.88,19.88,0,0,0,14,1.44c4.82-1.36,9.48-.33,14.18.36a8.16,8.16,0,0,1,5,2.63c2.33,2.6,5.3,4.62,6.92,7.88.49,1,1.62.66,2.49.16a6.72,6.72,0,0,1,.82-.5c1.55-.61,2.7-.3,3.38.71a13.13,13.13,0,0,1,2.35,6.2,19.71,19.71,0,0,0,1.83,7.39c.87,1.7,1.6,3.47,2.39,5.21-.66,5.12,1.66,10.1.7,15.22a1.86,1.86,0,0,1-1.28,1.2c-.45,0-1.14-.5-1.42-1a7.62,7.62,0,0,1-.38-1.85c-.52-1.88-2-2.64-3.54-1.85a32.94,32.94,0,0,1-4.19,2.28,11.24,11.24,0,0,0-6.47,5.32,37.51,37.51,0,0,1-4.08,5.31c-1.59,1.89-3.05,1.79-4.55-.25-.38-.51-.53-1.26-1-1.61a4.55,4.55,0,0,0-2.47-1.09,11.23,11.23,0,0,0-3.67,1,10.57,10.57,0,0,1-6.55.76,7.27,7.27,0,0,0-4.66.66,5.64,5.64,0,0,1-6.23-.86c-3-2.33-6.23-4.44-9.39-6.6a7.67,7.67,0,0,0-5.48-1.19c-3.79.46-7.59.81-11.39,1.17-.7.07-1.66-1.57-1.34-2.23a5.29,5.29,0,0,1,.92-1.61,5,5,0,0,0,2-4.12c-.13-2.54-.06-5.08-.08-7.63,0-.84-.93-2.08-1.75-2a4.44,4.44,0,0,0-2.57.79,9.42,9.42,0,0,0-3.27,6.71,19.2,19.2,0,0,1-.38,3.77c-.1.42-.95.72-1.5,1a1,1,0,0,1-.88-.24,10.17,10.17,0,0,1-1.76-2.19,4.39,4.39,0,0,0-4.61-2.71c-1,.07-1.92.05-2.88.09-2.36.09-4.42.78-5.64,3A4.17,4.17,0,0,1,320,1068c-2.77-.58-4.84,1.45-7.36,1.73-1,.11-2.73-1.37-2.54-2.38.41-2.17,1-4.31,1.42-6.49.07-.4-.52-1-.9-1.35-.1-.1-.63,0-.83.22-1.17,1-2.09,2.52-4,2-1.31-.33-2.6-.3-3.5.84a6.47,6.47,0,0,0-1.64,4.39,2.52,2.52,0,0,0,.74,1.68c1,.77,2.29,1.18,3.18,2a3.27,3.27,0,0,1,1,2.48c-.34,1.87-1.32,3.62-1.62,5.49-.66,4.11-2.28,7.18-6.65,8.42-2,.55-2.95,2.45-3.13,4.47-.26,2.86-.38,5.74-.44,8.61a24.12,24.12,0,0,1-1.56,8.42,29.66,29.66,0,0,0-2.12,7.34c-.41,3.65-2.16,6.61-3.74,9.75a22.54,22.54,0,0,1-7.51,8.54c-1.84,1.27-3.59,2.68-5.49,3.86-2.43,1.49-3.63,3.44-3.24,6.37a6.06,6.06,0,0,1-.44,2.77,2.19,2.19,0,0,1-1.31,1.25,12.9,12.9,0,0,1-3.76.29,4.84,4.84,0,0,0-5.38,3.06c-1.52,3.38-4.38,5.39-7.37,7.31-3.21,2.06-7.17,2.8-9.94,5.69a4,4,0,0,1-2.62,1.06c-3.58,0-5.91,2.09-8.1,4.51-.43.47-.84,1-1.29,1.42-3.39,3.36-4.72,3.4-9,.26-2-1.48-2-1.47-4,.22-1,.82-1.86,2.1-2.95,2.31-4.35.82-8.46,2.69-12.9,3-2.21.14-3.76,1.06-4.37,3-1,3.4-2.94,6.37-4.35,9.57-1.82,4.11-4.45,6.94-9,7.75a4.13,4.13,0,0,0-1.8.61,9.64,9.64,0,0,0-2.65,2.6c-1.06,2-1.71,4.13-2.67,6.14a6.84,6.84,0,0,1-1.82,2.16,2.26,2.26,0,0,1-1.73.46,2,2,0,0,1-1.22-1.24,27.91,27.91,0,0,1-.12-2.83,1.77,1.77,0,0,0-2.19-1.29c-.86.37-1.64.93-2.49,1.33-1.6.76-1.94.65-3.11-.89-1.55-2-1.89-2.19-3.72-1.58a11.32,11.32,0,0,0-2.67,1,3.14,3.14,0,0,1-4.29-.24c-.24-.2-1.1.27-1.66.49-2.62,1-2.61,1-3.39-2a1.45,1.45,0,0,0-.38-.79.8.8,0,0,0-.78,0c-1.07,1.58-2,3.27-3.13,4.78s-1.39,3.71-3.93,3.44c-1.28-1.56-.08-3,.21-4.49s.65-3.12.95-4.69c.16-.86-.78-2.12-1.6-2.05-.6,0-1.45.14-1.71.53-1.23,1.84-2.26,3.81-3.44,5.7a1,1,0,0,1-1.65.16,5.56,5.56,0,0,0-4.56-2.83,17.59,17.59,0,0,0-8.37,1.39,7.77,7.77,0,0,0-4.63,4.57,58.2,58.2,0,0,0-3.77,13.83,9,9,0,0,1-3.84,6.39,9.13,9.13,0,0,1-3.48,1.29,1.72,1.72,0,0,1-1.44-.88c-.31-2.19-.37-4.42-.63-6.63a8.25,8.25,0,0,0-.82-2.7,2.56,2.56,0,0,0-1.42-1.12c-.19-.06-1,.81-1,1.15.66,3.94-.83,7.56-1.54,11.32-.08.51-.16,1-.24,1.48l.21-1.59c-.34.53-.67,1.07-1,1.6a4.16,4.16,0,0,0-.44,4.48,38.31,38.31,0,0,1,4,8.56,2.39,2.39,0,0,0,.39.86c4.61,5.66,7.42,12.4,11.28,18.51a8,8,0,0,0,2,1.72c2.2,3.06,3.65,6.54,6.12,9.51s3.78,6.6,5.69,9.9c.26.45,1,.69,1.57.89.77.27,1.84-.43,2.24-1.38.63-1.49,1.42-3.31.09-4.47-3.08-2.68-3.59-6.62-5.42-9.89-.77-1.38-1.2-2.94-2-4.3-1.8-3-3.72-6-2.76-9.81-.81-3.07-1.45-6.2-2.5-9.19a6.49,6.49,0,0,1-.23-4.6,3.68,3.68,0,0,0,.08-1.86,4.42,4.42,0,0,0-.77-1.74c-3.86-5.17-2.89-10.79-1.56-16.44.18-.76,1.79-1.15,2.42-.61.95.8,1,2.66,2.49,2.63s2.41.31,2.75,1.85c.48,2.18,1,4.36,1.56,6.53.68,2.68.35,5-1.93,6.9-1.92,1.62-.21,4.39,2.3,4.65.27,0,.81-.17.82-.3q.24-2.34.35-4.69c.09-1.92.1-3.88,1.3-5.5a2,2,0,0,1,1.54-.77,1.86,1.86,0,0,1,1.34,1.11,95.12,95.12,0,0,1,1.32,10.33c.05,1.07-1,2.33-1.79,3.28-3.42,4-3.69,5.09-1.67,9.09s4.05,7.93,6.13,11.86a5.61,5.61,0,0,1,.42,4.6c-.46,1.41.23,2.4,1.42,3.15a11.28,11.28,0,0,1,2.3,1.68,4.09,4.09,0,0,1-.35,5.24,9.74,9.74,0,0,1-2.39,1.56c-2.63,1.11-2.33,4.56.66,5.78a7,7,0,0,0,2.7.62c.37,0,.77-.89,1.06-1.44.49-.93,1.28-1.65,2.22-1.19a28.17,28.17,0,0,1,5.71,3.38c2.69,2.23,5.06,4.83,7.64,7.2,2,1.86,2.8,1.71,5.57-.78l-.2.23c1.7,1.44,3.27,2.79,5.84,2.81,2.83,0,5.65.9,8.48,1.32,2.2.33,4.35,1.27,6.62.67,2.77-.73,5,.66,7.23,1.84a4.28,4.28,0,0,1,2.53,4.7c-.42,2.65,0,3.31,2.92,4a15.1,15.1,0,0,0,7.56.18,13.61,13.61,0,0,1,9.37.78,23.34,23.34,0,0,0,4.59,1.37,8.34,8.34,0,0,0,3.77.37c5.86-1.67,12.14-.86,17.89-3.18a15.19,15.19,0,0,1,7.54-1,3.37,3.37,0,0,1,1.47.51c17.38,1.79,33.94-5.08,51.12-6.61l.41-.12c19.1-4.7,38.79-.54,58-4,9.86-1.77,19.64-4,29.48-5.83,9.51-1.81,19.11-3,28.6-4.93,18-3.74,36.06-8.11,53.44-14.15,18.15-6.31,37.6-6.72,56.49-9.59a5.55,5.55,0,0,1,1.39,0c19.91-4.61,35.93-19,54.17-28,12.43-6.13,24.68-12.3,36.88-18.9,7.92-4.28,15.57-9.77,23.83-13.65a5.13,5.13,0,0,1,2.74-2.44c14-5.58,25.33-15.42,37.46-24,11.87-8.45,24.67-15.27,37.84-21.45a5.38,5.38,0,0,1,1.82-.5l.17-.22c8.31-9.89,22.25-15,33.2-21.48,11.54-6.79,23.3-14.76,29.52-27a4.32,4.32,0,0,1,5.87-2.09,5.79,5.79,0,0,1,2.22-.29,32.51,32.51,0,0,1,4.73.68c2.5.53,5,1.24,7.46,1.77a38.49,38.49,0,0,0,17.11-.54,131.86,131.86,0,0,0,41.25-17.63c6.45-4.16,12.93-8.25,19.1-12.84a111.83,111.83,0,0,1,12.88-8.33,110.55,110.55,0,0,0,22.51-16.22c7.94-7.43,16-14.78,23-23.14,1.85-2.21,3.68-4.43,5.42-6.72q15.67-20.62,31.3-41.28,4.63-6.12,9.18-12.31a72.87,72.87,0,0,0,12.78-29.66c2.41-12.14,1.77-24.19.94-36.31a209.61,209.61,0,0,0-7.85-43.34c-2.11-7.37-3.72-14.87-6.72-22-1.74-4.14-3.58-8.19-5.69-12.15a7.73,7.73,0,0,1,.21-8.22c5.9-9.18,9.73-19.44,15.08-28.9a5,5,0,0,0,.42-.86c3.65-10.91,8.86-21.26,11.58-32.5.75-3.11,1.58-6.2,2.18-9.34a59.89,59.89,0,0,1,3.18-12c.85-2,1-4.33,1.59-6.49,1.05-4,2.37-8,5.29-11.14a17.3,17.3,0,0,0,4.35-8.41,48,48,0,0,1,5.32-13.32c3.1-5.65,5.69-11.39,6.87-17.8a29.07,29.07,0,0,1,3.07-8,54.26,54.26,0,0,0,4.12-10.71c2.24-8,4.92-15.87,7.88-23.65a101.57,101.57,0,0,0,4.27-14.71c.76-3.51,1.71-6.78,3.91-9.66a9.49,9.49,0,0,0,2-8.09,9.57,9.57,0,0,1,1.06-6.45c1.92-4,3.27-8.33,6.62-11.54a2.23,2.23,0,0,0,.57-1.75,5.43,5.43,0,0,1,2.2-5.81,2.32,2.32,0,0,0,.5-1.79,11.63,11.63,0,0,1,1.83-7.22,3.85,3.85,0,0,0-1.37-5.13c-3.75-2.17-5.27-6.39-8.69-8.81s-5.82-5.85-8.2-9.29c-1.62-2.34-3.79-4.29-5.6-6.51-.23-.28,0-1.28.4-1.63a2.22,2.22,0,0,1,1.71-.48,2.7,2.7,0,0,1,1.6,1c3.27,4.46,7.66,7.51,12.37,10.26,2.15,1.26,3.91,3.19,5.87,4.79a1,1,0,0,0,.86.15c.58-.41.53-1,.06-1.59-1.34-1.78-2.76-3.52-3.94-5.41a6.82,6.82,0,0,1-.5-2.58l3.62-.64c-3.31-2.84-5.31-6.76-8.14-10a2.67,2.67,0,0,1-.61-1.74c.16-2.73-1.8-3.77-3.69-4.93-.23-.14-.5-.69-.44-.76a3.79,3.79,0,0,1,1.27-1,6.26,6.26,0,0,1,1.58-.28c-.37-2.62-2.19-4.39-3.85-6.22-2-2.25-3.25-4.66-2.7-7.82.47-2.72-.72-5-2.39-7s-3.45-3.77-5.15-5.67c-.66-.73-1.17-1.67-.62-2.59.25-.42,1.09-.48,1.66-.72,1.15-.49,1.4-1.3.64-2a11.77,11.77,0,0,0-2.07-2c-1.37-.8-2.92-1.3-4.33-2-3.46-1.84-4.09-3.76-2.86-8a3.19,3.19,0,0,1,2.76-2.24c1.21-.28,2.84-.38,2.63-2a5,5,0,0,0-1.88-3.12,58.41,58.41,0,0,0-11.56-6.66,4.32,4.32,0,0,1-2.67-2.55c-1.2-3.44-3-6.34-6.33-8.11a5.24,5.24,0,0,1-2.7-4.75c-.14-2.46-1.42-4-3.49-5.34s-2.27-2.32-1-3.84c2.07-2.49,2.87-5.12,1.25-7.93-2.51-4.34-1.09-8.71-.45-13.07a4.74,4.74,0,0,1,1.43-2.45c3.2-3.1,6.42-6.18,9.77-9.12.91-.8,2.37-1,3.39-1.69a4.46,4.46,0,0,0,1.61-2.24c.43-1.52.26-3.24.82-4.7,2.22-5.85.31-11.34-1.38-16.8-.54-1.76-2-3.23-3-4.86-1.66-2.71-3.77-5.26-3.91-8.62-.13-3-1.51-4.75-4.48-5.28a3.47,3.47,0,0,1-3.05-3.22c-.73-7-2.63-13.78-2.34-20.91.13-3.15-.68-6.34-1.21-9.49a7.8,7.8,0,0,0-1.31-3.53c-3.11-3.84-4.08-8.62-5.91-13-1.48-3.53-2.43-7.28-4.9-10.34a2.8,2.8,0,0,1-.47-.83c-3.12-9.18-9-16.89-13.47-25.34a32.73,32.73,0,0,0-11.71-12.37c-3.84-2.44-7.67-4.59-9.6-8.95-4.79-3.75-7.82-9.28-13-12.69a22.87,22.87,0,0,1-4.21-3.89c-6-6.68-12.61-12.69-19.14-18.81-5.12-4.81-10.22-9.7-14.83-15-6.36-7.28-14.05-13-21.25-19.32-3.36-2.94-6.94-5.63-10.35-8.53-9-7.67-18.5-14.69-28.19-21.48a178.36,178.36,0,0,0-23-13.85c-7.8-3.88-14.37-9.55-21.25-14.73a123.71,123.71,0,0,0-19.3-12.43c-2.57-1.27-5-2.86-7.43-4.37a21.8,21.8,0,0,0-7-3,9.81,9.81,0,0,0-6.49,1,2,2,0,0,0-.48,2.53,12.32,12.32,0,0,0,2,2c1.57,1,3.23,1.86,4.86,2.76,4.77-.45,9.16.34,13,3.56,1.64,1.38,3.78,2.13,5.5,3.43a54.36,54.36,0,0,1,4.71,4.34c-1.25.73-2.49,1.48-3.78,2.15s-2.8,1.32-4.2,2c.95.8,1.79,2.07,2.87,2.31a14.16,14.16,0,0,1,8.36,5.6c1.33,1.68,3.3,2.86,5,4.27,0,.44,0,.87,0,1.31l-.09-1.35a4.55,4.55,0,0,1-4.52-.16c-4.2-2.78-8-6.09-12.7-8.19-1.08-.49-1.86-1.65-2.75-2.54a1.7,1.7,0,0,1,.47-2.42,8.55,8.55,0,0,1,1.76-.68c-1.89-2-3.77-3.93-5.69-5.87a6.33,6.33,0,0,0-3.88-1.71l.1.8-2.39-1,.28.25-3.55-.19c0,.55.08,1.1.09,1.64,0,1.46-.43,2-1.3,1.55-1.09-.6-2.11-1.35-3.25-1.84a2.78,2.78,0,0,0-1.76.17c-.67.23-1.07,1.68-.76,2.46.23.58.46,1.16.73,1.73a11.67,11.67,0,0,1,1.24,2.52c1.15,5.86,4.05,11,6.72,16.2a5.3,5.3,0,0,1-3.6-2.17c-2.67-3.47-5.3-7-7.78-10.59-2.84-4.13-5.47-8.4-8.24-12.58a5.69,5.69,0,0,0-3.4-2.67,12.71,12.71,0,0,0,.75,3.34c1.1,2.28,2.52,4.41,3.72,6.65a7.48,7.48,0,0,1,.64,5.28,34.84,34.84,0,0,1-7.39-8.31c-2.07-3.16-4.35-6.19-6.45-9.34a20.46,20.46,0,0,1-1.6-3.4,1.73,1.73,0,0,1,1.68-2.52c.86,0,1.71.15,2.57.24-.11-3.48-.28-6.92-3-9.6-1.3-1.27-1.05-2.86-.47-4.43a3.91,3.91,0,0,0-.49-3.63c-3.78-5.78-8.77-10-15.55-11.85a4.72,4.72,0,0,0-1.86-.22,2.76,2.76,0,0,0-1.63.79,2,2,0,0,0-.43,1.7c1.51,3.1,2.44,6.49,5.25,8.91,3.17,2.73,5.07,6.47,7,10.13.18.35-.3,1.09-.58,1.58-.06.11-.68.07-.9-.09-2-1.5-4.09-3-6-4.6a76.22,76.22,0,0,1-6.43-5.65,16.73,16.73,0,0,0-8-4.83,36.78,36.78,0,0,1-5.36-2,10.35,10.35,0,0,1-5.52-4.8,20,20,0,0,1-2.86-1.4c-.71-.47-.38-1.87.46-2.13a15.36,15.36,0,0,1,2.13-.41c-3.18-2.39-6.35-4.8-9.56-7.17a6.89,6.89,0,0,0-2.42-1.39c-6-1.27-10.72-5.18-15.79-8.25-3.56-2.16-7-4.13-11.32-4-1.16,0-2.35-.75-3.53-1.16l.08,0c2.37,4,6.2,6,10.29,7.63,2.32.93,4.73,1.66,7,2.74a23,23,0,0,1,3.73,2.79l0-.05c3.25,1.25,6.77,1.85,9.57,4.18a2.49,2.49,0,0,1-.3,4c-2,1.1-3.9,2-6.32,1.6-4.4-.8-8.8-1.5-12.67-4-1-.65-1.25-1.62-.57-3.18.12-.29.39-.52.5-.81,1-2.6.2-4.32-2.38-5.24a6.82,6.82,0,0,0-1.8-.61c-3.66-.18-6.7-1.9-9.66-3.81-9.85-6.34-20.77-9.67-32.24-11.35a42.07,42.07,0,0,0-6.63,0c-.24,0-.7.38-.68.51.11.59.2,1.5.58,1.67a43.81,43.81,0,0,0,5.32,2,47.81,47.81,0,0,1,15.2,7.84,1,1,0,0,1,.18.9c-.08.26-.47.67-.63.63-4.92-1.27-9.74-2.68-14.22-5.31a43.18,43.18,0,0,0-13.33-5.13,4.67,4.67,0,0,0-2.74.39c-1.47.7-1.88,4.84-.74,6a31.51,31.51,0,0,0,9.27,6.67c4.11,2,7.7,4.4,10.27,8.29a31.37,31.37,0,0,0,4,4.11q7.67,7.88,15.33,15.77a7.76,7.76,0,0,1,1.06,1.58,5,5,0,0,1,0,5.42l.08-.25h-2.38l.08.24C640.86,94.92,633.8,88.9,627,82.69a8.51,8.51,0,0,0-8.72-2,6.82,6.82,0,0,1-2.45,4.75c-.37.3-1.15.16-1.72.09a1.31,1.31,0,0,1-.73-.57c-5.19-7.34-11.9-13-19.36-17.91-1.85-1.21-3.62-2.73-5.66-3.45-5.26-1.86-8.9-5.93-13.17-9.12-1.41-1.06-1.26-2.74-1.46-4.24,3.82,4.07,9,5.3,14.07,6.87a35.62,35.62,0,0,0,4.43.86c-.42-2-.89-4-1.18-6.06-.06-.38.65-1.26,1-1.26,2.66,0,5.31.13,7.64,1.65a6.15,6.15,0,0,0-3.93-3.65c-1.83-.57-3.7-1-5.56-1.44A98.47,98.47,0,0,1,573,41.52a10,10,0,0,0-9.18-.19c-2,.95-4.27,1.18-6.44,1.63-1.78.37-2.28-.45-1.87-2.87.05-.3.05-.61.08-.92-.59,0-1.32-.34-1.73-.1a41.5,41.5,0,0,0-4.72,3.24,8.92,8.92,0,0,1-6.22,2c-6.38-.3-12.76-.55-19.12-1.1-2.17-.19-4.26-1.28-6.42-1.79a24.67,24.67,0,0,0-4.7-.57,2.08,2.08,0,0,0-1.43.95,1,1,0,0,0,.65,1.54c5.72,1.28,10.06,5.42,15.44,7.38a4.32,4.32,0,0,1,1.54,1.12c4.89,5.16,11.21,8.4,16.8,12.63a50.54,50.54,0,0,1,5.06,4.33c2.5,2.47,4.79,5.14,7.29,7.6,5.72,5.63,10.26,12.13,14.59,18.85a18.64,18.64,0,0,1,3.35,9.76c0,1.19.1,2.38.15,3.58a4.09,4.09,0,0,1-3.41-2.27c-.91-1.58-1.62-3.27-2.51-4.86A5.87,5.87,0,0,0,566,98.37a7.94,7.94,0,0,0,1.11,6.75c.52.76,1.05,1.51,1.58,2.26,1.72,2.49,1.64,5.12.64,7.82-1.87-2.36-3.79-4.67-5.55-7.1-.9-1.24-2.11-2.75-2.06-4.1.16-4.62-2.79-7.37-5.41-10.43a17.75,17.75,0,0,1-1.83-3l2.65-1.21-.13.24c.41-.49.86-.95,1.23-1.47.8-1.12.83-2.26.09-2.47-4.9-1.33-8.27-4.49-10.93-8.68A18.34,18.34,0,0,0,544,73.58c-3.78-3.44-7.66-6.75-10.38-11.22-.77-1.27-2.34-2.11-3.66-3-3-1.89-6.2-3.39-8.95-5.54a20.44,20.44,0,0,0-17.14-4.07,13.29,13.29,0,0,1-9.26-1.2,15.08,15.08,0,0,0-2.73-.89c-.61-.19-1.24-.32-1.83-.56s-1.32-.2-1.63.49a1,1,0,0,0,.23.88c2.85,3,5.78,5.94,8.57,9,.83.91,1.18,2.23,1.91,3.25,1.65,2.34,3.43,4.59,5.05,7a2,2,0,0,1,0,1.74,1.83,1.83,0,0,1-1.52.76,23.57,23.57,0,0,1-3.32-1.15c.82,2.66,2.56,4.79,4.17,7a5.45,5.45,0,0,1,1,4.16c-5.65-5.41-11.32-10.78-16.92-16.23-2.26-2.19-4.38-4.53-6.47-6.88a1.58,1.58,0,0,1,.16-1.55,1.87,1.87,0,0,1,1.69-.2c2.12,1.1,4.17,2.33,6.24,3.52a12.13,12.13,0,0,0-4.09-7C478.7,46.25,472.11,40.82,464,37.54c-.29-.12-.33-1-.37-1.52,0-.11.54-.41.79-.37,5.61,1,11.22,2,16.81,3.18.93.19,1.16,1.24,1.14,2.29,0,2.25.67,3.12,2.19,3,2.21-.22,4.43-.41,6.62-.79a17.13,17.13,0,0,1,9,.92,6.36,6.36,0,0,0-1.16-2.15,27.39,27.39,0,0,0-9.8-5.85,136.68,136.68,0,0,0-30-6.16c-4.44-.47-8.95-.38-13.41-.65-4.65-.28-8.81,1.2-12.81,3.34-.45,1.77-.72,3.67-3.32,3.35-1.24-.16-2.69.24-3.73-.28-2.81-1.4-5.59-1.14-8.41-.39-3.4.9-6.8,1.82-10.15,2.87a23,23,0,0,1-16.86-.79c-5.65-2.55-11.59-3.38-17.69-3.9-5.72-.49-11.38-1.62-17.09-2.35a9.74,9.74,0,0,0-3.69.48,1.69,1.69,0,0,0-.63,1.52c1.16,2.44,3.35,3.84,5.72,4.83,5,2.11,10.07,4.1,15.15,6,3.57,1.36,7.21,2.41,10.46,4.63,2.61,1.78,5.65,2.93,8.44,4.47.42.23.6,1,.73,1.61.19.82-.93,1.68-1.93,1.74a12.21,12.21,0,0,1-5.59-1.09c-5.57-2.39-11.19-4.67-16.68-7.23a30.62,30.62,0,0,0-13.84-3.31,41.82,41.82,0,0,1-7.64-.55,47.22,47.22,0,0,0-23.62,2.25c-1.5.53-3.07.89-4.59,1.36-2.1.65-2.08.66-2.22,4a2.55,2.55,0,0,1-.53,1.68,26.48,26.48,0,0,1-4.6,3.38c-2.26,1.18-4.72,2-7.06,3-1.16.51-2.37,1.13-2.29,2.67s2.33,3.45,4.09,3.35c.64,0,1.28-.09,1.91-.19a92.22,92.22,0,0,0,9.45-1.6c5.65-1.52,11.41-1.41,17.15-1.54,6.21-.13,11.9,2.06,17.58,4.2.49.18,1.14,1,1.09,1.37a39,39,0,0,0-.18,6.56c0,.51-.61,1-.93,1.58-.82,1.36-1.72,2.68-2.42,4.1-1.22,2.49-3,4.1-5.89,4.19a7.12,7.12,0,0,0-1.87.41A9.27,9.27,0,0,1,333.1,84a8.71,8.71,0,0,0-6.31-1.7c-1.36.21-2.42,1.57-1.84,2.72a30.58,30.58,0,0,0,2.71,5c3.7,4.8,7.58,9.47,11.39,14.2a85.53,85.53,0,0,1,8.85,12.48,28.94,28.94,0,0,0,3.26,4.7c4.52,5.38,9.13,10.68,13.68,16,1.24,1.45,2.5,2.94,2.51,5a1.2,1.2,0,0,1-.41.78,1.11,1.11,0,0,1-.82.3,4.35,4.35,0,0,1-1.73-.65c-2.25-1.79-4.29-3.86-6.67-5.44a30.09,30.09,0,0,1-9-8.48c-.25-.39-1.08-.47-1.66-.56-.74-.13-1,1.07-.49,2.38.32.78.73,1.53,1.12,2.3a6.51,6.51,0,0,1-3.46-3,73.39,73.39,0,0,0-10.67-13.49,14.09,14.09,0,0,1-2.74-3.84,27.24,27.24,0,0,0-6.89-9.1c-1.49-1.28-3.13-1.82-2.59-4.27a3.7,3.7,0,0,0-1-2.48,38.45,38.45,0,0,0-3.83-4.21,4.44,4.44,0,0,1-1.61-3.28c-.14-4.61-3.5-6.51-7.09-8a5.65,5.65,0,0,0-4.64.5c-3.73,1.77-7.2,4.12-11.26,5.2-1,.27-1.51,2.33-.81,3.34a9.63,9.63,0,0,0,2.47,2.82A25.23,25.23,0,0,0,298,95.1c1.48.57,3.28.79,4.36,1.79,2.14,2,4.46,2.26,7.1,1.84a1.3,1.3,0,0,1,.92.19,7.51,7.51,0,0,1,1.9,1.85c.19.32-.3,1.18-.67,1.64a14,14,0,0,1-1.5,1.17,1.86,1.86,0,0,0-.35,2.54c3.22,4.36,6.54,8.65,9.76,13,.26.35,0,1.06,0,1.6-.29,0-.64.09-.87,0a29.25,29.25,0,0,0-3.32-1.87,9.14,9.14,0,0,1-5-4.13,58.48,58.48,0,0,0-5.73-7.61,6.59,6.59,0,0,0-3-2.2c-4.13-1.08-7.52-3.37-10.84-5.91-2-1.56-3.92-1.41-6.16.22a26.87,26.87,0,0,0-2.92,2.46c-1.95,1.9-4.43,2.51-7,2.86a4.17,4.17,0,0,1-2.58-.81c-.73-.49-.22-2.48.78-3.39a30.7,30.7,0,0,1,2.92-2.45c1-.73,2.21-1.26,3.3-1.93s1.36-1.9.73-2.42a4.91,4.91,0,0,0-2.4-1.27,4.11,4.11,0,0,0-2.62.85,23.25,23.25,0,0,0-7.09,8.9,32.45,32.45,0,0,1-2.11,4.28,5.25,5.25,0,0,1-4.87,2.53c-1.9-.1-3.79-.54-5.69-.76-6.67-.76-13.32-1.34-20.06-.5a47.17,47.17,0,0,0-26.55,12.19A24.81,24.81,0,0,0,202,128c-3.3,7.61-7,15.15-7.51,23.61a17.67,17.67,0,0,1-5,11.06c-3.19,3.56-6.59,7-8,11.76-.08.26,0,.79.13.85.54.22,1.36.62,1.68.39,4.43-3.11,8.95-6.12,12.37-10.44a13.28,13.28,0,0,1,2.66-2.74q6.29-4.37,12.74-8.53a17.16,17.16,0,0,1,3.51-1.52c3.36-1.22,6.26-.13,8.89,1.95a3.48,3.48,0,0,1,1.2,3.46,17.19,17.19,0,0,1-1.5,4.52,27.1,27.1,0,0,1-2.77,3.9c-8.59,11.26-14.81,23.8-19.73,37a6.51,6.51,0,0,0-.58,3.64,11.64,11.64,0,0,1-.27,6.57A43.34,43.34,0,0,0,198.5,220a6.27,6.27,0,0,0,.41,3.71c2,3.29,1.63,6.76,1.28,10.26a10.28,10.28,0,0,0,1,5.53c2.67,5.79,5.16,11.66,7.6,17.55A19.28,19.28,0,0,1,210,267.39a149.57,149.57,0,0,0,.83,46.76c1.16,6.6,1.79,13.29,2.71,19.93.35,2.53.68,5.07,1.24,7.56a113.13,113.13,0,0,1,2.33,34.28c0,.32,0,.64,0,1,0,1.18,1.72,2.38,2.73,1.91,3.89-1.83,7.2-4.16,7.9-8.84.3-2,1.8-3.32,2.73-5,.37-.66-.12-1.81-.22-2.74l.28.23a22.11,22.11,0,0,1,2-2,4.25,4.25,0,0,0,1.66-4.16,2.93,2.93,0,0,1,1.13-2.36,26.38,26.38,0,0,1,5.22-2.3,22.64,22.64,0,0,0,9.69-5.89,29.65,29.65,0,0,1,3-2.42,8.29,8.29,0,0,0,1.44-1.25c2.06-2.71,2.72-6.26,5.95-8.37,2.88-1.88,5.17-4.66,7.7-7.06.63-.59.26-1.67-.79-2.25-.55-.3-1.21-.41-1.76-.72-.94-.53-1.41-1.73-.93-2.36.77-1,1.71-1.89,2.41-2.94a10,10,0,0,0,1.07-2.6,3,3,0,0,0-1.55-3.2,2.17,2.17,0,0,0-2.47.7,5.24,5.24,0,0,1,3.16-5.28c1.69-.82,3.46-1.47,5.11-2.37a1.81,1.81,0,0,0,.58-1.63,24.52,24.52,0,0,0-1.58-3.36c-1-2-.83-2.59,1.54-3.22,1.27-.34,2.47-.61,3-1.93,1.23-3.24,3.87-4.82,6.86-6.07,4.94-2.07,9.9-4.09,14.75-6.34a14.17,14.17,0,0,0,3.26-2.73h0c3.14-.5,6.54-.41,9.34-1.66,3.73-1.66,7-4.29,10.44-6.63,1.51-1,1.79-3.27,4-3.91a13.24,13.24,0,0,0,4-2.49c1.52-1.17,2.89-2.52,4.35-3.74a55,55,0,0,1,4.5-3.58c3.33-2.23,6.89-3.5,10.8-1.53a7.35,7.35,0,0,0,7.32-.41,17.56,17.56,0,0,1,9.07-2.54c1.52,0,3-.86,4.57-1.3s3.07-1.2,4.6-1.19c5.34,0,10-2,14.43-4.6,1.73-1,1.84-1,3.89,1.19.9.95,1.84,2.2,3.12,1.82,3.24-1,6.28-.33,9.38.49a3,3,0,0,0,3.29-1.39c.54-.79.89-1.7,1.45-2.48a4.14,4.14,0,0,1,5.89-1c2.32,1.69,4.54,3.51,6.87,5.19a17.12,17.12,0,0,0,3.33,1.81c2.12.89,4,.08,5.43-2.24.17-.27.23-.6.41-.87.55-.85,1.89-1.16,2.38-.54.77,1,1.48,2,2.22,3.07,2.33,3.23,4.28,3.85,8.12,2.07,1.87-.86,2.75-.91,4.07.85.76,1,1.39,2.15,2.21,3.12.37.44,1.18.95,1.62.82,2.77-.78,5,.67,7.29,1.64a14.6,14.6,0,0,0,1.85.5c1.39.37,3.14,0,3.56-.78a3.05,3.05,0,0,0-.06-2.74c-.42-1.17-1.1-2.5-.88-3.6.49-2.42-1-4.32-1.17-6.49a15.47,15.47,0,0,0-1.72-5.35c-.84-1.9-.91-4.15-1.29-6.25.81.31,1.63.61,2.42,1,3.61,1.56,6.75,1.47,9-2.29.41-.68,2.25-.1,2.25.7,0,4.32,2.38,7.83,4.12,11.5a7.34,7.34,0,0,0,6.93,4.3c2.54,0,5.08,0,7.62-.07a36.16,36.16,0,0,1,11.68,2.23,17.91,17.91,0,0,0,4.62.91,10,10,0,0,0,2.83-.37c5.48-1.09,9.2,1,11.51,6.06,1,2.21.65,3.66-1.91,5.48a3.29,3.29,0,0,1-.61.31,25.19,25.19,0,0,0,2.84,3.63c1.67,1.53,3.67,2.73,6.06,2.41s4.36.59,6.5,1.22a9.55,9.55,0,0,1,4.82,2.9c1.67,1.93,3.47,3.76,5.31,5.53a8.69,8.69,0,0,0,8,2.37,76.3,76.3,0,0,0,8.27-2.34c1.21-.38,2.28-1.23,3.5-1.52a4.06,4.06,0,0,1,2.74.37,14.3,14.3,0,0,1,2.84,2.54,10.73,10.73,0,0,0,4.84,3,36.32,36.32,0,0,1,3.65,1.17c3.61,1.45,6.91,3.32,9.2,6.63A29.74,29.74,0,0,0,591,296.1a8.06,8.06,0,0,0,5,2.67,51.49,51.49,0,0,1,11.15,2.7c2.34.88,5,1,7.53,1.24,1.9.2,3.83.1,5.75.12a10.58,10.58,0,0,1,8.49,3.73c.62.74,1.25,1.46,1.91,2.15a12.78,12.78,0,0,0,5.61,3.52,18.39,18.39,0,0,1,5.24,2.23,22.22,22.22,0,0,0,9.57,4.17,8.73,8.73,0,0,1,4.85,2.9q5.67,5.83,11.47,11.54a19.59,19.59,0,0,0,3.08,2.26,21.91,21.91,0,0,1,8.9,11,13.58,13.58,0,0,0,9.28,8.94,12.47,12.47,0,0,1,2.6,1.2c3.6,2.09,5.68,5.06,5.41,9.4a16.86,16.86,0,0,1-.1,2.87c-1.12,4.61,1.22,7.92,3.84,11.29,2,2.57,5.06,2.45,7.61,3.63a2,2,0,0,1,.66,2.56,14.91,14.91,0,0,1-1.31,1.36c-.74.61-1.6,1.07-2.31,1.71a7.16,7.16,0,0,0-1.34,9.54c.8,1.36,2,2.49,2.79,3.83a1.93,1.93,0,0,1-.12,1.81c-2.36,2.58-4.79,5.1-7.27,7.57-1.13,1.12-2.49,2-3.59,3.15-2,2-1.66,4.18.4,5.77.76.58,1.63,1,2.32,1.68.43.41,1,1.19.86,1.6-.93,2.88-.23,5.67.17,8.5.06.4-.73,1.33-1.09,1.31-3-.19-5.48,1.7-8.34,2a3.5,3.5,0,0,0-3.55,3.69,3.94,3.94,0,0,1-1.93,3.14c-.81.51-1.67.94-2.52,1.38a7.58,7.58,0,0,0-4,5.14,23.35,23.35,0,0,1-1.16,3.65,5.37,5.37,0,0,1-3.49,3.06,35.48,35.48,0,0,1-3.74.81,16,16,0,0,0-9.9,5.33c-1.42,1.65-3.6,2.62-5.23,4.13s-2.26,4.18-.42,6c.46.45.9.91,1.37,1.34a6.75,6.75,0,0,1,2,7.82,4.35,4.35,0,0,0-.22.93,2.45,2.45,0,0,0,1.84,2.89c2.81.47,5.66.77,8.47,1.26.52.09,1,.75,1.39,1.23s-.33,1.68-1.54,1.88c-.63.11-1.28,0-1.91.14a9.61,9.61,0,0,0-1.8.56c-1.1.44-1.64,2.46-.8,3.27a9.35,9.35,0,0,0,3,2.32c1.78.63,3.77.67,5.61,1.17a17.12,17.12,0,0,1,5.31,2,17.37,17.37,0,0,0,8,3c.78.1,1.37,1.59,1,2.36-.64,1.46-1.35,2.89-2,4.37a11.85,11.85,0,0,1-4.84,5.77,26.8,26.8,0,0,0-3,2.34,2.65,2.65,0,0,0-.36,3.49c1.41,1.75,1.65,3.14.29,5.09a30.46,30.46,0,0,0-2.92,6,27.51,27.51,0,0,1-4.4,7.37,2.44,2.44,0,0,0,.51,3.39,22.14,22.14,0,0,0,3.35,1.86c3.87,1.49,4.9,4.7,5.16,8.36,0,.32-1,1.1-1.29,1-4.6-1.3-9.19-2.66-13.75-4.12-8.22-2.62-16.36-5.48-24.63-7.95-11.34-3.38-22.71-6.68-34.15-9.67-14.85-3.88-29.78-7.44-44.68-11.1-2.17-.53-4.37-1-6.58-1.33-11.67-2-23.32-4-35-5.78a295,295,0,0,0-52.62-2.89,14.16,14.16,0,0,0-2.34.57c4.76,1.51,9.27,1.25,15.58,2-9.34.21-16.57,1.22-23.45,4.12a8.21,8.21,0,0,1-6.54.37c-4.88-2.14-10-2-15.09-1.86-2.23.06-4.46-.08-6.69-.17-.17,0-.43-.39-.44-.61a.82.82,0,0,1,.37-.67c1.83-.55,3.55-1.21,4.16-3.26-1.93,1.24-4.16,1.16-6.32,1.33a37.24,37.24,0,0,0-16.2,5.33,12.4,12.4,0,0,1-4.3,1.88c-8.5,1.16-15.61,5.39-22.56,10-1.59,1.05-3,2.34-4.62,3.4a2.43,2.43,0,0,1-1.79.25,16.52,16.52,0,0,1-2.59-1.19,75.83,75.83,0,0,0-18.22-5.74c-6-1.19-11.31.6-16.31,3.73a12.13,12.13,0,0,0-2.27,1.75c-2.7,2.78-6.44,2.86-9.78,3.18-2.79.27-5.43-1.59-7.34-3.87a2.66,2.66,0,0,1-.47-1.79,10,10,0,0,1,.7-2.73c.35-.88,1-1.65,1.31-2.54a2.34,2.34,0,0,0-.37-1.68,2.14,2.14,0,0,0-2.61-.47c-1.29.9-2.53,1.87-3.79,2.82a14.24,14.24,0,0,1-2.28,1.68,2.15,2.15,0,0,1-1.75-.19,8.19,8.19,0,0,1-2.14-1.87c-1.28-1.61-1.94-3.63-.51-5.26,2.39-2.72,1.88-5.09.09-7.78a25.58,25.58,0,0,0-5.76-6.32c-6.32-4.87-12.38-10-18.32-15.36a39.94,39.94,0,0,0-5.38-4c-8.1-5.1-16.21-10.18-25.05-13.94-.75-.32-1.27-.13-1.37.54a1.07,1.07,0,0,0,.4.79,16.66,16.66,0,0,1,2.26,1.72c.32.36.2,1.16.15,1.74,0,.13-.6.37-.86.3-1.84-.52-3.64-1.17-5.49-1.67-2.15-.58-4.32-1.43-6.49-1.48a12.54,12.54,0,0,1-10-4.73c-1.6-1.9-4-3.09-5.94-4.77a6.13,6.13,0,0,1-1.11-2.23l6.94-.32a223.19,223.19,0,0,0-27.42-9.79c-7.69-2.18-15.34-4.34-23.34-5.28-6.33-.74-12.6-2.1-18.86-3.36a135.9,135.9,0,0,0-20.94-2.46c-17.26-.75-34.52-1.13-51.79-.3-7,.34-14,.75-21.06,1.3a57.44,57.44,0,0,0-9.47,1.47,60.7,60.7,0,0,0-9,3.18,14.32,14.32,0,0,0-7.65,8.21C37.9,461.58,36.43,468.69,38.51,476.15Zm629.74-11.37c-.21.08-.47.27-.6.21s-.2-.38-.29-.58c.21-.08.47-.28.6-.21S668.16,464.57,668.25,464.78ZM268.91,284.86l1.5-.42c-.28.18-.55.35-.84.5S269.14,284.89,268.91,284.86Zm-9,28.46h4.22l-.05.05H260Zm3.94-112.1a8.74,8.74,0,0,1-1.15,1.15c-.52-.3-1.18-.48-1.51-.92a.84.84,0,0,1,.6-1.4,3.55,3.55,0,0,1,1.72.41C263.74,200.54,264,201.09,263.88,201.22Zm-5.52,110.19v-.06l1.52,1.92Zm-.46,4.24q.21-2,.42-3.93A9.79,9.79,0,0,1,257.91,315.65ZM245.52,328.4c.12-.21.18-.52.36-.61a.68.68,0,0,1,.65.12c.32.55.1.93-.57,1C245.83,328.87,245.67,328.56,245.52,328.4Zm-4.94-167.34c-.18-.75,1.19-1.42,2.15-1.07,8.32,3.07,16.64,6.17,25,9.23,5.74,2.1,10.65,5.55,15.32,9.39a3.35,3.35,0,0,1,.73,1.33c-3.47-.15-6.48-1.75-9.46-3.28a112.27,112.27,0,0,0-17.49-7.4c-4.23-1.34-8.36-3-12.52-4.54a7.26,7.26,0,0,1-2.55-1.2A5.13,5.13,0,0,1,240.58,161.06ZM283,211.54l.44.51h-.86Zm-51.55-57.69a2.08,2.08,0,0,1-2.58-.32,2.33,2.33,0,0,1,.15-3.37,22.49,22.49,0,0,1,2.91-1.64c1.05.34,1.66.48,2.22.74a1.55,1.55,0,0,1,.36,2.4A25.71,25.71,0,0,1,231.46,153.84Zm-5,54.62q.18-3.67.34-7.34l3.43-3.38c1.27,5.49.2,11.06.38,16.59,0,.41-.76.84-1.16,1.26-.37-.4-1-.75-1.08-1.2A16.33,16.33,0,0,0,226.47,208.47Zm.65,88.82h.54l-.28.59Zm-13.81.55c0-.37.63-.69,1-1,.18.25.49.5.52.76a58.12,58.12,0,0,1-.91,17.6C212.09,308.9,212.78,303.36,213.31,297.83Zm7.15-66a7.86,7.86,0,0,1-1.25,3.55c-1,1.58-2.58,2.84-3.28,4.51s-.52,3.76-1,5.59a23.26,23.26,0,0,1-1.74,4.43,1.91,1.91,0,0,1-1.38,1,2,2,0,0,1-1.52-.92,49.08,49.08,0,0,1-4.73-18.35,38,38,0,0,1,1.94-14.08,7.25,7.25,0,0,1,1.7-2.21,1.14,1.14,0,0,1,.91-.19c.26,0,.66.29.7.51.54,2.74,1,5.5,1.54,8.36.5-5.9,1.89-11.4,5.33-16.2.25-.35,1.07-.36,1.63-.38.18,0,.57.52.53.73a26.85,26.85,0,0,0,.39,13.23C221.31,224.83,220.63,228.31,220.46,231.78Zm5.81-23.27c.14,4-.61,8,.36,11.92a3.47,3.47,0,0,1-.18,1.88,8.53,8.53,0,0,1-1.27,2.49,2,2,0,0,1-1.63.59,1.81,1.81,0,0,1-1.13-1.24c-.51-4.77.24-9.49.87-14.19C223.46,208.7,225,208.55,226.28,208.52Zm-27.54-54.76a12.71,12.71,0,0,1-1.34.21,4.59,4.59,0,0,1-.08-.73,12,12,0,0,1,1.33-.22A5.48,5.48,0,0,1,198.73,153.76Zm46.56-34.39c-.43.28-.84.76-1.3.81-2.2.23-4.43.18-6.6.52-6.52,1-13.19,1.51-19.21,4.67l-1.59-.38,1.66.34A5.11,5.11,0,0,1,221,121.7c2.55-1.16,5.6-1.19,7.62-3.57a2.45,2.45,0,0,1,1.78-.4c4.71.33,9.42.72,14.13,1.12C244.81,118.87,245,119.19,245.29,119.37ZM248.12,131c-1.3,1.79-2.81,3.43-4.15,5.19a7.46,7.46,0,0,1-5.77,2.86c-4.75.42-9.38,1.22-14.24-.07-3-.79-6.35-.23-9.54-.07a3.74,3.74,0,0,0-3.58,2.7,13.5,13.5,0,0,1-.93,2.71,6,6,0,0,1-1.87,2.09,11,11,0,0,1-6.34,1.83c-.77,0-1.93-1.1-1.9-1.86a6.86,6.86,0,0,1,.11-1.87,18.39,18.39,0,0,1,8.31-10.18c2.48-1.45,5.07-2.73,7.63-4,1.61-.82,2.93-.42,4.33.77,1.92,1.64,1.92,1.57,3.94-.19.72-.62,1.32-1.61,2.14-1.85,4.57-1.36,9.13-3.15,14-1.7,2.43.72,5.17.39,7.3,2C248,129.7,248.33,130.74,248.12,131Zm6.64-15.27-.67.21.13-.55Zm1.7,18.42a3.41,3.41,0,0,1,1.53,1c.14.13,0,.66-.1.91-.94,1.64-2.31,2-3.94,1-.41-.26-.48-1.08-.7-1.64C253.76,134.39,254.8,133.89,256.46,134.17Zm-2.75,6.47c.27.1.67.14.76.32s-.13.52-.22.79c-.26-.11-.65-.15-.76-.35S253.62,140.89,253.71,140.63Zm7-14.6a17.1,17.1,0,0,1-2,.44c-.71-.16-1.62-.32-2.5-.57a1.12,1.12,0,0,1-.66-.59,1,1,0,0,1,.09-.9,3.74,3.74,0,0,1,5.61.1C261.79,125.09,261.49,125.77,260.75,126Zm8.78,33.8a23.44,23.44,0,0,1,5.53,1.13c3.79,1.58,7.46,3.44,11.13,5.28.37.18.47,1,.59,1.52,0,.1-.49.32-.92.58a12.2,12.2,0,0,1-2.67,0c-5.23-1.14-10.57-2-15.64-3.66-6-2-11.72-4.68-17.56-7.1-.25-.1-.57-.51-.53-.72.13-.66.67-.79,1.45-.54C257,158.24,263.27,158.89,269.52,159.83Zm16.71-8c-.08-.2.13-.61.32-.79a1,1,0,0,1,.81-.22c3.62,1.23,5.24,4.08,6.14,7.5A10.32,10.32,0,0,1,286.23,151.84Zm-13-7a.94.94,0,0,1,.63.62c.11.8-.35,1-1.18.63s-1.53-.76-3-1.5C271.44,144.65,272.37,144.67,273.28,144.79Zm4.55-34.92a2.35,2.35,0,0,1-3,1.65c-.82-.27-1.86-.92-2-1.44a2,2,0,0,1,1.31-2.46c1.47-.66,2.94-.49,3.47.49A2.54,2.54,0,0,1,277.83,109.87Zm8.14,49a1.38,1.38,0,0,1,.29.86,2.27,2.27,0,0,1-.3.77c-.29.07-.64.29-.85.2a59.13,59.13,0,0,1-6.88-3.17,13.32,13.32,0,0,1-3.25-3.39,1.69,1.69,0,0,1,.11-1.64,1.82,1.82,0,0,1,1.64-.2A26.43,26.43,0,0,1,286,158.9Zm14.8-50.07-.24.6-.33-.55Zm1.33,6.86c0,.12-.54.41-.77.36-1.84-.44-3.64-1-5.5-1.39a9.64,9.64,0,0,0-2.81.17c-.78.09-1.58,1.74-1.11,2.26a23.25,23.25,0,0,0,2.61,2.7A7.63,7.63,0,0,1,297.4,128c-5.75-2.13-10.12-6.18-14.42-10.34-.68-.66-.43-2.25.46-2.3,2.87-.17,4.38-2.27,6.24-4,1.22-1.12,3.22-1.74,4.4-.75,2.32,1.94,5.41,1.85,7.69,3.6C302.09,114.43,302.08,115.17,302.1,115.69Zm5.4,30.5a5.34,5.34,0,0,1-4.42-.11q-5.88-2.93-11.7-6a4.09,4.09,0,0,1-1.25-1.34,1.22,1.22,0,0,1-.07-.92c.21-.72.79-1.12,1.4-.8C296.9,139.88,302.29,142.84,307.5,146.19Zm-11.8,15-.39.14-.11-.21Zm24.21,93.08a9.29,9.29,0,0,1-2.93,2.33,34.14,34.14,0,0,1-4.61,1.15,3.26,3.26,0,0,0-2.39,2.72c-.33,1.88-.34,3.81-.6,5.7-.2,1.45.68,2.29,1.46,3.29a1.9,1.9,0,0,1-.84,3.1c-2.1.74-4.23,1.39-6.35,2.07-1.06.34-1.35,1.12-1.56,2.14a23.51,23.51,0,0,1-1.13,3.3,9.56,9.56,0,0,0-7,1.28,20,20,0,0,1-7,2.73c-2.08.45-4.09,1.21-6.14,1.8-.91-3.15-1.34-3.44-4.22-3-1.7.29-3.39.67-5.1,1,2.32-4.88,6.2-8.6,9.62-12.64.92-1.08,2.81-1.31,4.21-2a3.65,3.65,0,0,0,1.46-1.2c1.48-2.41,3.87-4.22,4.33-7.31.42-2.88,2.85-4.15,5.16-5.2,1.72-.79,3.71-1,5.49-1.63,1.46-.55,3.15-1.11,4.13-2.21,2.32-2.61,4.77-2.92,7.67-1.35a18.53,18.53,0,0,0,6.24,2.23C319.95,252.61,320.19,254,319.91,254.25Zm7.13,3a7.9,7.9,0,0,1,1.25,0,12,12,0,0,1,1.87,1.48c.51.57-.19,1.82-1.12,2.23a40.67,40.67,0,0,1-12.64,3.27,3.23,3.23,0,0,1-1.79-.4c-.48-.28-1.14-.88-1.11-1.29.05-.84.48-2.36.82-2.39C318.73,259.88,322.79,258.12,327,257.26Zm0-130.19c-1.14-.36-2.15-.9-2.38-2.2a2.22,2.22,0,0,1,.37-1.6c.36-.45,1-.2,1.27.5A25.06,25.06,0,0,1,327,127.07Zm-.09,3.39c-.16-.13-.14-.54-.11-.82.08-.7.19-1.4.29-2.09.15.76.29,1.53.47,2.29S327.56,131,326.93,130.46Zm12.25,120.19c-.12.4-1.12,1-1.36.86-4-2.27-8.41-2.45-12.86-2.3a6.77,6.77,0,0,1-1.87-.22,1,1,0,0,1-.6-.67c0-.14.37-.55.58-.56,2.2,0,4.4,0,6.6,0v-.15c2.21,0,4.43-.12,6.62.06a4.64,4.64,0,0,1,2.4,1.3A2,2,0,0,1,339.17,250.65Zm7.58-5.89a1.64,1.64,0,0,1-2.25.19c-.14-.11-.09-.45-.13-.68.23-.15.45-.42.68-.42a6.37,6.37,0,0,1,1.6.26C346.75,244.14,346.85,244.62,346.76,244.76Zm-5.3-149.19c-.75-.28-1.51-.54-2.22-.89-.14-.07-.16-.77-.12-.78.49-.14,1.13-.44,1.49-.25A1.7,1.7,0,0,1,341.45,95.57ZM343.6,54.3a8.89,8.89,0,0,1-1.21.36c-1.42-.41-3.18-.9-4.91-1.44-.24-.08-.39-.44-.59-.67a5,5,0,0,1,1.54-.72c2-.16,3.37,1.27,5,2C343.58,53.82,343.64,54.28,343.6,54.3Zm7.91,51.26a1.85,1.85,0,0,1-1.65.33c-.48-.17-.79-.84-1.18-1.29a5.13,5.13,0,0,1,.67-1.66c.55-.6,1.77-.1,2.25,1A1.84,1.84,0,0,1,351.51,105.56Zm3.44,10.75a4.65,4.65,0,0,1-2.76-2.93.83.83,0,0,1,.33-.68.79.79,0,0,1,.73,0A4.69,4.69,0,0,1,354.94,116.31Zm1.7-59.79c0,.1-.49.08-.73,0-.07,0-.06-.36-.08-.55C356.58,55.76,356.89,56,356.65,56.52Zm8.54,38.22c-2.2,1-4.72,1.41-6.58,3.08h0a9.84,9.84,0,0,1-1.74-.57c-.51-.27-1.18-.66-1.32-1.13-.3-1,.47-1.66,1.24-2.2a4,4,0,0,1,3.45-.72C361.9,93.66,363.55,94.19,365.19,94.74Zm3.14,8.27a4,4,0,0,1-3.55-.78c-2-1.35-4-2.83-6-4.26a5.93,5.93,0,0,1,2.38.08,41.74,41.74,0,0,1,5.12,2.52C368.14,101.57,369,102.78,368.33,103Zm101.41,12.84a5.15,5.15,0,0,1,3.53,3.83,70.47,70.47,0,0,1,2.22,11.26c.61,8,.9,16,1.08,23.95.09,3.82-.34,7.66-.58,11.48a7.62,7.62,0,0,1-.53,1.82c-.2.59-.45.57-.76,0a17.91,17.91,0,0,1-2-8.25,66.23,66.23,0,0,1,1.15-14.3,30.25,30.25,0,0,0-.12-14.26C472.44,126.19,471.05,121.05,469.74,115.85Zm-.13-4.1c.2,0,.46.34.53.57a3.91,3.91,0,0,1-.51,3.12c-.27-.84-.57-1.67-.8-2.51S468.92,111.7,469.61,111.75ZM454.54,215.46a9.91,9.91,0,0,0,1.81-4.15c.4-1.53,1.6-1.62,2.84-.5a22.25,22.25,0,0,1,5.22,6.79c.19.39-.25,1.14-.52,1.67-.09.17-.64.26-.87.16Q458.75,217.5,454.54,215.46Zm-.16-.08.44-.46-.31.53Zm-4.06-122a3.43,3.43,0,0,1,1.74.55,31.2,31.2,0,0,1,8,12.73l-.31,1.62c-.49-.26-1.15-.41-1.44-.81-2.23-3-4.4-6.14-6.58-9.22-.54-.77-1.05-1.57-1.57-2.36C449.51,94.9,449.64,93.26,450.32,93.38ZM448,225c0-.07.36-.06.56-.08a2.34,2.34,0,0,1,0,.73c0,.07-.37.06-.57.08A2.48,2.48,0,0,1,448,225ZM434.89,71.32a1,1,0,0,1-.86-.14c-.67-.59-1.27-1.25-1.82-1.8.1-.49.07-.84.24-1s.63-.35.77-.25a12.85,12.85,0,0,1,2,1.77A.83.83,0,0,1,434.89,71.32Zm-1.3,24c.2-.18.4-.51.6-.51s.68.24.72.44c.19.85-.2,1.2-.92.86C433.77,96,433.71,95.59,433.59,95.32Zm-1.51-15c.14-.25.28-.73.41-.73a2,2,0,0,1,2,1.61c0,.2-.33.71-.38.7a7.39,7.39,0,0,1-1.66-.74C432.21,81.06,432.19,80.64,432.08,80.35Zm-3.75,9.27.19-.5c.08,0,.15,0,.14.06Zm-25-2.11c.22-.13.49-.42.64-.37a1.07,1.07,0,0,1,.59.63c.24.92-.1,1.13-.83.52C403.52,88.12,403.45,87.77,403.32,87.5Zm-18,32.37c.09-1.52.17-3,.28-4.57a6.15,6.15,0,0,1,3.42,2.58c1.74,2.93,3.34,5.93,5,8.93.08.16-.11.58-.29.73s-.67.26-.78.14C390.35,125.09,387.82,122.45,385.32,119.88Zm0,6a5.73,5.73,0,0,1,2.09,1,12.45,12.45,0,0,1,3.71,7.26c0,.24-.2.76-.32.76-.5,0-1.33,0-1.47-.24C387.88,131.75,386.57,128.84,385.29,125.86Zm0-5.85a8.73,8.73,0,0,1-.22,5.16C385,123.44,384.45,121.7,385.28,120Zm-1.85-52.62c0,.1-.4.58-.6.57-.57,0-1.4,0-1.66-.4a7.61,7.61,0,0,1-.93-2.21,10.05,10.05,0,0,1,2.31.6C383,66.16,383.22,66.87,383.43,67.39Zm1.36,42.41c.89-.37,1.89,1.27,1.57,2.83a11,11,0,0,1-.9,2.27c-.8-.35-1.62-.67-2.4-1.06a1.61,1.61,0,0,1-.61-.68,1.38,1.38,0,0,1-.22-.87A3.83,3.83,0,0,1,384.79,109.8Zm10.38-29.69h-3.64l-.2,2-1.58-2-3.83-.48,3.87-1.15.8-2.93a.22.22,0,0,1,0-.23l.08,0,.08-.3.05-.07a3.32,3.32,0,0,0-.08.39c.37.17.14.29,0,.22a4.35,4.35,0,0,0,1,2.88C393,78.69,394.44,78.72,395.17,80.11Zm-2.33,3.11c.62.45.55,1-.07,1.24-.15.06-.54-.23-.65-.44a7.6,7.6,0,0,1-.46-1.24A3.4,3.4,0,0,1,392.85,83.22ZM396.45,99c.12.45-.35,1.12-.67,1.62-.1.16-.63.21-.86.09a11.49,11.49,0,0,1-5.86-5.88c-1.56-3.79-3.09-7.6-4.35-11.5-.32-1,.33-2.26.64-3.39,3,5,5.74,10.13,9.42,14.69A12.07,12.07,0,0,1,396.45,99Zm3.63-42.49c-.22.13-.5.42-.65.37a6.59,6.59,0,0,1-1.16-.69l.66-.39a2.45,2.45,0,0,1,.78.15C399.88,56.06,400,56.33,400.08,56.52Zm23.53,26.06a6.18,6.18,0,0,1,.39.87,2.25,2.25,0,0,1-.73,2.54,24.2,24.2,0,0,1-2.41,1.08,6.36,6.36,0,0,1-2.06-.46,68.63,68.63,0,0,1-16.53-15.77,8.74,8.74,0,0,1-1.16-3.57,2.07,2.07,0,0,1,.7-1.63,2.18,2.18,0,0,1,1.75-.36A15.42,15.42,0,0,1,407,66.81C413.66,70.89,418.8,76.57,423.61,82.58ZM439,45.72c-2.78,0-5.55.06-8.33.13a57.72,57.72,0,0,1-15.79-2.58.87.87,0,0,1-.36-.77c.16-.53.46-1.44.74-1.46,4.09-.22,8.19-.57,12.27-.38a92.53,92.53,0,0,1,10.33,1.47C439.41,42.38,439.62,43.08,439,45.72Zm17.08-5c0,.17-.53.49-.77.45-3.74-.68-7.48-1.39-11.22-2.12-.95-.18-2.19-1.65-1.75-2a11.72,11.72,0,0,1,1.74-.94,23.22,23.22,0,0,1,11.73,3C456.17,39.34,456.15,40.2,456.12,40.74Zm-12.74,8.63a2.35,2.35,0,0,1-1.6-1.66A3.12,3.12,0,0,1,443.38,49.37Zm3.23,3.52c.09.1-.11.48-.18.73-.24-.07-.55-.08-.72-.23A5.22,5.22,0,0,1,443.77,50C444.72,50.93,445.69,51.89,446.61,52.89Zm52.14,50.56c-.09.23-.41.55-.6.53-.61-.06-1.21-.32-1.82-.39s-1.41-.22-1.81.08a1.84,1.84,0,0,0-.33,1.67c1,2.8,2.16,5.57,3.22,8.39a8.82,8.82,0,0,1-2.59-2,47.65,47.65,0,0,0-9.58-10.44A7.69,7.69,0,0,1,484,99.9a52.25,52.25,0,0,0-15.82-13.43,48.16,48.16,0,0,1-11.76-9.52c-3.4-3.77-7.39-6.78-11.12-10.12q-4.45-4.77-8.9-9.55a2,2,0,0,1-.39-.87,2.15,2.15,0,0,1,0-.94,1,1,0,0,1,1.37-.87,26.5,26.5,0,0,1,3.57,1.32c3.47,1.65,6.85,3,11,2.62a11.62,11.62,0,0,1,8.76,3.13,15.74,15.74,0,0,0,5.9,3c6.29,1.8,11.42,5.63,16.65,9.23A32.66,32.66,0,0,1,492,82.5a3,3,0,0,1,.16,1.81c-.07.67-1.78,1.3-2.42.89-2.4-1.55-4.84-3.06-7.15-4.74a49.36,49.36,0,0,0-9.11-5.18,4.44,4.44,0,0,0-3.61.22c3.46,2.23,5.93,5.58,9.07,8.12,4,3.23,7.88,6.39,10.77,10.71.82,1.24,2.42,2,3.66,2.92,2,1.56,4.27,2.84,5.35,5.3A1.3,1.3,0,0,1,498.75,103.45Zm14-8.43c-.42.36-.88,1-1.26,1a1.88,1.88,0,0,1-1.22-1.13,1.68,1.68,0,0,1,.32-1.54,1.63,1.63,0,0,1,1.55.13C512.54,93.79,512.59,94.49,512.78,95Zm34.86-8a6.67,6.67,0,0,1-5.18-1.37c-4.77-3.19-9.48-6.47-14.35-9.49a30,30,0,0,1-11.37-12.58,1.08,1.08,0,0,1,.52-1.62,1.13,1.13,0,0,1,.94,0c2.43,1.51,4.82,3.08,7.23,4.61A64.27,64.27,0,0,1,541.13,80.4,31.21,31.21,0,0,0,547.63,87Zm1.78,53.57a5,5,0,0,1-.18,1.06c-.12.28-.45.76-.54.73-.51-.18-1.27-.38-1.43-.77-1.62-4.14-2.68-8.57-4.78-12.43-4.87-8.94-9-18.23-13.22-27.45-.66-1.44-1.35-2.86-1.94-4.33a1,1,0,0,1,.8-1.36,1.18,1.18,0,0,1,.89.18c3.74,3.18,6.09,7.38,7.84,11.81,2.59,6.52,5.67,12.79,8.89,19A33.78,33.78,0,0,1,549.41,140.55Zm20.53-25.5-.45.38-.14-.18Zm-21.5-54.32c-.22,0-.5-.19-.75-.3,0-.24,0-.6.16-.68a1,1,0,0,1,.82,0C549.39,60.13,549.3,60.55,548.45,60.73Zm5.34-9.35a.83.83,0,0,1-.79.06c-.21-.12-.3-.48-.43-.73.22-.16.45-.47.67-.46C554.11,50.26,554.33,50.71,553.78,51.38Zm6.63,16.7a23.35,23.35,0,0,1,7.82,5.05,1,1,0,0,1,.08.89c-.11.24-.49.35-.75.52-3.74-.22-6.3-2.44-8.6-5.09a1,1,0,0,1-.16-.89C559.12,67.87,559.69,67.79,560.41,68.07ZM573.63,50.2c-3.7,1.55-7.44,1.32-11.2.41a1.46,1.46,0,0,1-.74-.58,1.48,1.48,0,0,1-.3-.89,1.13,1.13,0,0,1,.46-.77,4.89,4.89,0,0,1,4.57-.16C568.76,49.17,570.91,50.7,573.63,50.2Zm52.58,80.56a8.72,8.72,0,0,1,4.42,5.28,1,1,0,0,1-.83,1.37,1.1,1.1,0,0,1-.85-.26C627.29,135.34,626.88,133,626.21,130.76Zm-48-18.51a.9.9,0,0,1-1.5-.16,3.72,3.72,0,0,1-.5-3.15,3.59,3.59,0,0,1,2.18,2.49A1,1,0,0,1,578.25,112.25Zm1.07,41.58c-.12.51-.31,1-.47,1.51-.11-.58-.24-1.16-.33-1.75a2.49,2.49,0,0,1,0-.9c.12-.51.31-1,.47-1.51l.34,1.71A4.38,4.38,0,0,1,579.33,153.83Zm8.55-79.93a8.44,8.44,0,0,1-2.22.08c-.45-.08-.81-.73-1.21-1.12.17-.17.34-.46.52-.48a1.58,1.58,0,0,1,.82.27C586.5,73,587.19,73.47,587.88,73.9Zm42.28,44.66c-.6,1-1.6.76-2.52.36l-.87-.4c-2.73-1.2-3.84.35-3.8,2.31.05,2.39.14,4.78.24,7.16-2.26-4-4.4-8.1-6.87-12s-4.79-8.21-9.55-10.24c-1.35-.57-2.33-2.1-3.36-3.28-1.67-1.91-3.15-4-4.88-5.83A12.13,12.13,0,0,1,595.18,90c-.47-3.61-2.44-6.45-4.11-9.45-.76-1.37-1.94-2.53-2.63-3.92a6.53,6.53,0,0,1-.2-2.51,45.82,45.82,0,0,0,4.24,1.77,17.42,17.42,0,0,1,8.57,5.89c3.77,4.82,8.49,8.64,12.82,12.86,2,2,4.6,3.51,6.44,5.65,3.73,4.36,7.47,8.75,10.22,13.85a5.77,5.77,0,0,1,.44.85A4.13,4.13,0,0,1,630.16,118.56ZM1042.1,504.85a1.22,1.22,0,0,1,.85-.05c2.2.74,2.25,2.51,2.08,4.38l.21,0-.15.1c-.63-.63-1.25-1.26-1.89-1.87a15.09,15.09,0,0,1-1.34-1.2A.82.82,0,0,1,1042.1,504.85ZM705,372.93c0-.23.33-.46.52-.69.19.23.52.45.52.68s-.33.46-.51.69C705.33,373.38,705,373.16,705,372.93ZM652.33,112a.77.77,0,0,1,.71-.17c.62.42.6.9,0,1.17-.17.07-.48-.18-.71-.28C652.3,112.49,652.21,112.15,652.33,112Zm-3.58-42.11c-1.16.08-2.33.22-3.15-.84Zm.85.23-.39.4.15-.46Zm3.89,5.31a10.76,10.76,0,0,1-1.17.74c-.11-.23-.35-.63-.3-.66a10.28,10.28,0,0,1,1.16-.74C653.28,75,653.52,75.41,653.48,75.44ZM690,139.6c2.81,3.88,5.6,7.79,9.16,11a22.85,22.85,0,0,1,5.2,6.79c1.17,1.53,2.34,3,3.45,4.56.11.15,0,.63-.22.78a.92.92,0,0,1-.82.13c-2.11-1-3.44-2.74-4.84-4.5a126.6,126.6,0,0,0-9.19-11c-5.65-5.64-11.41-11.15-16.29-17.5a8.69,8.69,0,0,0-1.4-1.3c-4.94-4.09-9-9-13.32-13.72a32.56,32.56,0,0,1-5.78-8.73c-4.25-9.33-11-17.22-15.41-26.45-.68-1.41-2-2.52-2.91-3.8a4.51,4.51,0,0,1-.87-1.68,2.35,2.35,0,0,1,.25-1.73,2,2,0,0,1,1.62-.68,11.56,11.56,0,0,1,6.82,4.88A78.94,78.94,0,0,0,661.19,93.4a55.87,55.87,0,0,1,8.48,9.09c2.14,2.78,4.31,5.55,6.59,8.22a22,22,0,0,1,4.46,8.39,4.28,4.28,0,0,1-.8,4.46,2.16,2.16,0,0,0-.05,3.34C683.76,130.74,686.86,135.2,690,139.6Zm12.1-24.44-.06-.15.55,0Zm-11.38,9.5c-.78-.87-1.57-1.72-2.3-2.63-.13-.15,0-.54.06-.82.53.12,1.26.06,1.56.39A3.24,3.24,0,0,1,690.76,124.66ZM696.64,101a4.65,4.65,0,0,1-4-2.9c-.15-.37.3-1,.59-1.51.08-.13.66-.12.87,0A6.17,6.17,0,0,1,696.64,101Zm.21,30.6a4.68,4.68,0,0,1-1.91-1c-1.36-1.71-2.55-3.56-3.77-5.39C694.42,126.12,696.05,128.49,696.85,131.63Zm3.94,5.6a5,5,0,0,1-3.61-5.13C699.48,133,700.29,135,700.79,137.23Zm13.6-33.75a6.09,6.09,0,0,1,2.32,1.08c4.46,4.92,9.37,9.35,14.28,13.8a.94.94,0,0,1,.1.89c-.44.38-1.09,1-1.49.85a7.46,7.46,0,0,1-3.39-1.46c-3.54-3.6-6.95-7.32-10.3-11.1A5.74,5.74,0,0,1,714.4,103.47Zm-.3-.38c-4.23-.91-7.45-3.1-9.13-7.22C709.48,96.41,712.71,98.59,714.09,103.1Zm-2.71,14.16L712,117l-.44.41Zm0,0q-6.12-6.7-12.24-13.41a12.36,12.36,0,0,0,6.05-2.91c2.49,2.55,5.16,4.95,7,8l0,2.15C711.9,113.14,711.61,115.19,711.35,117.23Zm-5,319.25.46-.34.09.52ZM691,496.63c.13-.2.58-.46.68-.39.41.28,1,.65,1.05,1,.06.65-.53.9-1.22.7S690.62,497.24,691,496.63Zm-577.72,770c.18-.47.35-.95.56-1.4a1.2,1.2,0,0,1,.58-.6c.21-.07.5.1.76.16-.17.48-.19,1.15-.53,1.41A3.32,3.32,0,0,1,113.28,1266.59Zm-6.35-25.08a37.28,37.28,0,0,1-.93,3.76c-.11.32-1.25.71-1.44.54a8.72,8.72,0,0,1-3-7.46,2.05,2.05,0,0,1,2-1.5C105.65,1237.25,106.94,1238.76,106.93,1241.51Zm-.17,10.74c-.1,0-.22-.4-.33-.62l.59-.3C107.57,1251.87,107.49,1252.21,106.76,1252.25Zm29.52-14.5a14,14,0,0,1-.95,1.45l-1-1.34c0-.3-.1-.66,0-.9a13.19,13.19,0,0,1,1-1.44,11.2,11.2,0,0,1,1,1.35A1.09,1.09,0,0,1,136.28,1237.75Zm2.86,8.17c0,1.07-1,1.84-1.79,1.59a1.58,1.58,0,0,1-.47-2.36c.26-.39,1-.47,1.49-.7C138.64,1244.94,139.15,1245.44,139.14,1245.92Zm.44,11.2-.54.07.2-.58Zm18.79,29.78c.13-.46.76-.78,1.16-1.17.9-.1,1.6.38,1.82,1.54a1.63,1.63,0,0,1-.61,1.42C159.51,1289.12,158.06,1288,158.37,1286.89Zm-17.61-19,1.57.07h-1.59Zm5.28-8.18c0,.62-.38.74-.69.18-1.2-2.15-2.44-4.3-3.44-6.55a14,14,0,0,1-.67-3.36,19.55,19.55,0,0,1,1-1.94,1.1,1.1,0,0,1,.77-.39c.26,0,.71.11.78.28C145.17,1251.77,146.31,1255.63,146,1259.75Zm3.9,21.94c-1.09.41-2.25.64-3.12-.28-1.47-1.55-2.61-3.4-4.09-4.94-2.37-2.46-2.66-5.3-2-8.41C144.61,1272.06,148.08,1276.33,149.94,1281.69Zm.27.35c.56.55,1.14,1.09,1.65,1.68a1,1,0,0,1,.08.84c-.08.22-.48.54-.58.49-.46-.23-1.17-.52-1.23-.89A8.2,8.2,0,0,1,150.21,1282Zm1.21-23.48-.76-.56.54-.37Zm2.78-13.45c0,.17-.46.45-.68.44a2,2,0,0,1-1.9-1.6c.1-.26.14-.6.33-.74a1,1,0,0,1,.82-.14A2,2,0,0,1,154.19,1245.11Zm8.19,32.1c.13.43-.34,1.1-.64,1.59a.92.92,0,0,1-.79.3,15.31,15.31,0,0,1-6.45-3.41c-.59-.48-.61-1.65-.82-2.3a6,6,0,0,1,.35-1.12c.15-.26.44-.67.63-.65C158.27,1272,161.26,1273.41,162.39,1277.21Zm1.3-59.81c-.26.4-.88.58-1.35.85l-.41-.74a4,4,0,0,1,.11-.89c.38-1.07,1.9-1.69,2-.9A2.68,2.68,0,0,1,163.69,1217.4Zm.83,42.1c-2.4-2.38-2.22-5.48-2.3-8.5a3.66,3.66,0,0,0,0-.38c.07.1.25.17.65-.18a1.61,1.61,0,0,1,1.45.41C165.41,1253.71,165.88,1256.62,164.52,1259.5Zm1.68.65c-.27-.08-.55-.15-.81-.25s-.47-.19-.7-.29a2.37,2.37,0,0,1,.55-.19C166,1259.29,166.36,1259.55,166.2,1260.15Zm7.58,34.51c-.08.24-.09.59-.25.69a10.09,10.09,0,0,1-1.63.75s-.35-.58-.29-.63a6.33,6.33,0,0,1,1.36-1C173.15,1294.33,173.51,1294.57,173.78,1294.66Zm2.75,4.85,0,.75-.62-.49Zm104.3-151.72-.58-.41.58-.28Zm53.94-63-.67.34.08-.77Zm10.83-3.9-.52.44-.12-.7Zm17.81-2.08c0,.16-.34.32-.53.49-.23-.11-.57-.18-.66-.36a.74.74,0,0,1,.17-.71C363,1077.85,363.4,1078.08,363.41,1078.81ZM419,1075c-.22.11-.49.34-.66.28s-.23-.41-.34-.63c.23-.11.49-.34.67-.28S418.87,1074.73,419,1075Zm-120.42-36a1,1,0,0,1-1.29-1c.1-.29.12-.72.32-.84a5.73,5.73,0,0,1,1.71-.64,1,1,0,0,1,.75.47C300.43,1037.63,299.63,1038.76,298.56,1038.94ZM196.73,754.07a.94.94,0,0,1-.47-.67,8.69,8.69,0,0,1-.05-1.25,8.3,8.3,0,0,1,1,1C197.72,753.91,197.51,754.29,196.73,754.07ZM260.8,876.48a.73.73,0,0,1,.62-.38c.7.14.86.6.39,1.15-.09.11-.47,0-.72,0C261,877,260.75,876.69,260.8,876.48Zm-.4-13.36c.14.09.12.6,0,.85a10.17,10.17,0,0,1-.69,1.27c-.08-.44-.16-.87-.2-1.31C259.46,863.06,259.81,862.73,260.4,863.12Zm4.67-28a4.86,4.86,0,0,1-1,2.36c-.2.26-1.27.23-1.62-.07a11.15,11.15,0,0,1-1.62-2.07,15.89,15.89,0,0,1,2.14-1.24C264,833.71,265.15,834.26,265.07,835.14Zm1.71,9.6c.38.84,1.25,1.86,1,2.48a38.4,38.4,0,0,1-4.45,9.14c-.19.28-1.15.09-1.74,0a1.05,1.05,0,0,1-.71-.59,37.59,37.59,0,0,0-1.59-5.36c-.81-1.68-2.25-3-3.18-4.69a4,4,0,0,1-.33-2.72,4.58,4.58,0,0,1,1.58-2.12c.63-.53,1.59.07,2.17,1.21.71,1.4,1.36,2.84,2.13,4.21.58,1,2.15,1.14,3.36.2A14.81,14.81,0,0,0,266.78,844.73Zm2.08-21.35c0,.06-.41.3-.63.45a1.69,1.69,0,0,1-1.51-1.78c0-.72.6-1.26,1.05-.85A5.76,5.76,0,0,1,268.86,823.38Zm12.84,22.25c-.05.17-.34.27-.52.4l-.41-.61c.09-.22.14-.6.28-.64C281.65,844.61,281.91,844.95,281.69,845.64Zm36.6,85.89c0,.24-.28.49-.43.74l-.63-.43c0-.3-.09-.72.07-.86C317.84,930.44,318.26,930.67,318.29,931.52Zm.92,109.77a1.27,1.27,0,0,1,.83.28,1.55,1.55,0,0,1-.31,2.38,2.66,2.66,0,0,1-1.66,0c-.18,0-.28-.49-.42-.75A1.67,1.67,0,0,1,319.22,1041.29ZM321.4,864.9a.79.79,0,0,1-.62.46,1,1,0,0,1-1-1.23c.21-.16.44-.47.64-.46A1,1,0,0,1,321.4,864.9Zm5.31,87.86c.17-.2.33-.54.52-.56a.76.76,0,0,1,.59.46c.17.73-.17,1.05-.83.8C326.83,953.4,326.79,953,326.71,952.77Zm1-13c-.07.15-.35.21-.54.31-.11-.23-.34-.47-.32-.68.11-.78.48-.93.88-.38A.92.92,0,0,1,327.7,939.72Zm1.22-66.95a1.63,1.63,0,0,1-1.49.58,2.82,2.82,0,0,1-1.63-3c0-.41.75-.75,1.16-1.12A2.72,2.72,0,0,1,328.92,872.77Zm3.66,156.38a.76.76,0,0,1-.73.09c-.19-.11-.23-.46-.34-.7.19-.17.39-.49.58-.48C332.88,1028.1,333.08,1028.53,332.58,1029.15Zm44.9-386.73c1.48,6.87,1.64,13.91,1.76,20.92,0,1.37-.65,2.39-1.32,2.07a5.43,5.43,0,0,1-2.34-1.47c-2-3.25-3.94-6.55-5.69-9.94-2.06-4-2.22-8,1.18-11.47,2.43-2.47,3.12-5.44,3-8.75-.05-2.23,0-4.46,0-6.69h-.31c.2-3.17.4-6.35.63-9.52a1.17,1.17,0,0,1,.43-.8c.44-.29.88.08.92.92.16,3.5.37,7,.37,10.5A67.58,67.58,0,0,0,377.49,642.43Zm2.11-60.3c0,.11-.49.32-.65.25a1.39,1.39,0,0,1,0-2.19c.15-.08.64.13.65.25A6.8,6.8,0,0,1,379.6,582.12Zm5.34,53.15a10,10,0,0,1,1.77.31,2.85,2.85,0,0,1,1.65,3,2.22,2.22,0,0,1-1.66,2A6.62,6.62,0,0,1,384,641a2.68,2.68,0,0,1-1.92-3.6A3.16,3.16,0,0,1,384.94,635.28Zm3.51-14.22a6.55,6.55,0,0,1-.92,1.58,2.22,2.22,0,0,1-2.51.57,2.87,2.87,0,0,1-1.06-1.35,43.52,43.52,0,0,1-.4-4.36s0-.58,0-1.2c0-.31.11-.61.13-.92.07-.93.91-2,1.7-1.81a3.94,3.94,0,0,1,2.27,1.26A6.94,6.94,0,0,1,388.44,621.06Zm10.23,30.47a8,8,0,0,1-.39,1.85c-2.34,5.21-4.69,10.42-7.11,15.59a12.61,12.61,0,0,1-1.68,2.26c-.42.54-2.25.16-2.52-.5a8.67,8.67,0,0,1-.73-1.73c-.68-4.07-1.34-8.15-1.93-12.24-.84-5.87.24-7.42,5.95-8.64.93-.2,1.87-.31,2.58-.43a20.77,20.77,0,0,1,2.14.2,13.47,13.47,0,0,1,1.8.58A3.69,3.69,0,0,1,398.67,651.53ZM396,706.66a1,1,0,0,1,.15.87c-.08.18-.51.19-.79.28-.2-.24-.58-.49-.57-.72C394.84,706.19,395.33,706,396,706.66Zm13.92-32.11a5.52,5.52,0,0,1,2.83.21,15.83,15.83,0,0,1,7.43,4.18,7.67,7.67,0,0,1,1.38,2.46,4.21,4.21,0,0,1-1.24,4.35c-3,2-6.26,3.41-9.91,2.43a32.1,32.1,0,0,1-11.93-5.92A7.61,7.61,0,0,1,397.1,680c.38-.71.56-1.59,1-1.73C402,676.92,405.94,675.67,409.92,674.55ZM642,567.18a3.7,3.7,0,0,1-1.74,2.07c-1.73.79-3.76,1-5.4,1.91-5.8,3.21-11.09,1.88-16.22-1.48a21.82,21.82,0,0,1-2.27-1.76,7.84,7.84,0,0,0-5.34-1.76c-2.55,0-5.1.06-7.65.1a1.51,1.51,0,0,0-1.09,2.17c1.18,1.71,3.3,3.11,2,5.59-4.11-.39-8.17-.88-11.79-3.21a10.66,10.66,0,0,0-3.61-1.2,14.48,14.48,0,0,1-8.13-4.62,14.3,14.3,0,0,0-5.45-3.73c-6.34-2.31-11.69-6.52-17.87-9.1-.55-.23-1.28-.71-1.41-1.2-.81-3.26-4.07-3.8-6.1-5.68a8.37,8.37,0,0,0-5.26-2c-1.91-.15-3.82-.39-5.72-.37a44.11,44.11,0,0,1-16-2.3,10.08,10.08,0,0,0-4.68-.61c-8.15,1.17-16.54,1.44-24,5.72a4.27,4.27,0,0,1-2.73.63c-2.68-.59-5,.78-7.47,1.07s-5.11-.34-7.6,0a17.92,17.92,0,0,1-7.46-.94c-.38-.11-1.11.46-1.44.9a6.68,6.68,0,0,0-.66,1.77,3.17,3.17,0,0,1-3.7,2.25,19.26,19.26,0,0,0-4.74-.32,32.64,32.64,0,0,1-10.45,0,9.89,9.89,0,0,0-6.45,1.24,8.24,8.24,0,0,1-3.57,1.19,25.14,25.14,0,0,1-16.83-5.63,2.51,2.51,0,0,1-.71-1.68c0-.94.22-1.89.28-2.84.09-1.65-.61-2.5-2.12-2.48-3.06,0-6.13.15-9.22.19,1.38-3.79,4.28-6,7.86-7.56a85.69,85.69,0,0,1,25.91-6.65c6.35-.7,12.75-1.25,19.13-1.38,14.08-.28,28.14,0,42,2.69.84.16,1,.76.6,1.49a1.75,1.75,0,0,1-.71.63c-3.33,1.57-7,.19-10.38,1.18-.38.11-.64.78-.85,1.24,0,.09.36.54.61.6,4.38.91,8.8,1.62,13.13,2.7a21.68,21.68,0,0,0,9.47.41c1.86-.35,3.82-.19,5.71-.42.4,0,.75-.78,1-1.25.05-.09-.28-.58-.5-.64-.91-.25-1.85-.42-2.79-.59s-1.9-.27-2.84-.45c-1.13-.21-2-1.4-1.42-2s.88-1,1.4-1.11c3.84-.71,7.67-.14,11.44.45,6.63,1,13.23,2.31,19.84,3.46,23.71,4.12,46.72,10.81,69.33,18.92,6.61,2.37,12.95,5.48,19.37,8.35a20.3,20.3,0,0,1,4,2.58A3.1,3.1,0,0,1,642,567.18Zm-217.58,80a1.09,1.09,0,0,1,.45.66c.1.67-.29,1.18-.9,1-.35-.1-.55-.76-.82-1.17C423.41,646.95,423.85,646.75,424.46,647.15Zm28.32-10.34a15.78,15.78,0,0,0,4.71.23c3.42-.71,6.78-1.7,10.13-2.71,3-.91,5.93-2.3,9.2-2.12a1.12,1.12,0,0,1,.75.55c.14.25.2.76.05.92-3.31,3.41-6.55,6.9-10,10.12a11.88,11.88,0,0,1-8.32,2.93c-.54-.05-1.5-.08-2.43-.25-7.15-1.27-13-5-18.28-9.76a3.15,3.15,0,0,1,0-4.31,26,26,0,0,1,12-5.47,2.06,2.06,0,0,1,2,2.59c-.5,1.5-1.15,2.94-1.64,4.44A2.49,2.49,0,0,0,452.78,636.81Zm66.88-19a1.6,1.6,0,0,1,2,1.21c.12.86-.66,1.59-1.75,1.64-.49-.28-1.13-.44-1.42-.85C518,619.15,518.77,618,519.66,617.8Zm97.72-44.12c.29,0,.54.32.83.42.79.26.82.57,0,.75-2.73.62-5.48,1.12-8.2,1.78-2.56.62-4.14-.7-5.54-2.49C608.73,572.62,613.06,573.28,617.38,573.68Zm32.9-2.74h-.73l.36-.55ZM673,645.66c.08.61,1.21,1.22,0,1.83q0-.92,0-1.83Zm3.76-3.7h0c-1.06,1.38-1.64,3.28-3.7,3.61C674.09,644.17,674.64,642.24,676.75,642Zm.13-7.76c1.1,2.6.21,5.17-.13,7.75C675.33,639.35,676.64,636.79,676.88,634.21Zm2-2c-.18.7-1.28,1.17-2,1.79,1.76-6.73,3.36-13.46,3.54-20.48a40.59,40.59,0,0,1,1.13-6.57c0-.24.42-.49.69-.57s.51.33.53.53C683.44,615.63,681.08,623.91,678.9,632.2Zm-96,260a1,1,0,0,1,.52-.66,2.15,2.15,0,0,1,2.81,1.61c.08.23,0,.76-.18.8a3.12,3.12,0,0,1-1.66.24A1.81,1.81,0,0,1,582.93,892.17Zm2.62-55.64c-.06.09-.61-.08-.85-.25a16.19,16.19,0,0,1-1.26-1,6.75,6.75,0,0,1,1.48,0C585.74,835.42,586,835.95,585.55,836.53Zm-35.32,93.83a4.66,4.66,0,0,1-.27-1.71c.09-.45.61-.85,1-1.17.11-.09.72.16.75.32a2.63,2.63,0,0,1,0,1.64C551.43,929.88,550.78,930.09,550.23,930.36Zm-4-2.08a1,1,0,0,1,.89,0c1,.66,2,1.39,3.05,2.09h0c-1.24-.25-2.5-.41-3.7-.78C545.68,929.36,545.61,928.73,546.24,928.29ZM542,935.83c0-.15.43-.43.68-.47,1-.14,1.89.12,2.17,1.14.09.35-.49.88-.76,1.33-.58-.13-1.3-.1-1.69-.45S542,936.37,542,935.83Zm-13.72-1.11a2.82,2.82,0,0,1,.09-.88c.41-.91,2-1.1,3.21-.41a1.75,1.75,0,0,1,.69,2.34,2.26,2.26,0,0,1-1.39,1A2.6,2.6,0,0,1,528.28,934.72Zm-8.55,4.66a3.49,3.49,0,0,1,1.6-.21c.77,0,1.08.42.8,1-.08.17-.48.29-.72.28C520.17,940.43,519.18,939.67,519.73,939.38Zm-16.12,9.37c.46-.21.93-.44,1.41-.61a6.78,6.78,0,0,1,.32.67c-.46.2-.92.42-1.4.57A4.14,4.14,0,0,1,503.61,948.74Zm-54.66,8.55c.31-1.39.8-2.74,1.23-4.11a40.25,40.25,0,0,1,1.63,3.95c.11.33-.46,1-.89,1.34C450.31,958.91,448.79,958,448.95,957.3Zm-35.88-4.15c.29.06.65,0,.85.2a1.08,1.08,0,0,1,.38.8c0,.16-.43.29-.67.43-.24-.19-.58-.35-.69-.6S413,953.43,413.07,953.14Zm-2.3,73.53c.09-.27.18-.77.27-.77.9,0,1.09.45.5,1.12C411.48,1027.08,411,1026.8,410.76,1026.67ZM392.24,949c.4-.31.88-.93,1.18-.85s.73.74,1.08,1.14l-1.21.92ZM389.62,941a15.83,15.83,0,0,1-3.51-8.2c3.67,1.2,5.45,3.68,4.95,7.67a1,1,0,0,1-.58.69A.94.94,0,0,1,389.62,941Zm-6.53,9.78c.54-.1,1.09-.22,1.64-.27a1.66,1.66,0,0,1,.88.17c.22.12.56.49.51.58-.28.55-.73.46-1.4,0A6.29,6.29,0,0,0,383.09,950.75ZM380.62,945a6.54,6.54,0,0,1,.83-1.52c.46.32,1.09.53,1.35,1,1.2,2,.68,4.15.17,6.19C381.37,949.13,380,947.46,380.62,945Zm-1-11.94a1,1,0,0,1,1.4.75,2.19,2.19,0,0,1-.87,2.3c-.31-.76-.63-1.51-.88-2.29A.86.86,0,0,1,379.59,933.09Zm-4.87-12.77a3.69,3.69,0,0,1,2.65,0c2.28,1.55,4.4,3.33,6.58,5q.87,3.37,1.73,6.75a33.36,33.36,0,0,1-4.81-3.8,26.89,26.89,0,0,0-5.72-5,2.4,2.4,0,0,1-1.07-1.46C374,921.38,374.36,920.42,374.72,920.32Zm-10.3,5.49c.39-.57.57-1,.73-1a2.64,2.64,0,0,1,1.59.36,5.79,5.79,0,0,1,2,4.94,3,3,0,0,1-.83,1.57c-.45.49-2.13-.06-2.31-.77C365.12,929.12,364.76,927.33,364.41,925.81Zm-5.72,3.57a1,1,0,0,1,.34-.76c.65-.4,1.1-.14,1.32.64s0,1.25-.63,1.39c-.21,0-.55-.23-.72-.44A1.38,1.38,0,0,1,358.69,929.38Zm-4,14.87a.77.77,0,0,1,.65-.39c.72.17.86.65.36,1.2-.1.12-.5,0-.76-.05C354.87,944.76,354.65,944.46,354.71,944.25Zm-5.5,71a21.21,21.21,0,0,1,4.24,1.92,1.64,1.64,0,0,1,.18,1.56,5.24,5.24,0,0,1-5.23,1.37c-.78-.21-1.37-1.11-1.8-1.49C346.14,1016.53,347.65,1014.75,349.21,1015.22Zm-10.24-3a1.59,1.59,0,0,1,1.53.31,1.75,1.75,0,0,1-.18,2.46c-.17.17-.56.13-.84.19-.25-.17-.61-.27-.74-.51A1.78,1.78,0,0,1,339,1012.23Zm-.27-81-.24-.63c.2-.07.48-.24.58-.17s.18.4.27.61Zm25.68-319.17c-.75.32-1.48-.55-1.43-1.68s.79-2,1.49-1.68a2.11,2.11,0,0,1,1.06,1.24A1.78,1.78,0,0,1,364.39,612.07Zm6.88,266a50.81,50.81,0,0,0,5.56,1.48c3.74.85,7.52,1.53,11.24,2.46,5.69,1.43,11.41,1.28,17.16.75a24.85,24.85,0,0,0,10-3,49.63,49.63,0,0,1,14.11-5.81c2.87-.61,5.11-2.45,7.09-4.67,6.37-7.14,8.35-15.74,7.87-24.9-.52-9.94-3-19.56-6-29-.67-2.13-1.49-4.23-2-6.41-3-12.76-5.07-25.7-8-38.47a13.41,13.41,0,0,1-.29-3.81,34.18,34.18,0,0,0-1.45-13.24c-.28-.83,1-1.57,2-1.2,1.2.44,2.36,1,3.58,1.36,6,1.82,11.77,4.3,18.09,4.8a6.14,6.14,0,0,0-1.74-1.77c-4.65-2.14-9.31-4.26-14.06-6.14a73.65,73.65,0,0,1-11.88-6.22,67.52,67.52,0,0,1-24.2-25.36,6.91,6.91,0,0,1-.37-2.8,1,1,0,0,1,.5-.74.9.9,0,0,1,.84.07c1.73,2.29,3.51,4.54,5.1,6.93C410.22,731,419,735.59,427.89,740c1.29.64,3.38-.43,3.8-2,.66-2.46,1.27-4.94,1.68-7.45.57-3.47.38-7.17,1.52-10.41,2.42-6.92,4.9-13.8,6.76-20.9a25.82,25.82,0,0,1,1.59-3.49,16.93,16.93,0,0,0,1.75-7.42,21.08,21.08,0,0,1,4.08-13.49,5.69,5.69,0,0,0,.65-1.79,4.4,4.4,0,0,0-1.21-4.4,9.64,9.64,0,0,0-3.13-2.13c-1.77-.72-3.67-1.09-5.49-1.67a3.5,3.5,0,0,1-.18-6.19,14.71,14.71,0,0,1,4.48-1.45,25.19,25.19,0,0,1,4.77.33,70.24,70.24,0,0,0,8.6.6c3.95-.18,7.58.28,11,2.5,1.38.9,4.14-.13,5.1-1.57a24.13,24.13,0,0,0,1.45-2.47c2.17-4.28,4.34-8.56,6.46-12.86,3.21-6.5,8.59-9.22,15.62-8.83a42.83,42.83,0,0,1,6.6,1.16c1.87.4,3.71,1.38,5.56,1.37a30.27,30.27,0,0,1,10.22,2.19c5.58,1.95,10.78,1.1,15.18-3a65.78,65.78,0,0,1,10.17-7.13c2.64-1.65,4.89-1.14,7.11.38a49.66,49.66,0,0,1,11.55,11.42c1.35,1.79,2.66,3.61,3.9,5.47a11.28,11.28,0,0,0,5.9,4.65,29.56,29.56,0,0,1,10.07,5.42c.66.58.83,2.09.18,2.59a48.12,48.12,0,0,0-5.32,4,18.09,18.09,0,0,1-11.77,5.77c-2.43.19-4.6,1.64-4.93,3.94-.82,5.74-4.05,8.36-9.56,8.75-.29,0-.56.29-.85.42-2,.88-2.71,4.25-1.15,5.73a15.89,15.89,0,0,0,3,2.41c12,6.77,24,13.4,37.23,17.53.61.19,1.21.42,1.8.65a3,3,0,0,1,1.46,4c-.44,1.2-1,2.34-1.52,3.52a2.78,2.78,0,0,0,.91,3.4,28.94,28.94,0,0,1,4.12,3.94A20.28,20.28,0,0,0,607.84,731c1.83.55,3.64,1.21,5.41,1.92a10.37,10.37,0,0,0,5.62.77,36.86,36.86,0,0,1,11.47-.05,4.74,4.74,0,0,0,4.29-1.67,14.16,14.16,0,0,0,1.84-2.21c3.59-6,7.6-11.9,10.59-18.23,7.91-16.77,16-33.48,21.74-51.19a17.49,17.49,0,0,1,1.85-3.3c.42-.7,2-.59,2.49.25a6,6,0,0,1,1,2.58,10.41,10.41,0,0,1-.68,3.74c-3.89,10.15-7.72,20.33-11.83,30.39-3.63,8.87-7.51,17.64-11.48,26.37-1.45,3.18-3.49,6.09-5.2,9.15-3.89,7-7.89,13.91-12.4,20.53a93.31,93.31,0,0,1-15.22,17.21,38.72,38.72,0,0,1-15,8.23,92.46,92.46,0,0,1-21.76,3.33,232.63,232.63,0,0,1-43.07-2.05c-18.23-2.44-36.39-5.39-54.26-9.91.86.8,1.65,1.86,2.66,2.14,4,1.12,8.09,1.86,12.11,2.88a376.8,376.8,0,0,0,39.54,7.47c7.91,1.12,15.84,2.22,23.79,2.91,11.5,1,23,1,34.41-1.18a50.07,50.07,0,0,0,14.54-4.74c6.75-3.67,13.34-7.58,18.41-13.57,3.1-3.66,6.37-7.16,9.44-10.85,2.46-2.95,4.76-6,7.05-9.1,1.89-2.53,4.18-3.92,7.42-3a21.68,21.68,0,0,0,10.45.3c4.22-.86,7.44,1.17,10.57,3.46a4.15,4.15,0,0,1,1.65,2.27c.76,4.37,3.66,6.52,7.56,7.78a7.88,7.88,0,0,1,1.68.91,3.94,3.94,0,0,1,2,3.08c.23,4.14.45,8.28.43,12.42,0,3.21-.44,6.35-3.23,8.67a6.67,6.67,0,0,0-2,3.21c-1,3.64-3.72,5.85-6.18,8.37a6,6,0,0,1-5,2.22,2,2,0,0,0-1.49,1c-.57,1.13-.77,2.44-1.35,3.56a59,59,0,0,1-3.36,5.75,3.7,3.7,0,0,1-4.31,1.22,2.82,2.82,0,0,1-.87-.39c-2.77-2.3-5.24-1.61-7.69.6a30.15,30.15,0,0,1-3.18,2.14c-2.7,1.87-5.55,3.09-9,2.62-1.25-.17-2.74-.42-3.78.09-2.8,1.37-5.58.81-8.45.69-3.83-.16-7.7-.1-11.36,1.3a17.63,17.63,0,0,0-3.29,1.87,2.69,2.69,0,0,0-.33,3.46c.84.95,1.85,1.75,2.6,2.76a2.62,2.62,0,0,1,.15,1.81c-.14.76-1.71,1.26-2.48.86a18.18,18.18,0,0,1-2.48-1.39c-1-.76-1.89-1.71-2.89-2.48a3.09,3.09,0,0,0-3.53.54,24.15,24.15,0,0,0-2.64,4c-1.48,3.18-3.77,5.21-7.31,5.35a10.15,10.15,0,0,0-7.45,3.81c-1,1.14-2,2.31-2.93,3.45a15.54,15.54,0,0,0-3.76.2,37.07,37.07,0,0,1-12.18,1.95,3.49,3.49,0,0,0-1.84.45,5.85,5.85,0,0,0-2.13,1.78c-.52.9.16,1.72.89,2.4,3,2.79,3,2.86.48,4.74a27.54,27.54,0,0,0-3.73,2.94,7.24,7.24,0,0,0-.14,9.6c2.2,2.3,4.57,4.42,6.91,6.57,2.58,2.37,5.24,4.65,7.79,7a20.5,20.5,0,0,1,2.37,3,3,3,0,0,1-1.22,4.73,13.89,13.89,0,0,1-1.83.56c-1,.31-1.51.85-1.08,2,.31.85.85,2,.53,2.65-1.78,3.73-2.62,7.88-5.07,11.31a5.19,5.19,0,0,0-1,2.65,4.55,4.55,0,0,0,.89,2.49c.31.46,1.1.57,1.66.88,1.75,1,2.12,2.36,1.13,3.95a8.61,8.61,0,0,1-6,4.41c-3.46.59-6.91,1.17-10.35,1.86a7.78,7.78,0,0,0-2.49,1.22,1.86,1.86,0,0,0,.2,3.09,18.09,18.09,0,0,1,2.62,1.06,1.88,1.88,0,0,1,.59,1.62,2.13,2.13,0,0,1-1.21,1.31,5.17,5.17,0,0,1-2.76.36c-1.53-.38-2.93-1.22-4.44-1.7a3.18,3.18,0,0,0-3.53.78,6.56,6.56,0,0,1-5.79,2.66c-1.91-.14-4.07-.23-5.5,1.12-3.36,3.17-7.87,4.12-11.65,6.46-3.13,1.94-6.36,2.78-10,1.25-1.58-.67-3.11.06-4.39,1.17a9.17,9.17,0,0,0-3.33,6.61c-.19,2.53-.59,2.79-3,2.23-2.1-.49-3.83-.42-5.06,1.44s-2.81,2.24-4.92,1.47c-3.52-1.29-7.6-1.23-10.3-4.45a.88.88,0,0,0-.83,0,3,3,0,0,0-.62,1.63,10.75,10.75,0,0,0,.9,2.7c1.07,2.44.16,4.37-1.62,6a15.87,15.87,0,0,1-3.11,2.15,25.61,25.61,0,0,1-2.72.91c-1.42.57-1.77,1.59-.6,2.94,1.36,1.58,2.15,3.18,1.56,5.21-.53,1.85-1.25,3.68-3.09,4.62a2,2,0,0,1-1.76-.18,4.32,4.32,0,0,1-1.61-2.23c-.63-4.45-3.32-6.39-7.5-7.5-3.3-.87-6.33-2.77-9.41-4.18-.61-3.42-1.51-4.33-4-3.82-1.87.4-3.72.91-5.57,1.41a1.72,1.72,0,0,0-.91,2.39c.52.8,1.19,1.5,1.73,2.28.16.23.25.79.12.89a2.87,2.87,0,0,1-1.5.76,3.28,3.28,0,0,1-1.76-.64c-4.4-3.11-7.26-8.08-12.43-10.33-.78-.34-1.22-1.44-1.83-2.17a21,21,0,0,0-1.87-2.18c-1.88-1.72-3.79-3.41-5.78-5-.27-.22-1.08.18-1.6.38a1.26,1.26,0,0,0,.13.89c3.56,4.13,6.71,8.51,8.5,13.74a1.06,1.06,0,0,1-.17.86c-.42.52-1,.43-1.52-.18-2.75-3.09-6.14-5.59-8.36-9.19a5.72,5.72,0,0,0-4-2.41,11.23,11.23,0,0,0-2.83-.44c-4.63.37-7-2.35-8.66-6.11a39.64,39.64,0,0,0-2.73-5.05c-.49-.76-1.48-1.85-2.09-1.76-3.36.52-5.89-2.14-9.05-2.17-2-5.83-4.76-10.87-11.46-12.39a2.46,2.46,0,0,1-.83-.46,4,4,0,0,1-1.95-3.11c0-1.9.13-3.81.06-5.71a7.76,7.76,0,0,0-.68-2.75,3.29,3.29,0,0,0-1.32-1.26c-.53-.33-1.86.75-2,1.61a29.2,29.2,0,0,0-.48,3.76c0,1.58.31,3.19.12,4.75a3.27,3.27,0,0,1-1.6,2.15,3,3,0,0,1-2.64,0,39.29,39.29,0,0,1-4.89-4.49,5.89,5.89,0,0,1-1.53-5.31,3.27,3.27,0,0,0-1.87-3.87,16.65,16.65,0,0,1-3.63-3,4.91,4.91,0,0,1-1-5.32l0,.07c-6.6-2.82-9.13-8.54-10.63-15a3.41,3.41,0,0,1,1.78-3.14c3.55-1.84,7.17-2.51,11.08-1.06C357.41,873.18,364.34,875.64,371.27,878.06ZM336.35,540.64c.38-.44.85-1,1.35-1.1,4-.53,7.49,1.14,10.89,2.9a3.91,3.91,0,0,1,1.73,3.27c.39,3.36,2.76,4.87,5.59,5.87a20.27,20.27,0,0,0,3.72.84c1.58.24,3.18.29,4.76.53a3.45,3.45,0,0,1,3,2.13,59.27,59.27,0,0,0,5.84,13c.22.35-.09,1.27-.44,1.69s-1.08.56-1.73.86a13.31,13.31,0,0,1-2.73-.46c-6.55-2.52-12.82-5.7-19.63-7.59a5.81,5.81,0,0,1-3.73-4.14c-1.9-6.14-4.42-11.94-8.6-16.92A.93.93,0,0,1,336.35,540.64ZM223,461.94c-.66.36-1.3.54-1.84-.32,0,0,.38-.47.46-.43A14.07,14.07,0,0,1,223,461.94Zm-5.08,32a9.27,9.27,0,0,1,6.82.29C222.42,494.66,220.16,494.1,217.88,493.92Zm-4.42,59a3.09,3.09,0,0,1,3.62,2.28,3.76,3.76,0,0,1-3.37,4.73,3.17,3.17,0,0,1-3.27-2.78A3.89,3.89,0,0,1,213.47,553ZM84.36,493a1.85,1.85,0,0,1,2.4-.31,1.59,1.59,0,0,1,.89,2.2c-.12.25-.4.42-.6.63a2.65,2.65,0,0,1-2.85-1.68A1,1,0,0,1,84.36,493Zm-4.86-9c1-1.5,2-3,3-4.49a1.89,1.89,0,0,1,2.45-.28,2.21,2.21,0,0,1,.31,2.52,4.35,4.35,0,0,1-2.38,2.6C81.64,484.93,80.56,484.25,79.5,484Zm-3,10.12c.73-2.2,1.48-4.39,2.16-6.6.35-1.13.54-2.31.8-3.46C81.06,488.22,80.42,491.67,76.53,494.13ZM76.11,496l.26-1.26a1.85,1.85,0,0,1,0,.52A2.57,2.57,0,0,1,76.11,496ZM66,486.3a44.92,44.92,0,0,1,7.08-16.66,26.13,26.13,0,0,1,11.52-9.81,49.38,49.38,0,0,1,6.23-2.47c6.78-1.88,13.61-3.55,20.68-4,16.62-1,33.2-1.13,49.76,1.28,7,1,13.89,2.09,20.77,3.53,17,3.56,33.24,9.31,49.11,16.2a152.51,152.51,0,0,1,27.4,15.75,67.82,67.82,0,0,1,11.32,10.33c4.52,5.08,8.12,10.7,8.92,17.68a1,1,0,0,1-.46.76.91.91,0,0,1-.85-.18c-2.08-4-4.93-7.4-7.58-11a25.15,25.15,0,0,0-10.31-8.25,24.55,24.55,0,0,0-9.2-2.42,18.35,18.35,0,0,1-12.83-5.69c-2.22-2.27-5.6-2.95-7.43-5.78a2.74,2.74,0,0,0-2.6-.58c-3.32,1.79-6.78,1.43-10.28,1.16a1.86,1.86,0,0,0-1.87,2.62c.67,1.75,2.35,3,2.38,5.06-3.43-.62-6.84-1.35-10.29-1.83-5.38-.76-10.65-1.2-16,1.1-3.75,1.62-7.86,2.2-11.19,5-1.6,1.36-4.11,1.66-6.2,2.44-.89.33-1.8.64-2.68,1a4.22,4.22,0,0,0-1.55,3.34c.37,1.21.87,2.39,1.26,3.59,1.14,3.52,3.77,5.05,7.25,5.25a19.36,19.36,0,0,0,5.72-.32,9.31,9.31,0,0,1,8.19,1.26c1.62,1.13,3.71,1,5.59.71,2.51-.43,5-1.11,7.46-1.72,2-.49,3.87-.62,4.8,1.74.8,2,2.94,2.31,4.42,3.45a2.31,2.31,0,0,1-.25,3.36,18.79,18.79,0,0,1-4.25,2.07A87.13,87.13,0,0,0,193.82,530a18.37,18.37,0,0,1-4.53,1.51,6.37,6.37,0,0,1-5.42-1,45.07,45.07,0,0,1,1,4.59,1.79,1.79,0,0,1-1,1.43c-2.17.35-4.38.49-6.58.75-.15,0-.38.48-.33.68a1,1,0,0,0,.59.6c.59.23,1.24.31,1.83.55,1.58.64,1.78,1.95.49,2.89-.51.38-1.06.71-1.6,1-.27.16-.61.22-.88.38-1.59,1-1.73,1.33-.77,2.94,1.48,2.48,3.22,4.85-.43,7.09-.67.41-.82,1.67-1.22,2.53-.94,2-1.82,4.1-2.86,6.07a7.46,7.46,0,0,1-5.25,3.8,2.57,2.57,0,0,1-2.38-1.27,12.68,12.68,0,0,1-.75-2.73c-.37-5.42-1-10.83-.36-16.27a4.34,4.34,0,0,0-2-4.11c-1.52-1.16-3.19-2.12-4.76-3.22a30.78,30.78,0,0,1-4.54-3.46,239,239,0,0,0-18.25-16.92c-3.9-3.3-7.5-7-11.22-10.47a5.22,5.22,0,0,1-1.28-6.13c4.76-12.56,9.93-25,15.36-37.24.77-1.75,1.44-3.54,2.09-5.34a2.92,2.92,0,0,0-1.75-3.07,26.87,26.87,0,0,0-13.26-.39,6.34,6.34,0,0,0-3,2.17,13.8,13.8,0,0,0-1.86,3.33c-3.75,8.13-7.46,16.28-11.21,24.41-.67,1.44-1.48,2.82-2.28,4.2a3.14,3.14,0,0,1-3.5.67c-1.57-1.09-3.07-2.27-4.61-3.39-1.78-1.29-2.87-1.16-5.06.63-.49.4-.84,1.07-1.38,1.28a2.65,2.65,0,0,1-1.64-.26.89.89,0,0,1-.31-.81c.67-1.77,1.44-3.5,2.11-5.26a3.11,3.11,0,0,0-.71-3.52c-1.14-1.12-2.35-2.16-3.51-3.26a4.51,4.51,0,0,1-1.39-5.17c.54-1.5,1.06-3,1.5-4.54a1,1,0,0,0-.92-1.29,1.35,1.35,0,0,0-.91.14c-7.9,5.84-13.42,13.54-17.5,22.37a1.08,1.08,0,0,1-.71.57C66.18,487.58,65.88,487.1,66,486.3Zm138.73,10.15c-.63.6-1.6.38-2.41-.52a3.52,3.52,0,0,1-.42-.82c.06-.28,0-.64.22-.82a1.13,1.13,0,0,1,.81-.27,1.49,1.49,0,0,1,.86.33,7.15,7.15,0,0,1,1.2,1.33C205.1,495.83,204.93,496.28,204.75,496.45Zm-8,13.86a6.71,6.71,0,0,1-2.7.42c-1,0-1.91-1.2-1.57-1.92a2.8,2.8,0,0,1,1.2-1.28,5.89,5.89,0,0,1,1.83-.26c.3.07.69,0,.9.22.44.38,1.05.84,1.11,1.33A1.76,1.76,0,0,1,196.71,510.32Zm-9.55-6.75a7.23,7.23,0,0,1-2.44,1.18,2.11,2.11,0,0,0-2.14,2.44,1.62,1.62,0,0,1-1.74,1.73c-1.21,0-2.07-1.24-1.93-2.7a16,16,0,0,1,.26-1.85c.49-2.28,1.44-3.14,3.79-3.44.62-.08,1.25-.07,1.86-.1a5.39,5.39,0,0,1,1.78.46,3,3,0,0,1,.88,1.45A.92.92,0,0,1,187.16,503.57Z"/><path class="cls-1" d="M307.67,146.3l.12.35-.08-.32Z"/><path class="cls-1" d="M311.18,150.81l0,.53.09-.47Z"/><path class="cls-1" d="M347.79,133.29l-.17.59.24-.44Z"/><path class="cls-1" d="M359.26,112.42l-.06,0-.06.44Z"/><path class="cls-1" d="M365.35,94.79l-.29.5.42-.46Z"/><path class="cls-1" d="M497.91,115.14c0-.08,0-.15-.07-.22l0,.79A2,2,0,0,0,497.91,115.14Z"/><path class="cls-1" d="M547.77,87.08l-.3.53.4-.46Z"/><path class="cls-1" d="M554.73,89.94l-.37.43,0,.09Z"/><path class="cls-1" d="M1062.74,542.27l-.46-.5A2.5,2.5,0,0,0,1062.74,542.27Z"/><path class="cls-1" d="M820,162.32l-.07,0v.51S820,162.33,820,162.32Z"/><path class="cls-1" d="M817.29,161.57l-.65-.18v.06Z"/><path class="cls-1" d="M811.51,153.74l-.29-.07v0Z"/><path class="cls-1" d="M807.42,150l-.22,0v0Z"/><path class="cls-1" d="M781.31,128.4l-.51.07,0,.12Z"/><path class="cls-1" d="M758.34,136l-.31.19h0Z"/><path class="cls-1" d="M668.21,224.48s0,0,0-.12l-.34.14Z"/><path class="cls-1" d="M698.14,110.45a2.51,2.51,0,0,0-.53-.8Z"/><path class="cls-1" d="M696.12,108.28l-.53-.55A2.38,2.38,0,0,0,696.12,108.28Z"/><path class="cls-1" d="M704.75,101.14l.4-.25,0,0Z"/><path class="cls-1" d="M126.37,1207.21l0,0S126.4,1207.2,126.37,1207.21Z"/><path class="cls-1" d="M225.16,494.38l-.1,0-.3.5Z"/><path class="cls-1" d="M508.79,116.12a1.46,1.46,0,0,1,0,.31l.1.4Z"/><path class="cls-1" d="M135,942.37a13.07,13.07,0,0,0,3-1.26c2.09-1.46,4-3.12,6-4.74,7.58-6.17,10.31-6.75,19.32-3.76,4.54,1.51,9,3.27,13.54,4.76a19.54,19.54,0,0,0,4.67.68,2.93,2.93,0,0,0,2.7-2.33c.37-1.38,0-3-.9-3.49-5.67-2.8-10.88-6.42-17.48-7.36-6.26-.88-12.61-2-18.35-5.1a19.75,19.75,0,0,0-4.55-1.48,6,6,0,0,0-5.41,1.21c-1.49,1.2-2.83,2.58-4.29,3.83-2.93,2.5-6,4.83-9.85,5.71-3.29.74-5.44,3.2-7.76,5.38a2.09,2.09,0,0,0-.09,2.61c1.23,1,2.42,2.39,3.83,2.72,4.64,1.09,9.38,1.77,14.08,2.6A12.35,12.35,0,0,0,135,942.37Z"/><path class="cls-1" d="M282.3,587a7,7,0,0,0,1.7,4.36c.94,1.07,2.61,1.37,3.39.53a5.09,5.09,0,0,0,.67-.68,16.79,16.79,0,0,1,7.69-6.88c2-.87,2.35-2.79,1.43-4.91a6.92,6.92,0,0,0-.93-1.67c-1.41-1.7-1.17-3.39-.45-5.35.61-1.65-.23-3-1.77-4a5.82,5.82,0,0,0-.83-.47c-1.46-.6-3-1.46-4.49-.33s-1.76,3.22-.79,5.16c.43.85,1.12,1.57,1.47,2.44a5.68,5.68,0,0,1-.54,5.49c-1.25,1.84-2.6,3.65-4.76,4.59l.21-.28L282,587.3Z"/><path class="cls-1" d="M155.4,855.38c2,1.62.85,4.2,1.94,6.06.18.32,1.18.43,1.64.24a2.24,2.24,0,0,0,1.24-1.33c1.16-5.41,4.3-9.67,7.76-13.77.41-.48.81-1,1.23-1.43a2.55,2.55,0,0,0,.42-3.39c-.63-1.07-.87-2.36-1.41-3.49a.91.91,0,0,0-1.6-.22c-.68.65-1.16,1.71-1.95,2-3.94,1.53-5.14,4.16-4,8.19a4.42,4.42,0,0,1-1.53,4.27c-1.12,1.1-2.39,2-3.59,3.07Z"/><path class="cls-1" d="M110.64,1197.15c-.5,1.51-.89,3.07-1.52,4.53-.92,2.11-3.1,2.49-4.56.86-.63-.7-1.06-1.59-1.68-2.3s-2.87-.35-3.26.71a8.21,8.21,0,0,0,.93,7.25c1.47-.11,3.12-.78,3.8,1.36a37.47,37.47,0,0,0,1.54,4.42c.15.33,1.18.46,1.73.34a3.69,3.69,0,0,0,1.45-1.07,1.66,1.66,0,0,0,.41-.85c1-5,1.94-10,1-15.18Z"/><path class="cls-1" d="M347.37,40.44c1-.26,1.58-.37,2.16-.59.28-.1.68-.38.69-.59a2.78,2.78,0,0,0-.28-1.71,5.45,5.45,0,0,0-2.17-1.69c-2.66-.92-5.4-1.6-8.07-2.47-3-1-5.56-.06-8,1.65a2,2,0,0,0-.74,1.54,1.75,1.75,0,0,0,1,1.27c4,.67,8.1.77,12,2.3A10.84,10.84,0,0,0,347.37,40.44Z"/><path class="cls-1" d="M266.94,600.48c.09,1.9.16,3.8.29,5.69a1.09,1.09,0,0,0,.56.73,1,1,0,0,0,.91,0,12.39,12.39,0,0,1,9.5-3.54c.33,0,1-.86,1-1.37a2.14,2.14,0,0,0-.75-1.56,2.75,2.75,0,0,0-1.73-.63c-3.1.12-4.54-1.87-5.7-4.28-.14-.29-.32-.55-.47-.83l.25-.08a6.83,6.83,0,0,1-4.11,6.14Z"/><path class="cls-1" d="M306.64,1054.59c-5.29-.27-10.42.83-15.52,2-.63.15-1.28,1.31-1.43,2.1a7.93,7.93,0,0,0,.44,2.69l-.24-.24c5.27-.25,10-1.7,13.93-5.52a7.52,7.52,0,0,1,2.6-1.13Z"/><path class="cls-1" d="M203.24,1064.86a2.36,2.36,0,0,0,.8-.28,1.31,1.31,0,0,0,.44-.77c.32-3.09-1.83-5.26-3-7.81-.1-.23-.49-.33-.74-.49-.15.27-.45.54-.44.79a20.57,20.57,0,0,0,2.12,8.14C202.58,1064.66,203,1064.73,203.24,1064.86Z"/><path class="cls-1" d="M278.69,587.4l3.61-.37-.26.27,2.26-2.26-.21.28c-.55-3-1.21-6-4-7.88l.28-.12a7.24,7.24,0,0,1-2.15,4.28l.25-.28.4,6.23Z"/><path class="cls-1" d="M193.45,1041.84a48.07,48.07,0,0,0-10.37,8.36h-.25c1.81.32,3.63.66,4.93-1.15,1.76-2.44,4.28-4.32,5.43-7.22Z"/><path class="cls-1" d="M176.31,684c-1.12,0-2.24,0-3.36,0a4.3,4.3,0,0,0-1,.29c.79,1-.4,0,.87.08s2.34,0,3.51,0Q176.31,684.23,176.31,684Z"/><path class="cls-1" d="M159,824.25a2.11,2.11,0,0,0,.22.79c.17.21.54.44.74.39a34.51,34.51,0,0,0,3.29-1.11c.13-.05.19-.55.12-.79a1,1,0,0,0-.53-.64A3.17,3.17,0,0,0,159,824.25Z"/><path class="cls-1" d="M430.42,511c3.6,1.74,7.32,1.15,11.37.5-3.88-1.79-7.56-.19-11.22-.41Z"/><path class="cls-1" d="M692.43,411.29c.66-.22.87-.66.52-1.23-.12-.2-.53-.44-.65-.38a7.19,7.19,0,0,0-1.08.88Z"/><path class="cls-1" d="M303.73,577.49c.08.27.08.65.27.79a18.08,18.08,0,0,0,2.12,1.39c.09,0,.56-.29.57-.45a2.53,2.53,0,0,0-2.3-2.18C304.19,577,303.94,577.34,303.73,577.49Z"/><path class="cls-1" d="M702.51,84c1.14-.25,2.29-.48,3.42-.78.23-.06.57-.44.54-.62-.1-.54-.23-1.38-.56-1.51a22.34,22.34,0,0,0-3.36-.74l.26-.25q0,2.06,0,4.13Z"/><path class="cls-1" d="M615.85,78.38c.19-2.11-.93-3.62-2.36-4.92-.38-.34-1.1-.31-1.66-.45,0,.52-.25,1.18,0,1.54a9.18,9.18,0,0,0,4.26,3.65Z"/><path class="cls-1" d="M189,840c-.27.05-.61,0-.8.17a12.55,12.55,0,0,0-1.15,1.16c.22.15.42.42.65.44a1.56,1.56,0,0,0,1.85-1.26C189.62,840.35,189.24,840.14,189,840Z"/><path class="cls-1" d="M171.15,858.43c-1.54.16-3.15.17-4.2,1.58a.91.91,0,0,0-.07.81c.11.2.61.42.7.34,1.17-1,2.31-2,3.45-3Z"/><path class="cls-1" d="M252.28,630.06c.25-.58.5-1.17.76-1.75.13-.29.3-.56.41-.86s.32-.79.21-.88c-.53-.45-1.12-.21-1.24.61a18,18,0,0,0,0,2.81Z"/><path class="cls-1" d="M241.56,635.16c-.59.73-1.21,1.44-1.76,2.21-.17.23-.29.8-.2.86a.89.89,0,0,0,1.45-.51,16.77,16.77,0,0,0,.25-2.74Z"/><path class="cls-1" d="M183.46,1058.6l.18.74c.48-.13,1.09-.12,1.41-.41.5-.46.31-1.16-.33-1.21C184.32,1057.68,183.88,1058.28,183.46,1058.6Z"/><path class="cls-1" d="M290.13,1061.39c-.5.24-1,.45-1.5.73-.22.13-.53.44-.5.6.16.64.58.63,1-.06a14.87,14.87,0,0,0,.73-1.5Z"/><path class="cls-1" d="M262.2,607.81c-2.55-.17-4,1.88-6,2.88v-.07c2.49.1,4.13-1.61,6-2.88Z"/><path class="cls-1" d="M519.71,265.41a6.29,6.29,0,0,0,.07-1.68,4.72,4.72,0,0,0-.78-1.3c-.13.19-.38.38-.37.56a1.81,1.81,0,0,0,.35.73c.3.47.61.94.89,1.43Z"/><path class="cls-1" d="M153.5,858.22c-.73.19-1.62.07-1.92,1,.23,0,.55.12.66,0A14,14,0,0,0,153.3,858Z"/><polygon class="cls-1" points="90.24 880.47 90.66 880.89 90.79 880.37 90.24 880.47"/><path class="cls-1" d="M177.6,1042.37c.24.06.56.25.7.15s.22-.46.31-.71c-.24-.06-.56-.24-.7-.14S177.7,1042.13,177.6,1042.37Z"/><path class="cls-1" d="M415.21,1056.65l-.64.3c.12.22.24.62.34.62C415.67,1057.55,415.77,1057.2,415.21,1056.65Z"/><path class="cls-1" d="M220.42,383.8l.34.73c.25-.14.72-.28.72-.41C221.46,383.25,221.07,383.14,220.42,383.8Z"/><path class="cls-1" d="M104.38,1225.95c.26,0,.69,0,.74-.09s.06-.76,0-.8C104.3,1224.78,104.05,1225.12,104.38,1225.95Z"/><path class="cls-1" d="M752.54,120.76c-.33-2.35-2.12-3.05-4.05-3.6l.23-.38,4,3.72Z"/><path class="cls-1" d="M748.48,117.16l-1.78-4.32.24-.08,1.76,4Z"/><path class="cls-1" d="M243.93,633c.41-1.2.82-2.41,1.24-3.61l.25.18-1.26,3.65Z"/><path class="cls-1" d="M256.19,610.69l.49,6-.11,0c.15-2,.45-4.08-.37-6.09C256.2,610.62,256.19,610.69,256.19,610.69Z"/><path class="cls-1" d="M262.35,601.73c-.65,2-1.09,4-.17,6,0,0,0-.08,0,0-.18-2,1-4.07.07-6.17Z"/><path class="cls-1" d="M599.91,52.43l1.76-.18c-.72-1.09-1.22.15-1.86.2C599.78,52.48,599.91,52.43,599.91,52.43Z"/><path class="cls-1" d="M659.7,58.23l-1.56.52,1.62-.49Z"/><path class="cls-1" d="M592.42,58l1.69.07c-.58-1.22-1.19-.08-1.82,0C592.26,58.11,592.42,58,592.42,58Z"/><path class="cls-1" d="M170.3,1040l-.24.12Z"/><path class="cls-1" d="M564.14,94.26c.65,1.26,1.3,2.53,1.93,3.82,0,0-.14.26-.16.29a5.15,5.15,0,0,0-1.71-3.85Z"/><path class="cls-1" d="M500.55,44.32c.67.07,1.33,1.08,2,0,0,0-.4-.44-.56-.41a10.51,10.51,0,0,0-1.6.56Z"/><path class="cls-1" d="M680.76,75.69l.91-.06-.87.13Z"/><path class="cls-1" d="M136.44,854l.29-.71c-.49,1.18,1.22.89-.06.89Z"/><path class="cls-1" d="M1059.65,525.72l1.14,1.15c.43-1.6-.81-.75-1.36-.91Z"/><path class="cls-1" d="M248.94,622.93l-.9,4.47-.21-.19.87-4.08Z"/><path class="cls-1" d="M278.9,587.55l-.44-.31s.2.07.22.11A1.49,1.49,0,0,0,278.9,587.55Z"/><path class="cls-1" d="M557.11,89.34l-.24.43s0-.16.07-.18A1.46,1.46,0,0,0,557.11,89.34Z"/><path class="cls-1" d="M564.2,94.51l.1-.73-.16.46A2,2,0,0,0,564.2,94.51Z"/><path class="cls-1" d="M256.68,616.72l-3.94.34.11-.18c1.21-.06,2.42-.11,3.67-.16A.45.45,0,0,0,256.68,616.72Z"/><path class="cls-1" d="M647.15,103.49h-2.21l-.08-.24h2.38Z"/><path class="cls-1" d="M252.74,617.06l.39.45-.27-.62A1.22,1.22,0,0,0,252.74,617.06Z"/><path class="cls-1" d="M248.7,623.12l.69.23s-.45-.39-.45-.4A2.44,2.44,0,0,0,248.7,623.12Z"/><path class="cls-1" d="M248,627.4l-2.6,2.13-.26-.18,2.64-2.14Z"/><path class="cls-1" d="M252.45,630l-.69-.41s.47.44.5.45A.77.77,0,0,0,252.45,630Z"/><path class="cls-1" d="M244.16,633.17l-2.58,2-.27-.2c.86-.68,1.74-1.35,2.62-2Z"/><path class="cls-1" d="M775.66,118.57a10.63,10.63,0,0,0,0,1.78l-.13.3q0-1.06,0-2.12Z"/><path class="cls-1" d="M775.65,120.36l2.12,1.91-.27.29-2-1.91Z"/><path class="cls-1" d="M777.78,122.27q-.07,1.16-.15,2.32l-.28-.25,2.26-.05-.19.25-1.91-2Z"/><path class="cls-1" d="M773.86,124.39s.19-.18.2-.2S773.86,124.39,773.86,124.39Z"/><path class="cls-1" d="M154.16,839.92l0-.2Z"/><path class="cls-1" d="M154.13,839.72l-.43.71.43-.48A1,1,0,0,0,154.13,839.72Z"/><path class="cls-1" d="M136.67,854.17s-.25-.21-.24-.19S136.67,854.17,136.67,854.17Z"/><path class="cls-1" d="M171,858.18l-.11-.3s.19.5.21.52A1.74,1.74,0,0,0,171,858.18Z"/><path class="cls-1" d="M153.3,858l2.1-2.62.17.21q-1,1.29-2.07,2.61Z"/><polygon class="cls-1" points="79.24 886.98 79.38 886.6 79.49 886.9 79.24 886.98"/><path class="cls-1" d="M79.49,886.91l-.73-.1.46.17A2,2,0,0,0,79.49,886.91Z"/><path class="cls-1" d="M170.05,1040.09l.77,0-.51-.09A2.46,2.46,0,0,0,170.05,1040.09Z"/><path class="cls-1" d="M193.19,1041.83l.61.24-.33-.21A1.53,1.53,0,0,0,193.19,1041.83Z"/><path class="cls-1" d="M183.08,1050.2l-.62-.24.34.22A1.62,1.62,0,0,0,183.08,1050.2Z"/><path class="cls-1" d="M230.6,461.64l0,.69s.12-.45.13-.45S230.6,461.64,230.6,461.64Z"/><path class="cls-1" d="M491.15,61.2l-1.82-2,.28-.09,1.84,2Z"/><path class="cls-1" d="M493.11,63.08l-2-1.88.31-.11L493.41,63Z"/><path class="cls-1" d="M495,65l-1.88-1.95.3-.1,1.89,2Z"/><path class="cls-1" d="M497,66.92,495,65l.31-.11,2,1.87Z"/><path class="cls-1" d="M142.56,1186.53l.25,0Z"/><path class="cls-1" d="M142.81,1186.51l-.65-.21.39.23A1.68,1.68,0,0,0,142.81,1186.51Z"/><path class="cls-1" d="M110.45,1197.2l.66.36-.45-.4A1,1,0,0,0,110.45,1197.2Z"/><path class="cls-1" d="M499.14,69l-2.17-2,.31-.13,2,1.88Z"/><polygon class="cls-1" points="290.05 68.69 290.38 68.6 290.26 68.96 290.05 68.69"/><path class="cls-1" d="M290.26,69l-.21-.29Z"/><path class="cls-1" d="M680.8,75.76c0-1.46,0-2.92,0-4.39l0,0q0,2.11,0,4.25A.46.46,0,0,0,680.8,75.76Z"/><path class="cls-1" d="M1069.76,544.39l-.25.43s0-.19,0-.21A2.44,2.44,0,0,0,1069.76,544.39Z"/><path class="cls-1" d="M618.13,80.75l-2.27-2.37.2-.18,2.25,2.31Z"/><polygon class="cls-1" points="184.88 1310.32 184.5 1310.15 184.86 1310.1 184.88 1310.32"/><path class="cls-1" d="M184.86,1310.1l-.4.74.4-.5A.93.93,0,0,0,184.86,1310.1Z"/><path class="cls-1" d="M404.7,927.28a10.06,10.06,0,0,0-1.23,1.25,1,1,0,0,0,.09.88,6.43,6.43,0,0,0,6.33,3.15c.29,0,.81-1.15.65-1.51A5.69,5.69,0,0,0,404.7,927.28Z"/><path class="cls-1" d="M487.43,938c.3,1.73,1.92,2.91,3.33,2.43a1.94,1.94,0,0,0,1-2.38A2.55,2.55,0,0,0,489,936,1.89,1.89,0,0,0,487.43,938Z"/><path class="cls-1" d="M450.68,758.39c3.61,1.45,7.23,2.91,10.89,4.33l-.11,0a12.7,12.7,0,0,0-2.31-2.63,11.38,11.38,0,0,0-8.66-1.58Z"/><polygon class="cls-1" points="499.26 934.25 498.75 934.71 499.38 934.92 499.26 934.25"/><path class="cls-1" d="M467,764.76c-1.1-2.67-3.15-2.77-5.55-2,0,0,.12,0,.07,0a8.78,8.78,0,0,1,5.54,2.05Z"/><path class="cls-1" d="M467.11,764.78l2.72.08c.31,0,.83.15.88,0,.32-.65,0-.94-.93-.75s-1.79.4-2.71.61C467,764.76,467.11,764.78,467.11,764.78Z"/><path class="cls-1" d="M482.84,766.77c-.9-.15-1.8-.32-2.71-.45-.28,0-.8,0-.84.11-.24.68.14,1.07,1,.93s1.77-.42,2.69-.67Z"/><path class="cls-1" d="M348.34,889.74a4.53,4.53,0,0,1-.27-.88c-.1-.94-.08-.94,0,0a9,9,0,0,0,.21.91Z"/><path class="cls-1" d="M382.79,892.94s.08.06.13,0S382.79,892.94,382.79,892.94Z"/><path class="cls-1" d="M386.28,893.75l-3.46-.83s.14,0,.09.05c1.07.19,2.2.36,3.32.54Z"/><path class="cls-1" d="M386.23,893.52l-.21.68.25-.43A1.6,1.6,0,0,0,386.23,893.52Z"/><path class="cls-1" d="M176,497.78a4.12,4.12,0,0,1,2-3c1.31-.82,2.8-1.39,3.61-2.88.34-.62.37-.79-.33-.75-2.07.1-4.29,2.17-5,4.77a10.37,10.37,0,0,0-.19,1.88Z"/><path class="cls-1" d="M161.46,504.08c-.31,0-.63,0-.94.07-.91.13-2,1.62-1.46,2a2.65,2.65,0,0,0,1.61.47,5.18,5.18,0,0,0,1.82-.51,10.6,10.6,0,0,0,1.41-.88c-.5-.33-1-.7-1.51-1A3.36,3.36,0,0,0,161.46,504.08Z"/><path class="cls-1" d="M200.61,483.45a15.47,15.47,0,0,0-1.81.28c-.73.2-1.11.82-.73,1.4.26.4,1,.56,1.49.72.26.08.59-.11.89-.18,1.47-.39,2.3-1.14,1.78-1.54A6.63,6.63,0,0,0,200.61,483.45Z"/><path class="cls-1" d="M176.09,497.75a16.11,16.11,0,0,0-1.79-.23,10.67,10.67,0,0,0-1.54.18c.5,0,1,0,1.49,0s1.19.08,1.8.12Z"/><path class="cls-1" d="M164.18,500.81c.25.08.53.26.73.2a.78.78,0,0,0,.46-.58c-.08-.77-.53-.92-1.1-.36C164.13,500.2,164.21,500.56,164.18,500.81Z"/><path class="cls-1" d="M178.12,530.17a8.68,8.68,0,0,0,5.7.3s-.05,0,0,0l-5.59-.06Z"/><path class="cls-1" d="M178.21,530.4l.15-.71-.23.47A1.58,1.58,0,0,0,178.21,530.4Z"/><path class="cls-1" d="M435.85,535.08c.07.29,0,.7.23.85,1.37,1.14,2.86.76,4.34.24.91-.32,1.63-1.79,1.07-2.23a2.45,2.45,0,0,0-1.6-.64,21.25,21.25,0,0,0-3.51,1.06C436.14,534.44,436,534.83,435.85,535.08Z"/><path class="cls-1" d="M470.49,531.61a3.1,3.1,0,0,0,1.6.62c.49-.06,1-.59,1.36-1,.08-.09-.09-.64-.28-.75a2,2,0,0,0-2.51.31A1,1,0,0,0,470.49,531.61Z"/><path class="cls-1" d="M450.26,532.85a8,8,0,0,0,1.52.07c.16,0,.4-.47.38-.69-.07-.68-.61-1.07-1.2-.74C450.59,531.69,450.48,532.38,450.26,532.85Z"/><polygon class="cls-1" points="445.2 66.75 445.56 66.66 445.45 67.01 445.2 66.75"/><path class="cls-1" d="M469.82,75.52l.26-.65-.35.48S469.82,75.52,469.82,75.52Z"/><path class="cls-1" d="M299.49,268.68c.16.21.28.56.48.61a6.52,6.52,0,0,0,1.65.16c.12,0,.23-.35.34-.54L299.8,268Z"/><path class="cls-1" d="M288.17,279.1c.22.1.45.3.66.27s.36-.28.54-.44c-.22-.1-.46-.29-.66-.27S288.35,278.94,288.17,279.1Z"/><path class="cls-1" d="M788.93,131.94l2.24,2.24Z"/><path class="cls-1" d="M712.4,111.16l0-2.28C711,109.94,711,109.94,712.4,111.16Z"/><path class="cls-1" d="M391.78,78.21h-2.19v2.17h2.18Q391.78,79.3,391.78,78.21Z"/></svg>