<svg xmlns="http://www.w3.org/2000/svg" viewBox="0 0 21 24"><defs><style>.cls-1{fill:#fff;}.cls-2{fill:#e1e9d7;}.cls-3,.cls-4{fill:none;stroke-linecap:round;stroke-linejoin:round;}.cls-3{stroke:#e1e9d7;}.cls-4{stroke:#61892f;}</style></defs><title>mustache-guy-duo</title><g id="Layer_2" data-name="Layer 2"><g id="Background_Color" data-name="Background Color"><polygon class="cls-1" points="18.5 10.5 18.5 4 10.5 0.5 2.5 4 2.5 10.5 0.5 10.5 0.5 14.5 2.5 15.5 2.5 19 10.5 23.5 18.5 19 18.5 15.5 20.5 14.5 20.5 10.5 18.5 10.5"/></g><g id="Shadow_Color" data-name="Shadow Color"><polygon class="cls-2" points="12.92 3.06 10.5 2 8.08 3.06 7.04 2.01 10.5 5.5 13.96 2.01 12.92 3.06"/><polygon class="cls-2" points="14 17.5 10.5 15.5 7 17.5 2.5 15 2.5 19 10.5 23.5 18.5 19 18.5 15 14 17.5"/><polygon class="cls-2" points="9.5 10 9.5 12 8 13.5 6 13.5 4.5 12 9.5 10"/><polygon class="cls-2" points="16.5 10 16.5 12 15 13.5 13 13.5 11.5 12 16.5 10"/></g><g id="Stroke_Color" data-name="Stroke Color"><line class="cls-3" x1="4.5" y1="5.29" x2="6.5" y2="4.48"/><polyline class="cls-4" points="2.5 10.5 0.5 10.5 0.5 14.5 2.5 15.5"/><polyline class="cls-4" points="18.5 10.5 20.5 10.5 20.5 14.5 18.5 15.5"/><line class="cls-4" x1="9.5" y1="10.5" x2="11.5" y2="10.5"/><polyline class="cls-4" points="2.5 15 7 17.5 10.5 15.5 14 17.5 18.5 15"/><line class="cls-4" x1="9.5" y1="18.5" x2="11.5" y2="18.5"/><polygon class="cls-4" points="18.5 19 10.5 23.5 2.5 19 2.5 4 10.5 0.5 18.5 4 18.5 19"/><polygon class="cls-4" points="6 13.5 4.5 12 4.5 10 6 8.5 8 8.5 9.5 10 9.5 12 8 13.5 6 13.5"/><polygon class="cls-4" points="12.96 13.5 11.5 12.04 11.5 9.96 12.96 8.5 15.04 8.5 16.5 9.96 16.5 12.04 15.04 13.5 12.96 13.5"/><polygon class="cls-4" points="13.96 2.01 10.5 5.5 7.04 2.01 10.5 0.5 13.96 2.01"/></g></g></svg>