<?xml version="1.0" encoding="utf-8"?>
<!-- Generator: Adobe Illustrator 20.1.0, SVG Export Plug-In . SVG Version: 6.00 Build 0)  -->
<svg version="1.1" id="Layer_1" xmlns="http://www.w3.org/2000/svg" xmlns:xlink="http://www.w3.org/1999/xlink" x="0px" y="0px"
	 viewBox="0 0 24 24" style="enable-background:new 0 0 24 24;" xml:space="preserve">
<style type="text/css">
	.st0{fill:#58595B;}
</style>
<path class="st0" d="M2.9,15.7L11,21v-4.8l-4.5-3L2.9,15.7z M2.1,13.7L4.6,12l-2.6-1.7V13.7z M13,21l8.1-5.4l-3.6-2.4l-4.5,3V21z
	 M12,14.4l3.6-2.4L12,9.6L8.4,12L12,14.4z M6.5,10.8l4.5-3V3L2.9,8.3L6.5,10.8z M19.4,12l2.6,1.7v-3.5L19.4,12z M17.5,10.8l3.6-2.4
	L13,3v4.8L17.5,10.8z M24,8.3v7.3c0,0.4-0.2,0.7-0.5,0.9l-11,7.3C12.4,23.9,12.2,24,12,24s-0.4-0.1-0.6-0.2l-11-7.3
	C0.2,16.3,0,16,0,15.7V8.3C0,8,0.2,7.7,0.5,7.5l11-7.3C11.6,0.1,11.8,0,12,0s0.4,0.1,0.6,0.2l11,7.3C23.8,7.7,24,8,24,8.3z"/>
</svg>
