<svg xmlns="http://www.w3.org/2000/svg" viewBox="0 0 30 30"><defs><style>.cls-1{fill:#61892F;}</style></defs><title>Asset 2</title><g id="Layer_2" data-name="Layer 2"><g id="codepen"><path id="wtf" class="cls-1" d="M30,10.2l0-.11,0-.06,0-.09,0-.06,0-.09,0-.06-.06-.08,0-.06-.06-.07-.05-.05-.07-.06-.06,0,0,0L15.72.22a1.29,1.29,0,0,0-1.43,0L.57,9.36l0,0-.06,0-.07.06-.05,0L.31,9.6l0,.06-.05.08,0,.06,0,.09,0,.06,0,.09,0,.06,0,.11v.06a1.34,1.34,0,0,0,0,.17v9.14a1.34,1.34,0,0,0,0,.17v.06l0,.11,0,.06,0,.09,0,.06,0,.09,0,.06.06.08,0,.06.06.07.05,0,.07.06.06,0,0,0,13.71,9.14A1.31,1.31,0,0,0,15,30a1.28,1.28,0,0,0,.72-.22l13.71-9.14,0,0,.06,0,.07-.06.05,0,.06-.07,0-.06.06-.08,0-.06,0-.09,0-.06,0-.09,0-.06,0-.11v-.06a1.09,1.09,0,0,0,0-.17V10.43a1.19,1.19,0,0,0,0-.17ZM15,18l-4.56-3L15,11.95,19.56,15ZM13.71,9.71,8.12,13.45l-4.51-3L13.71,3.7ZM5.8,15,2.58,17.16V12.84Zm2.32,1.55,5.59,3.74v6L3.61,19.57Zm8.17,3.74,5.59-3.74,4.51,3L16.29,26.3ZM24.2,15l3.23-2.16v4.31Zm-2.32-1.55L16.29,9.71v-6l10.1,6.73Z"/></g></g></svg>