<svg xmlns="http://www.w3.org/2000/svg" viewBox="0 0 24.88 30"><defs><style>.cls-1{fill:#61892F;}</style></defs><title>Cat 1</title><g id="Layer_2" data-name="Layer 2"><g id="Github"><path id="Cat" class="cls-1" d="M17.88,30h-8s0-2.37,0-4c-5.47,1.18-7-3-7-3a12.38,12.38,0,0,0-2-3c-2-1.19,0-1,0-1a3.7,3.7,0,0,1,3,2,4.75,4.75,0,0,0,6,2,4.9,4.9,0,0,1,1-3c-4.37-.49-8-3-8-8s1-6,2-7a6.19,6.19,0,0,1,0-5s2,0,4,3c1-1,4-1,5-1s4,0,5,1c2-3,4-3,4-3a6.19,6.19,0,0,1,0,5c1,1,2,2,2,7s-3.63,7.51-8,8a5.42,5.42,0,0,1,1,3Z"/></g></g></svg>