<?xml version="1.0" encoding="utf-8"?>
<!-- Generator: Adobe Illustrator 20.1.0, SVG Export Plug-In . SVG Version: 6.00 Build 0)  -->
<svg version="1.1" id="Github" xmlns="http://www.w3.org/2000/svg" xmlns:xlink="http://www.w3.org/1999/xlink" x="0px" y="0px"
	 viewBox="0 0 24 24" style="enable-background:new 0 0 24 24;" xml:space="preserve">
<style type="text/css">
	.st0{fill:#58595B;}
</style>
<path id="Cat" class="st0" d="M15.4,24h-3.2H9c0,0,0-1.9,0-3.2c-4.4,0.9-5.6-2.4-5.6-2.4C2.6,16.8,1.8,16,1.8,16c-1.6-1,0-0.8,0-0.8
	c1.6,0,2.4,1.6,2.4,1.6c1.4,2.4,3.9,2,4.8,1.6c0-0.8,0.4-2,0.8-2.4c-3.5-0.4-6.4-2.4-6.4-6.4S4.2,4.8,5,4C4.8,3.6,4.1,2.1,5,0
	c0,0,1.6,0,3.2,2.4c0.8-0.8,3.2-0.8,4-0.8c0.8,0,3.2,0,4,0.8C17.8,0,19.3,0,19.3,0c0.9,2.1,0.2,3.6,0,4C20.2,4.8,21,5.6,21,9.6
	s-2.9,6-6.4,6.4c0.4,0.4,0.8,1.8,0.8,2.4V24z"/>
</svg>
