<svg xmlns="http://www.w3.org/2000/svg" viewBox="0 0 27.79 27.67"><defs><style>.cls-1{fill:#58595b;}</style></defs><title>Asset 1</title><g id="Layer_2" data-name="Layer 2"><g id="Layer_1-2" data-name="Layer 1"><g id="black"><g id="linkedin"><path class="cls-1" d="M5.83,27.67V9.37H.17v18.3Zm0-24.78A2.78,2.78,0,0,0,2.93,0,2.79,2.79,0,0,0,0,2.88,2.77,2.77,0,0,0,2.86,5.77h0A2.79,2.79,0,0,0,5.83,2.88Zm9.23,24.78V17.24a4.24,4.24,0,0,1,.2-1.51,3.4,3.4,0,0,1,3.18-2.27c2.25,0,3.65,1.27,3.65,3.78V27.67h5.69V17c0-5.73-3.06-8.4-7.14-8.4A6.18,6.18,0,0,0,15,11.71l0-2.45H9.37c.08,1.75,0,18.41,0,18.41Z"/></g></g></g></g></svg>