<svg xmlns="http://www.w3.org/2000/svg" viewBox="0 0 24 23"><defs><style>.cls-1{fill:none;stroke:#58595b;stroke-linecap:round;stroke-linejoin:round;}</style></defs><title>Asset 11</title><g id="Layer_2" data-name="Layer 2"><g id="Free_Icons" data-name="Free Icons"><line class="cls-1" x1="12.5" y1="9.5" x2="11.5" y2="9.5"/><polyline class="cls-1" points="0.5 9.5 2.5 0.5 21.5 0.5 23.5 9.5"/><polyline class="cls-1" points="0.5 22.5 1.5 19.5 1 16 2 10.5 3 10.5 3 15 5 8.5 6.5 8.5 5.5 15 8 8.5 9.5 8.5 7.5 16.5 10 15 11 15.5 7 20.5 6.5 22.5"/><polyline class="cls-1" points="23.5 22.5 22.5 19.5 23 16 22 10.5 21 10.5 21 15 19 8.5 17.5 8.5 18.5 15 16 8.5 14.5 8.5 16.5 16.5 14 15 13 15.5 17 20.5 17.5 22.5"/><line class="cls-1" x1="5.5" y1="3.5" x2="6" y2="3.5"/><line class="cls-1" x1="8" y1="3.5" x2="8.5" y2="3.5"/><line class="cls-1" x1="10.5" y1="3.5" x2="11" y2="3.5"/><line class="cls-1" x1="13" y1="3.5" x2="13.5" y2="3.5"/><line class="cls-1" x1="15.5" y1="3.5" x2="16" y2="3.5"/><line class="cls-1" x1="18" y1="3.5" x2="18.5" y2="3.5"/><line class="cls-1" x1="4.5" y1="5.5" x2="5" y2="5.5"/><line class="cls-1" x1="7" y1="5.5" x2="7.5" y2="5.5"/><line class="cls-1" x1="9.5" y1="5.5" x2="10" y2="5.5"/><line class="cls-1" x1="12" y1="5.5" x2="12.5" y2="5.5"/><line class="cls-1" x1="14.5" y1="5.5" x2="15" y2="5.5"/><line class="cls-1" x1="17" y1="5.5" x2="17.5" y2="5.5"/><line class="cls-1" x1="19.5" y1="5.5" x2="20" y2="5.5"/></g></g></svg>